<svg xmlns="http://www.w3.org/2000/svg" viewBox="0 0 759 548"><defs><style>.cls-1,.cls-13,.cls-14{opacity:0.74;}.cls-13,.cls-2{fill:#cedeff;}.cls-14,.cls-3{fill:#97b3ff;}.cls-4{fill:none;}.cls-4,.cls-7{stroke:#000;stroke-miterlimit:10;}.cls-5{fill:#ffec7d;}.cls-6{fill:#faa214;}.cls-11,.cls-7,.cls-9{fill:#fff;}.cls-8{fill:#a1504d;}.cls-10{fill:#504b48;}.cls-11{opacity:0.85;}.cls-12,.cls-15{fill:#4d7bd4;}.cls-12{opacity:0.89;}.cls-16{fill:#a6b6cd;}.cls-17{fill:#425782;}</style></defs><g id="레이어_4" data-name="레이어 4"><g class="cls-1"><path class="cls-2" d="M155.91,39.4a4.72,4.72,0,0,0-1.41.22,8.15,8.15,0,0,0-.1-2.15c-.87-4.71-5.77-7.29-11.06-5.9q0-.62-.06-1.23c-.93-8.41-11-13.54-22.4-11.46-7.36,1.33-13.5,5.32-16.7,10.23a12,12,0,0,0-19.94,9c0,.3,0,.59,0,.88a14.56,14.56,0,0,0-1.49-.08c-4.92,0-8.9,2.49-8.9,5.56s4,5.57,8.9,5.57h73.12a5.31,5.31,0,0,0,0-10.6Z"/></g><g class="cls-1"><path class="cls-3" d="M333.22,51a4.06,4.06,0,0,0-3.9-.24,5.93,5.93,0,0,0-4-6.69,5.74,5.74,0,0,0-3.36,0c.83-5.45-1.66-10.41-5.93-11.41-3.17-.73-6.49.91-8.73,3.94a12.59,12.59,0,0,0-9.08-3.82,12.27,12.27,0,0,0-12.45,12.07c0,.28,0,.56,0,.84a4,4,0,0,0-.77-.4A4.84,4.84,0,0,0,279.41,47a5.52,5.52,0,0,0-4.36-2.19,5.69,5.69,0,0,0-5.34,4.07A4.8,4.8,0,0,0,266,53.34a4.93,4.93,0,0,0,4.52,4.6V58h61.65v-.16a4,4,0,0,0,2.18-1.57A3.78,3.78,0,0,0,333.22,51Z"/></g><path d="M193.83,103v35.36H157.54V103h36.29m.89-1H156.64a.1.1,0,0,0-.1.1v37.15a.11.11,0,0,0,.1.11h38.08a.11.11,0,0,0,.11-.11V102.09a.1.1,0,0,0-.11-.1Z"/><path class="cls-4" d="M193.87,103.05,157.5,138.28Z"/><path class="cls-4" d="M157.5,103.05,194,138.4Z"/><path d="M193.83,139.28v35.36H157.54V139.28h36.29m.89-1H156.64a.1.1,0,0,0-.1.1v37.16a.11.11,0,0,0,.1.1h38.08a.11.11,0,0,0,.11-.1V138.38a.1.1,0,0,0-.11-.1Z"/><path class="cls-4" d="M193.87,139.35,157.5,174.57Z"/><path class="cls-4" d="M157.5,139.35,194,174.69Z"/><path d="M193.83,175.57v35.36H157.54V175.57h36.29m.89-1H156.64a.11.11,0,0,0-.1.1v37.16a.11.11,0,0,0,.1.1h38.08a.11.11,0,0,0,.11-.1V174.67a.11.11,0,0,0-.11-.1Z"/><path class="cls-4" d="M193.87,175.64,157.5,210.86Z"/><path class="cls-4" d="M157.5,175.64,194,211Z"/><path d="M193.83,211.86v35.36H157.54V211.86h36.29m.89-1H156.64a.11.11,0,0,0-.1.1v37.16a.1.1,0,0,0,.1.1h38.08a.1.1,0,0,0,.11-.1V211a.11.11,0,0,0-.11-.1Z"/><path class="cls-4" d="M193.87,211.93,157.5,247.15Z"/><path class="cls-4" d="M157.5,211.93,194,247.27Z"/><path d="M193.83,248.15v35.36H157.54V248.15h36.29m.89-1H156.64a.11.11,0,0,0-.1.11v37.15a.1.1,0,0,0,.1.1h38.08a.1.1,0,0,0,.11-.1V247.26a.11.11,0,0,0-.11-.11Z"/><path class="cls-4" d="M193.87,248.22,157.5,283.45Z"/><path class="cls-4" d="M157.5,248.22,194,283.56Z"/><path d="M193.83,284.45V319.8H157.54V284.45h36.29m.89-1H156.64a.1.1,0,0,0-.1.1V320.7a.1.1,0,0,0,.1.1h38.08a.1.1,0,0,0,.11-.1V283.55a.1.1,0,0,0-.11-.1Z"/><path class="cls-4" d="M193.87,284.51,157.5,319.74Z"/><path class="cls-4" d="M157.5,284.51,194,319.86Z"/><path d="M193.83,320.74V356.1H157.54V320.74h36.29m.89-1H156.64a.1.1,0,0,0-.1.1V357a.11.11,0,0,0,.1.11h38.08a.11.11,0,0,0,.11-.11V319.84a.1.1,0,0,0-.11-.1Z"/><path class="cls-4" d="M193.87,320.8,157.5,356Z"/><path class="cls-4" d="M157.5,320.8,194,356.15Z"/><path d="M193.83,393.32v35.36H157.54V393.32h36.29m.89-1H156.64a.11.11,0,0,0-.1.1v37.16a.11.11,0,0,0,.1.1h38.08a.11.11,0,0,0,.11-.1V392.42a.11.11,0,0,0-.11-.1Z"/><path class="cls-4" d="M193.87,393.39,157.5,428.61Z"/><path class="cls-4" d="M157.5,393.39,194,428.73Z"/><path d="M193.83,429.61V465H157.54V429.61h36.29m.89-1H156.64a.11.11,0,0,0-.1.1v37.16a.1.1,0,0,0,.1.1h38.08a.1.1,0,0,0,.11-.1V428.71a.11.11,0,0,0-.11-.1Z"/><path class="cls-4" d="M193.87,429.68,157.5,464.9Z"/><path class="cls-4" d="M157.5,429.68,194,465Z"/><path d="M193.83,357v35.36H157.54V357h36.29m.89-1H156.64a.1.1,0,0,0-.1.1v37.16a.11.11,0,0,0,.1.1h38.08a.11.11,0,0,0,.11-.1V356.13a.1.1,0,0,0-.11-.1Z"/><path class="cls-4" d="M193.87,357.1,157.5,392.32Z"/><path class="cls-4" d="M157.5,357.1,194,392.44Z"/><rect class="cls-5" x="102.32" y="465.4" width="132.61" height="21.16" transform="translate(337.25 951.96) rotate(-180)"/><rect class="cls-6" x="102.32" y="465.4" width="24.6" height="21.16" transform="translate(229.24 951.96) rotate(-180)"/><ellipse cx="214.08" cy="497.99" rx="11.23" ry="12.01"/><ellipse class="cls-3" cx="214.08" cy="497.99" rx="4.81" ry="5.15"/><ellipse cx="146.7" cy="497.99" rx="11.23" ry="12.01"/><ellipse class="cls-3" cx="146.7" cy="497.99" rx="4.81" ry="5.15"/><path class="cls-4" d="M175.67,76.14l18.89,25.94a.28.28,0,0,1-.22.44H156.55a.28.28,0,0,1-.22-.44l18.89-25.94A.28.28,0,0,1,175.67,76.14Z"/><path class="cls-4" d="M175.47,76l-.09,26Z"/><rect class="cls-4" x="82" y="120.04" width="74.86" height="19.44" transform="translate(238.86 259.51) rotate(-180)"/><path class="cls-4" d="M156.86,139.48l-18.37-18.6a1,1,0,0,0-1.41,0l-18,17.9a1,1,0,0,1-1.41,0l-17.85-18a.91.91,0,0,0-1.36,0L82,139.48"/><polygon class="cls-4" points="194.03 121.18 296.7 121.18 194.29 159.49 194.03 121.18"/><path class="cls-4" d="M194,159.44l15.66-37.34c.21-.51.62-.54.9-.07l15,24.78c.28.47.67.43.86-.09l8.94-24.6a.58.58,0,0,1,1-.22l14.65,15.23a.58.58,0,0,0,1-.21l5.7-14.81a.71.71,0,0,1,1.16-.32l11.24,8.59a.83.83,0,0,0,1.27-.27l4.39-8.05a1.15,1.15,0,0,1,1.41-.5l8.7,3.54"/><ellipse class="cls-4" cx="175.58" cy="70.29" rx="4.81" ry="5.15"/><polyline class="cls-4" points="82 120.04 175.58 64 296.7 121.18"/><rect class="cls-4" x="291.61" y="126.78" width="9.63" height="14.98"/><ellipse class="cls-7" cx="296.42" cy="126.22" rx="4.81" ry="5.04"/><rect class="cls-8" x="294.89" y="148" width="3.11" height="4.06"/><ellipse class="cls-7" cx="296.42" cy="143.01" rx="4.81" ry="5.04"/><ellipse class="cls-4" cx="296.96" cy="158.92" rx="6.42" ry="6.86"/><rect class="cls-9" x="297.49" y="153.77" width="6.54" height="9.24"/><rect class="cls-3" x="291.9" y="271.65" width="83.1" height="239.35"/><rect class="cls-5" x="374.9" y="271.65" width="83.1" height="239.35"/><rect class="cls-10" x="225.5" y="200.5" width="148" height="16"/><path class="cls-4" d="M297,165.78l.08,10.85Z"/><path class="cls-4" d="M225,201l72-24.37Z"/><path class="cls-4" d="M373,200l-76-23.37Z"/><rect class="cls-11" x="324.38" y="299.59" width="41.33" height="52.24"/><rect class="cls-11" x="323.64" y="365.81" width="41.33" height="52.24"/><rect class="cls-11" x="384.9" y="366.42" width="41.33" height="52.24"/><rect class="cls-11" x="325.12" y="432.03" width="41.33" height="52.24"/><rect class="cls-11" x="384.9" y="431.42" width="41.33" height="52.24"/><rect class="cls-11" x="384.9" y="298.99" width="41.33" height="52.24"/><rect class="cls-12" x="272.5" y="252.5" width="201.5" height="19.83"/><circle class="cls-5" cx="235.5" cy="208.5" r="4"/><circle class="cls-5" cx="253.5" cy="208.5" r="4"/><circle class="cls-5" cx="271.5" cy="208.5" r="4"/><circle class="cls-5" cx="289.5" cy="208.5" r="4"/><circle class="cls-5" cx="307.5" cy="208.5" r="4"/><circle class="cls-5" cx="325.5" cy="208.5" r="4"/><circle class="cls-5" cx="343.5" cy="208.5" r="4"/><circle class="cls-5" cx="361.5" cy="208.5" r="4"/><path class="cls-13" d="M575.06,113.94c0-3.63-3.83-6.56-8.55-6.56a10.11,10.11,0,0,0-5.76,1.71c-.52-5.37-5.65-9.59-11.91-9.59a12.26,12.26,0,0,0-10.58,5.59,5,5,0,0,0-3.39-1.39c-2.65,0-4.89,2.26-5.68,5.4a13.2,13.2,0,0,0-2-.15c-5,0-9.12,2.59-9.12,5.78,0,2.94,3.48,5.36,8,5.72v0h41.61v-.07C571.83,120,575.06,117.26,575.06,113.94Z"/><path class="cls-14" d="M678,54.94c0-5-5.1-9.06-11.39-9.06a13.09,13.09,0,0,0-7.67,2.37c-.7-7.42-7.53-13.25-15.87-13.25A16.22,16.22,0,0,0,629,42.72a6.54,6.54,0,0,0-4.51-1.92c-3.53,0-6.51,3.12-7.57,7.45a18,18,0,0,0-2.68-.2c-6.71,0-12.15,3.57-12.15,8,0,4.06,4.64,7.41,10.63,7.9V64h55.44v-.09C673.7,63.32,678,59.53,678,54.94Z"/><rect class="cls-2" x="443.06" y="327" width="239" height="184"/><path class="cls-9" d="M511.51,368.21a1,1,0,0,0-1.41,0l-10.34,10.33a2.78,2.78,0,0,0-.7,1.71V413.5a1,1,0,0,0,1,1h21.5a1,1,0,0,0,1-1V380.25a2.79,2.79,0,0,0-.71-1.71Z"/><rect class="cls-2" x="501.99" y="384.64" width="7.34" height="3.92"/><rect class="cls-2" x="512.27" y="384.64" width="7.34" height="3.92"/><rect class="cls-2" x="501.99" y="391" width="7.34" height="3.92"/><rect class="cls-2" x="512.27" y="391" width="7.34" height="3.92"/><rect class="cls-2" x="501.99" y="397.36" width="7.34" height="3.92"/><rect class="cls-2" x="512.27" y="397.36" width="7.34" height="3.92"/><rect class="cls-2" x="501.99" y="403.73" width="7.34" height="3.92"/><rect class="cls-2" x="512.27" y="403.73" width="7.34" height="3.92"/><path class="cls-15" d="M538,350.31a.68.68,0,0,0-1.17,0L526.21,365a3.54,3.54,0,0,0-.59,1.81v46.87a1,1,0,0,0,1,1h21.5a1,1,0,0,0,1-1V366.79a3.62,3.62,0,0,0-.58-1.81Z"/><rect class="cls-2" x="528.56" y="373.26" width="7.34" height="5.43"/><rect class="cls-2" x="538.84" y="373.26" width="7.34" height="5.43"/><rect class="cls-2" x="528.56" y="382.08" width="7.34" height="5.43"/><rect class="cls-2" x="538.84" y="382.08" width="7.34" height="5.43"/><rect class="cls-2" x="528.56" y="390.9" width="7.34" height="5.43"/><rect class="cls-2" x="538.84" y="390.9" width="7.34" height="5.43"/><rect class="cls-2" x="528.56" y="399.73" width="7.34" height="5.43"/><rect class="cls-2" x="538.84" y="399.73" width="7.34" height="5.43"/><path class="cls-9" d="M565.08,368.37a1,1,0,0,0-1.42,0L553.33,378.7a2.79,2.79,0,0,0-.71,1.71v33.25a1,1,0,0,0,1,1h21.5a1,1,0,0,0,1-1V380.41a2.79,2.79,0,0,0-.71-1.71Z"/><rect class="cls-2" x="555.56" y="384.79" width="7.34" height="3.92"/><rect class="cls-2" x="565.84" y="384.79" width="7.34" height="3.92"/><rect class="cls-2" x="555.56" y="391.16" width="7.34" height="3.92"/><rect class="cls-2" x="565.84" y="391.16" width="7.34" height="3.92"/><rect class="cls-2" x="555.56" y="397.52" width="7.34" height="3.92"/><rect class="cls-2" x="565.84" y="397.52" width="7.34" height="3.92"/><rect class="cls-2" x="555.56" y="403.89" width="7.34" height="3.92"/><rect class="cls-2" x="565.84" y="403.89" width="7.34" height="3.92"/><path class="cls-5" d="M592.08,368.37a1,1,0,0,0-1.42,0L580.33,378.7a2.79,2.79,0,0,0-.71,1.71v33.25a1,1,0,0,0,1,1h21.5a1,1,0,0,0,1-1V380.41a2.79,2.79,0,0,0-.71-1.71Z"/><rect class="cls-2" x="582.56" y="384.79" width="7.34" height="3.92"/><rect class="cls-2" x="592.84" y="384.79" width="7.34" height="3.92"/><rect class="cls-2" x="582.56" y="391.16" width="7.34" height="3.92"/><rect class="cls-2" x="592.84" y="391.16" width="7.34" height="3.92"/><rect class="cls-2" x="582.56" y="397.52" width="7.34" height="3.92"/><rect class="cls-2" x="592.84" y="397.52" width="7.34" height="3.92"/><rect class="cls-2" x="582.56" y="403.89" width="7.34" height="3.92"/><rect class="cls-2" x="592.84" y="403.89" width="7.34" height="3.92"/><path class="cls-9" d="M619.08,368.37a1,1,0,0,0-1.42,0L607.33,378.7a2.79,2.79,0,0,0-.71,1.71v33.25a1,1,0,0,0,1,1h21.5a1,1,0,0,0,1-1V380.41a2.79,2.79,0,0,0-.71-1.71Z"/><rect class="cls-2" x="609.56" y="384.79" width="7.34" height="3.92"/><rect class="cls-2" x="619.84" y="384.79" width="7.34" height="3.92"/><rect class="cls-2" x="609.56" y="391.16" width="7.34" height="3.92"/><rect class="cls-2" x="619.84" y="391.16" width="7.34" height="3.92"/><rect class="cls-2" x="609.56" y="397.52" width="7.34" height="3.92"/><rect class="cls-2" x="619.84" y="397.52" width="7.34" height="3.92"/><rect class="cls-2" x="609.56" y="403.89" width="7.34" height="3.92"/><rect class="cls-2" x="619.84" y="403.89" width="7.34" height="3.92"/><polyline class="cls-4" points="490.06 439 490.06 488 539.06 488"/><rect class="cls-16" x="496.06" y="464" width="7" height="21.5"/><rect class="cls-17" x="510.06" y="449" width="7" height="36.5"/><rect class="cls-9" x="524.06" y="464" width="7" height="21.5"/><polyline class="cls-4" points="584.06 438 584.06 487 633.06 487"/><rect class="cls-9" x="590.06" y="463" width="7" height="21.5"/><rect class="cls-17" x="604.06" y="468" width="6.94" height="16.5"/><rect class="cls-5" x="618.06" y="445" width="6" height="39.5"/><polyline class="cls-4" points="593 457 607 465 619 440"/><polyline class="cls-4" points="499.5 458.5 513.5 441.5 529.5 459.5"/></g></svg>