<svg xmlns="http://www.w3.org/2000/svg" xmlns:xlink="http://www.w3.org/1999/xlink" viewBox="0 0 759 548"><defs><style>.cls-1,.cls-10,.cls-12,.cls-14,.cls-4,.cls-83,.cls-85{fill:none;}.cls-2{fill:#eff6ff;}.cls-3{fill:#1a2f64;}.cls-14,.cls-4{stroke:#4d7bd4;}.cls-10,.cls-12,.cls-14,.cls-4,.cls-83,.cls-85{stroke-miterlimit:10;}.cls-5{fill:#97b3ff;}.cls-6{fill:#cedeff;}.cls-7{fill:#4d7bd4;}.cls-8{fill:#ffec7d;}.cls-9{fill:#faa214;}.cls-10{stroke:#faa214;}.cls-11{fill:#425782;}.cls-12{stroke:#cedeff;stroke-width:3px;}.cls-13{fill:#bfd4e5;}.cls-14{stroke-width:2px;}.cls-15{isolation:isolate;}.cls-16{clip-path:url(#clip-path);}.cls-17{fill:#aac0ea;}.cls-18{fill:#cbd8f2;}.cls-19{clip-path:url(#clip-path-2);}.cls-20{fill:#adc2eb;}.cls-21{fill:#b1c5ec;}.cls-22{fill:#b4c8ed;}.cls-23{fill:#b8caee;}.cls-24{fill:#bbcdef;}.cls-25{fill:#bfcff0;}.cls-26{fill:#c2d2f0;}.cls-27{fill:#c6d5f1;}.cls-28{fill:#cad7f2;}.cls-29{fill:#cddaf3;}.cls-30{fill:#d1ddf4;}.cls-31{fill:#d4dff5;}.cls-32{fill:#d8e2f6;}.cls-33{fill:#dbe5f6;}.cls-34{fill:#dfe7f7;}.cls-35{fill:#e3eaf8;}.cls-36{fill:#e6edf9;}.cls-37{clip-path:url(#clip-path-3);}.cls-38{clip-path:url(#clip-path-4);}.cls-39{clip-path:url(#clip-path-5);}.cls-40{clip-path:url(#clip-path-6);}.cls-41{clip-path:url(#clip-path-7);}.cls-42{clip-path:url(#clip-path-8);}.cls-43{clip-path:url(#clip-path-9);}.cls-44{clip-path:url(#clip-path-10);}.cls-45{clip-path:url(#clip-path-11);}.cls-46{clip-path:url(#clip-path-12);}.cls-47{clip-path:url(#clip-path-13);}.cls-48{clip-path:url(#clip-path-14);}.cls-49{clip-path:url(#clip-path-15);}.cls-50{clip-path:url(#clip-path-16);}.cls-51{clip-path:url(#clip-path-17);}.cls-52{clip-path:url(#clip-path-18);}.cls-53{clip-path:url(#clip-path-19);}.cls-54{fill:#dcf4f7;}.cls-55{clip-path:url(#clip-path-20);}.cls-56{fill:#eaf9fa;}.cls-57{clip-path:url(#clip-path-21);}.cls-58{fill:#def5f8;}.cls-59{fill:#dff5f8;}.cls-60{fill:#e1f6f8;}.cls-61{fill:#e2f6f9;}.cls-62{fill:#e4f7f9;}.cls-63{fill:#e5f7f9;}.cls-64{fill:#e7f8fa;}.cls-65{fill:#e8f8fa;}.cls-66{fill:#e9f8fa;}.cls-67{fill:#ebf9fb;}.cls-68{fill:#ecf9fb;}.cls-69{fill:#eefafb;}.cls-70{fill:#effafb;}.cls-71{fill:#f1fbfc;}.cls-72{fill:#f2fbfc;}.cls-73{fill:#f3fbfc;}.cls-74{fill:#f5fcfd;}.cls-75{clip-path:url(#clip-path-22);}.cls-76{clip-path:url(#clip-path-23);}.cls-77{clip-path:url(#clip-path-24);}.cls-78{clip-path:url(#clip-path-25);}.cls-79{clip-path:url(#clip-path-26);}.cls-80{clip-path:url(#clip-path-27);}.cls-81{clip-path:url(#clip-path-28);}.cls-82{clip-path:url(#clip-path-29);}.cls-83{stroke:#97b3ff;}.cls-84{fill:#799ac3;}.cls-85{stroke:#ffec7d;stroke-linecap:round;stroke-width:5px;}</style><clipPath id="clip-path"><path class="cls-1" d="M730.37,190.26l0,11c0-.53-.42-1.08-1.33-1.59l0-11C730,189.18,730.38,189.73,730.37,190.26Z"/></clipPath><clipPath id="clip-path-2"><path class="cls-1" d="M704.36,201.2l0-11c0-1.34,2.67-2.61,7.27-3.23,6.45-.87,14.23-.12,17.39,1.68l0,11c-3.16-1.8-10.94-2.55-17.39-1.68C707,198.59,704.36,199.86,704.36,201.2Z"/></clipPath><clipPath id="clip-path-3"><path class="cls-1" d="M729.37,191.22v9.06c0-.49-.4-1-1.23-1.47l0-9.06C729,190.22,729.37,190.72,729.37,191.22Z"/></clipPath><clipPath id="clip-path-4"><path class="cls-1" d="M705.36,200.24v-9.06c0-1.23,2.47-2.41,6.72-3,5.95-.8,13.14-.11,16.06,1.55l0,9.06c-2.92-1.66-10.11-2.35-16.06-1.55C707.83,197.83,705.36,199,705.36,200.24Z"/></clipPath><clipPath id="clip-path-5"><path class="cls-1" d="M716.37,191.2c0-.11.21-.2.56-.25a2.58,2.58,0,0,1,1.34.13l0,9.06a2.55,2.55,0,0,0-1.33-.13c-.36.05-.56.14-.56.25C716.36,197.54,716.37,193.91,716.37,191.2Z"/></clipPath><clipPath id="clip-path-6"><path class="cls-1" d="M716.36,200.26V191.2s0,.08.11.12a2.66,2.66,0,0,0,1.33.13c.36,0,.56-.15.56-.25v9.06c0,.1-.21.2-.56.25a2.69,2.69,0,0,1-1.34-.13C716.39,200.34,716.36,200.3,716.36,200.26Z"/></clipPath><clipPath id="clip-path-7"><path class="cls-1" d="M705.37,191.18c0,.49.4,1,1.23,1.47,2.92,1.65,10.11,2.35,16.06,1.55,4.24-.57,6.71-1.75,6.71-3v9.06c0,1.23-2.47,2.41-6.72,3-5.95.8-13.14.1-16.06-1.55-.83-.48-1.22-1-1.22-1.47C705.36,197.52,705.37,193.9,705.37,191.18Z"/></clipPath><clipPath id="clip-path-8"><path class="cls-1" d="M704.38,190.22c0,.53.42,1.07,1.33,1.59,3.16,1.79,10.94,2.55,17.39,1.68,4.6-.62,7.27-1.9,7.27-3.23l0,11c0,1.33-2.67,2.61-7.27,3.23-6.45.87-14.23.11-17.39-1.68-.91-.52-1.33-1.06-1.33-1.59C704.36,197.9,704.37,193.51,704.38,190.22Z"/></clipPath><clipPath id="clip-path-9"><path class="cls-1" d="M730.37,177l0,11c0-.54-.42-1.08-1.33-1.6l0-11C730,175.9,730.38,176.44,730.37,177Z"/></clipPath><clipPath id="clip-path-10"><path class="cls-1" d="M704.36,187.91l0-11c0-1.33,2.67-2.61,7.27-3.23,6.45-.86,14.23-.11,17.39,1.68l0,11c-3.16-1.79-10.94-2.54-17.39-1.68C707,185.3,704.36,186.58,704.36,187.91Z"/></clipPath><clipPath id="clip-path-11"><path class="cls-1" d="M729.37,177.93V187c0-.49-.4-1-1.23-1.46l0-9.06C729,176.94,729.37,177.44,729.37,177.93Z"/></clipPath><clipPath id="clip-path-12"><path class="cls-1" d="M705.36,187v-9.06c0-1.23,2.47-2.41,6.72-3,5.95-.8,13.14-.1,16.06,1.56l0,9.06c-2.92-1.66-10.11-2.36-16.06-1.56C707.83,184.54,705.36,185.72,705.36,187Z"/></clipPath><clipPath id="clip-path-13"><path class="cls-1" d="M716.37,177.91c0-.1.21-.2.56-.25a2.69,2.69,0,0,1,1.34.13l0,9.06a2.78,2.78,0,0,0-1.33-.13c-.36.05-.56.15-.56.25C716.36,184.25,716.37,180.63,716.37,177.91Z"/></clipPath><clipPath id="clip-path-14"><path class="cls-1" d="M716.36,187v-9.06s0,.08.11.12a2.55,2.55,0,0,0,1.33.13c.36,0,.56-.14.56-.24V187c0,.1-.21.2-.56.24a2.71,2.71,0,0,1-1.34-.12A.17.17,0,0,1,716.36,187Z"/></clipPath><clipPath id="clip-path-15"><path class="cls-1" d="M705.37,177.89c0,.5.4,1,1.23,1.47,2.92,1.66,10.11,2.35,16.06,1.55,4.24-.57,6.71-1.75,6.71-3V187c0,1.24-2.47,2.41-6.72,3-5.95.8-13.14.1-16.06-1.56-.83-.47-1.22-1-1.22-1.47C705.36,184.24,705.37,180.61,705.37,177.89Z"/></clipPath><clipPath id="clip-path-16"><path class="cls-1" d="M704.38,176.93c0,.54.42,1.08,1.33,1.59,3.16,1.8,10.94,2.55,17.39,1.68,4.6-.61,7.27-1.89,7.27-3.22l0,11c0,1.33-2.67,2.61-7.27,3.22-6.45.87-14.23.12-17.39-1.68-.91-.51-1.33-1.05-1.33-1.59C704.36,184.62,704.37,180.23,704.38,176.93Z"/></clipPath><clipPath id="clip-path-17"><path class="cls-1" d="M730.37,163.69l0,11c0-.53-.42-1.08-1.33-1.59l0-11C730,162.61,730.38,163.16,730.37,163.69Z"/></clipPath><clipPath id="clip-path-18"><path class="cls-1" d="M704.36,174.64l0-11c0-1.33,2.67-2.61,7.27-3.23,6.45-.87,14.23-.11,17.39,1.68l0,11c-3.16-1.8-10.94-2.55-17.39-1.68C707,172,704.36,173.3,704.36,174.64Z"/></clipPath><clipPath id="clip-path-19"><path class="cls-1" d="M729.36,173.71c0-.49-.4-1-1.23-1.47l0-9.06c.83.48,1.22,1,1.22,1.47C729.37,167.37,729.36,171,729.36,173.71Z"/></clipPath><clipPath id="clip-path-20"><path class="cls-1" d="M729.37,164.65v9.06c0-.49-.4-1-1.23-1.47l0-9.06C729,163.66,729.37,164.16,729.37,164.65Z"/></clipPath><clipPath id="clip-path-21"><path class="cls-1" d="M705.37,164.61c0-1.23,2.47-2.41,6.72-3,5.95-.8,13.14-.11,16.06,1.55l0,9.06c-2.92-1.66-10.11-2.35-16.06-1.55-4.24.57-6.71,1.75-6.71,3C705.36,171,705.37,167.33,705.37,164.61Z"/></clipPath><clipPath id="clip-path-22"><path class="cls-1" d="M705.36,173.67v-9.06c0-1.23,2.47-2.41,6.72-3,5.95-.8,13.14-.11,16.06,1.55l0,9.06c-2.92-1.66-10.11-2.35-16.06-1.55C707.83,171.26,705.36,172.44,705.36,173.67Z"/></clipPath><clipPath id="clip-path-23"><path class="cls-1" d="M716.36,173.69v-9.06c0-.1.21-.2.56-.25a2.58,2.58,0,0,1,1.34.13l0,9.06a2.55,2.55,0,0,0-1.33-.13C716.56,173.49,716.36,173.59,716.36,173.69Z"/></clipPath><clipPath id="clip-path-24"><path class="cls-1" d="M716.37,164.63c0-.1.21-.2.56-.25a2.58,2.58,0,0,1,1.34.13l0,9.06a2.55,2.55,0,0,0-1.33-.13c-.36.05-.56.15-.56.25C716.36,171,716.37,167.35,716.37,164.63Z"/></clipPath><clipPath id="clip-path-25"><path class="cls-1" d="M716.37,164.63s0,.08.11.12a2.55,2.55,0,0,0,1.33.13c.36,0,.56-.15.56-.25v9.06c0,.1-.21.2-.56.25a2.58,2.58,0,0,1-1.34-.13c-.07,0-.1-.08-.1-.12C716.36,171,716.37,167.35,716.37,164.63Z"/></clipPath><clipPath id="clip-path-26"><path class="cls-1" d="M716.36,173.69v-9.06s0,.08.11.12a2.55,2.55,0,0,0,1.33.13c.36,0,.56-.15.56-.25v9.06c0,.1-.21.2-.56.25a2.58,2.58,0,0,1-1.34-.13C716.39,173.77,716.36,173.73,716.36,173.69Z"/></clipPath><clipPath id="clip-path-27"><path class="cls-1" d="M705.36,173.67v-9.06c0,.49.4,1,1.23,1.47,2.92,1.66,10.11,2.35,16.06,1.55,4.24-.57,6.71-1.75,6.71-3v9.06c0,1.23-2.47,2.41-6.72,3-5.95.8-13.14.11-16.06-1.55C705.75,174.67,705.36,174.16,705.36,173.67Z"/></clipPath><clipPath id="clip-path-28"><path class="cls-1" d="M705.37,164.61c0,.49.4,1,1.23,1.47,2.92,1.66,10.11,2.35,16.06,1.55,4.24-.57,6.71-1.75,6.71-3v9.06c0,1.23-2.47,2.41-6.72,3-5.95.8-13.14.11-16.06-1.55-.83-.47-1.22-1-1.22-1.47Z"/></clipPath><clipPath id="clip-path-29"><path class="cls-1" d="M704.38,163.65c0,.53.42,1.08,1.33,1.59,3.16,1.79,10.94,2.55,17.39,1.68,4.6-.62,7.27-1.9,7.27-3.23l0,11c0,1.33-2.67,2.61-7.27,3.23-6.45.87-14.23.11-17.39-1.68-.91-.52-1.33-1.06-1.33-1.59C704.36,171.34,704.37,167,704.38,163.65Z"/></clipPath></defs><g id="레이어_4" data-name="레이어 4"><path class="cls-2" d="M741.83,347.64c0-47.64-48-86.25-107.1-86.25-27.78,0-53,8.59-72.05,22.57-6.58-70.62-70.85-126.07-149.29-126.07-57.45,0-107.3,29.77-132.47,73.43-12.08-11.48-26.69-18.23-42.46-18.23-33.15,0-61.23,29.74-71.12,70.92a170.26,170.26,0,0,0-25.27-1.92c-63.09,0-114.24,34-114.24,75.9,0,38.7,43.63,70.57,100,75.24v.66H649V433C701.39,427.4,741.83,391.36,741.83,347.64Z"/></g><g id="레이어_5" data-name="레이어 5"><path class="cls-3" d="M262.46,372.26V356.74h15.42V269.87H262.46V254.35H308.9a3.17,3.17,0,0,1,3.06,1.76q.92,1.75.92,5.92c0,5.22-1.33,7.84-4,7.84H296.46v86.87H308.9A3.18,3.18,0,0,1,312,358.5a13.78,13.78,0,0,1,.92,5.92c0,5.22-1.33,7.84-4,7.84Z"/><path class="cls-3" d="M388,374.34a72.23,72.23,0,0,1-26.78-4.64,54.6,54.6,0,0,1-32-32.32A68.25,68.25,0,0,1,325,313.06q0-15.36,5.14-26.8a54.57,54.57,0,0,1,13.85-19,57.52,57.52,0,0,1,20.15-11.36A75.92,75.92,0,0,1,388,252.11a74.9,74.9,0,0,1,18.25,2,57.17,57.17,0,0,1,13.76,5.2A4.9,4.9,0,0,1,422.5,262q.5,1.51-1.66,6c-1.32,2.77-2.43,4.45-3.31,5a3.47,3.47,0,0,1-3.32.08,111.43,111.43,0,0,0-12.69-4,56.31,56.31,0,0,0-13.35-1.44A45.56,45.56,0,0,0,370,271.15a42,42,0,0,0-23.22,24,49,49,0,0,0-3.23,17.92A51.49,51.49,0,0,0,346.62,331a41.61,41.61,0,0,0,22.89,24.24,46,46,0,0,0,18.66,3.6,56.31,56.31,0,0,0,13.35-1.44,111.43,111.43,0,0,0,12.69-4,4.06,4.06,0,0,1,3.32-.16c.88.43,2,2.13,3.31,5.12a26.73,26.73,0,0,1,1.33,3.76,7.22,7.22,0,0,1,.25,2.24,2.09,2.09,0,0,1-.75,1.44,7.78,7.78,0,0,1-1.66,1,62.59,62.59,0,0,1-13.76,5.36A69.91,69.91,0,0,1,388,374.34Z"/><path class="cls-3" d="M435.93,269.87V254.35h86.25a3.36,3.36,0,0,1,3.15,1.76q1,1.75,1,5.92c0,5.22-1.38,7.84-4.14,7.84H489.34V370q0,3.68-9.46,3.68-9.12,0-9.12-3.68V269.87Z"/><path class="cls-3" d="M230,407.59h2.44v13.33H230Z"/><path class="cls-3" d="M235.29,410.83h2l.16,1.34h.07a4.13,4.13,0,0,1,3-1.59c2,0,2.86,1.52,2.86,4.05v6.29H241v-6c0-1.55-.4-2.11-1.31-2.11-.76,0-1.24.4-1.93,1.14v6.93h-2.42Z"/><path class="cls-3" d="M250.83,408.6a2.92,2.92,0,0,0-1-.21c-.73,0-1.13.46-1.13,1.58v.86h1.74v2.09h-1.74v8H246.3v-8h-1.24v-2l1.24-.11V410c0-2.1.9-3.72,3.23-3.72a4.53,4.53,0,0,1,1.75.36Z"/><path class="cls-3" d="M251.26,415.89c0-3.36,2.13-5.31,4.45-5.31s4.44,1.95,4.44,5.31-2.13,5.28-4.44,5.28S251.26,419.23,251.26,415.89Zm6.41,0c0-1.9-.71-3.15-2-3.15s-2,1.25-2,3.15.71,3.12,2,3.12S257.67,417.79,257.67,415.89Z"/><path class="cls-3" d="M262.19,410.83h2l.16,1.79h.07a3.22,3.22,0,0,1,2.63-2,2.37,2.37,0,0,1,1.09.22l-.43,2.29a2.65,2.65,0,0,0-1-.17c-.73,0-1.6.53-2.13,2v6h-2.41Z"/><path class="cls-3" d="M269.39,410.83h2l.16,1.36h.07a3.77,3.77,0,0,1,2.84-1.61,2.51,2.51,0,0,1,2.54,1.77,4.06,4.06,0,0,1,2.95-1.77c2,0,2.87,1.52,2.87,4.05v6.29h-2.43v-6c0-1.55-.41-2.11-1.29-2.11a2.64,2.64,0,0,0-1.78,1.14v6.93h-2.43v-6c0-1.55-.41-2.11-1.29-2.11A2.67,2.67,0,0,0,271.8,414v6.93h-2.41Z"/><path class="cls-3" d="M284.86,418.18c0-2.16,1.61-3.29,5.32-3.73,0-1-.43-1.74-1.57-1.74a4.93,4.93,0,0,0-2.54,1l-.88-1.74a7,7,0,0,1,3.87-1.34c2.35,0,3.55,1.53,3.55,4.45v5.89h-2l-.18-1.08h-.05a4.22,4.22,0,0,1-2.79,1.33A2.76,2.76,0,0,1,284.86,418.18Zm5.32-.07v-2c-2.24.33-3,1-3,1.89a1.07,1.07,0,0,0,1.22,1.14A2.37,2.37,0,0,0,290.18,418.11Z"/><path class="cls-3" d="M295.13,417.39v-4.47h-1.31v-2l1.42-.13.28-2.7h2v2.7h2.28v2.09h-2.28v4.47c0,1.15.43,1.69,1.25,1.69a2.69,2.69,0,0,0,.91-.21l.4,1.92a5.56,5.56,0,0,1-1.95.38C296,421.17,295.13,419.66,295.13,417.39Z"/><path class="cls-3" d="M301.49,407.77a1.45,1.45,0,1,1,1.46,1.44A1.4,1.4,0,0,1,301.49,407.77Zm.23,3.06h2.41v10.09h-2.41Z"/><path class="cls-3" d="M307.09,417.39v-4.47h-1.3v-2l1.42-.13.28-2.7h2v2.7h2.28v2.09h-2.28v4.47c0,1.15.43,1.69,1.26,1.69a2.69,2.69,0,0,0,.91-.21l.39,1.92a5.51,5.51,0,0,1-1.95.38C307.94,421.17,307.09,419.66,307.09,417.39Z"/><path class="cls-3" d="M312.8,415.89c0-3.36,2.13-5.31,4.44-5.31s4.45,1.95,4.45,5.31-2.13,5.28-4.45,5.28S312.8,419.23,312.8,415.89Zm6.41,0c0-1.9-.71-3.15-2-3.15s-2,1.25-2,3.15.71,3.12,2,3.12S319.21,417.79,319.21,415.89Z"/><path class="cls-3" d="M323.72,410.83h2l.17,1.34h.07a4.12,4.12,0,0,1,3-1.59c2,0,2.86,1.52,2.86,4.05v6.29h-2.43v-6c0-1.55-.39-2.11-1.3-2.11-.76,0-1.24.4-1.94,1.14v6.93h-2.41Z"/><path class="cls-3" d="M337.66,414.31c0-4.39,2.59-7,5.68-7a4.84,4.84,0,0,1,3.59,1.71l-1.29,1.7a3.06,3.06,0,0,0-2.25-1.12c-1.85,0-3.24,1.73-3.24,4.59s1.26,4.65,3.19,4.65a3.29,3.29,0,0,0,2.53-1.32l1.29,1.66a4.8,4.8,0,0,1-3.9,2C340.17,421.17,337.66,418.76,337.66,414.31Z"/><path class="cls-3" d="M348.35,415.89c0-3.36,2.13-5.31,4.44-5.31s4.45,1.95,4.45,5.31-2.13,5.28-4.45,5.28S348.35,419.23,348.35,415.89Zm6.41,0c0-1.9-.71-3.15-2-3.15s-2,1.25-2,3.15.71,3.12,2,3.12S354.76,417.79,354.76,415.89Z"/><path class="cls-3" d="M359.27,410.83h2l.16,1.36h.07a3.77,3.77,0,0,1,2.84-1.61,2.53,2.53,0,0,1,2.55,1.77,4,4,0,0,1,2.94-1.77c2,0,2.87,1.52,2.87,4.05v6.29h-2.43v-6c0-1.55-.41-2.11-1.29-2.11a2.64,2.64,0,0,0-1.78,1.14v6.93h-2.43v-6c0-1.55-.41-2.11-1.29-2.11a2.64,2.64,0,0,0-1.78,1.14v6.93h-2.42Z"/><path class="cls-3" d="M375.21,410.83h2l.17,1.36h.06a3.8,3.8,0,0,1,2.84-1.61,2.52,2.52,0,0,1,2.55,1.77,4,4,0,0,1,2.94-1.77c2,0,2.87,1.52,2.87,4.05v6.29H386.2v-6c0-1.55-.42-2.11-1.29-2.11a2.65,2.65,0,0,0-1.79,1.14v6.93h-2.43v-6c0-1.55-.41-2.11-1.29-2.11a2.66,2.66,0,0,0-1.78,1.14v6.93h-2.41Z"/><path class="cls-3" d="M391,417.14v-6.31h2.43v6c0,1.57.4,2.11,1.29,2.11s1.26-.36,1.88-1.26v-6.81h2.43v10.09h-2l-.18-1.44h-.07a3.64,3.64,0,0,1-3,1.69C391.9,421.17,391,419.66,391,417.14Z"/><path class="cls-3" d="M401.67,410.83h2l.17,1.34h.06a4.13,4.13,0,0,1,3-1.59c2,0,2.86,1.52,2.86,4.05v6.29h-2.43v-6c0-1.55-.4-2.11-1.31-2.11-.76,0-1.23.4-1.93,1.14v6.93h-2.41Z"/><path class="cls-3" d="M412,407.77a1.45,1.45,0,1,1,1.46,1.44A1.4,1.4,0,0,1,412,407.77Zm.23,3.06h2.42v10.09h-2.42Z"/><path class="cls-3" d="M416.71,415.89c0-3.36,2.21-5.31,4.73-5.31a3.87,3.87,0,0,1,2.69,1.12L423,413.41a2,2,0,0,0-1.42-.67c-1.4,0-2.36,1.25-2.36,3.15s1,3.12,2.3,3.12a2.76,2.76,0,0,0,1.8-.81l1,1.75a4.41,4.41,0,0,1-3,1.22C418.66,421.17,416.71,419.23,416.71,415.89Z"/><path class="cls-3" d="M425.34,418.18c0-2.16,1.6-3.29,5.32-3.73,0-1-.43-1.74-1.57-1.74a5,5,0,0,0-2.55,1l-.87-1.74a7,7,0,0,1,3.86-1.34c2.35,0,3.56,1.53,3.56,4.45v5.89h-2l-.18-1.08h-.05a4.2,4.2,0,0,1-2.79,1.33A2.76,2.76,0,0,1,425.34,418.18Zm5.32-.07v-2c-2.25.33-3,1-3,1.89a1.07,1.07,0,0,0,1.22,1.14A2.39,2.39,0,0,0,430.66,418.11Z"/><path class="cls-3" d="M435.6,417.39v-4.47h-1.3v-2l1.42-.13.28-2.7h2v2.7h2.28v2.09H438v4.47c0,1.15.43,1.69,1.26,1.69a2.75,2.75,0,0,0,.91-.21l.39,1.92a5.51,5.51,0,0,1-1.95.38C436.44,421.17,435.6,419.66,435.6,417.39Z"/><path class="cls-3" d="M442,407.77a1.45,1.45,0,1,1,1.46,1.44A1.41,1.41,0,0,1,442,407.77Zm.24,3.06h2.41v10.09H442.2Z"/><path class="cls-3" d="M446.64,415.89c0-3.36,2.13-5.31,4.45-5.31s4.44,1.95,4.44,5.31-2.13,5.28-4.44,5.28S446.64,419.23,446.64,415.89Zm6.41,0c0-1.9-.71-3.15-2-3.15s-2,1.25-2,3.15.71,3.12,2,3.12S453.05,417.79,453.05,415.89Z"/><path class="cls-3" d="M457.57,410.83h2l.17,1.34h.06a4.13,4.13,0,0,1,3-1.59c2,0,2.86,1.52,2.86,4.05v6.29h-2.43v-6c0-1.55-.4-2.11-1.31-2.11s-1.24.4-1.93,1.14v6.93h-2.41Z"/><path class="cls-3" d="M474.54,409.81H471.1v-2.22h9.36v2.22H477v11.11h-2.45Z"/><path class="cls-3" d="M480.29,415.89c0-3.27,2.1-5.31,4.32-5.31,2.54,0,3.86,2,3.86,4.83a5.74,5.74,0,0,1-.11,1.2h-5.7a2.52,2.52,0,0,0,2.56,2.53,3.6,3.6,0,0,0,2.08-.71l.83,1.62a5.5,5.5,0,0,1-3.24,1.12C482.31,421.17,480.29,419.21,480.29,415.89Zm6.1-1c0-1.37-.56-2.23-1.75-2.23-1,0-1.83.75-2,2.23Z"/><path class="cls-3" d="M489.9,415.89c0-3.36,2.21-5.31,4.72-5.31a3.89,3.89,0,0,1,2.7,1.12l-1.16,1.71a2,2,0,0,0-1.42-.67c-1.41,0-2.36,1.25-2.36,3.15s.95,3.12,2.29,3.12a2.74,2.74,0,0,0,1.8-.81l1,1.75a4.39,4.39,0,0,1-3,1.22C491.85,421.17,489.9,419.23,489.9,415.89Z"/><path class="cls-3" d="M499.19,406.55h2.41v3.62l-.1,1.89a4.06,4.06,0,0,1,2.91-1.48c2,0,2.86,1.52,2.86,4.05v6.29h-2.43v-6c0-1.55-.4-2.11-1.31-2.11-.76,0-1.24.4-1.93,1.14v6.93h-2.41Z"/><path class="cls-3" d="M509.76,410.83h2l.16,1.34H512a4.13,4.13,0,0,1,3-1.59c2,0,2.85,1.52,2.85,4.05v6.29h-2.42v-6c0-1.55-.4-2.11-1.31-2.11s-1.24.4-1.93,1.14v6.93h-2.42Z"/><path class="cls-3" d="M519.78,415.89c0-3.36,2.13-5.31,4.45-5.31s4.44,1.95,4.44,5.31-2.13,5.28-4.44,5.28S519.78,419.23,519.78,415.89Zm6.41,0c0-1.9-.71-3.15-2-3.15s-2,1.25-2,3.15.71,3.12,2,3.12S526.19,417.79,526.19,415.89Z"/><path class="cls-3" d="M530.71,418.09V406.55h2.41v11.67c0,.59.26.79.49.79a1.12,1.12,0,0,0,.33,0l.3,2a3.15,3.15,0,0,1-1.25.23C531.3,421.17,530.71,420,530.71,418.09Z"/><path class="cls-3" d="M535.33,415.89c0-3.36,2.13-5.31,4.45-5.31s4.44,1.95,4.44,5.31-2.13,5.28-4.44,5.28S535.33,419.23,535.33,415.89Zm6.42,0c0-1.9-.71-3.15-2-3.15s-2,1.25-2,3.15.71,3.12,2,3.12S541.75,417.79,541.75,415.89Z"/><path class="cls-3" d="M545.65,422.7a2.46,2.46,0,0,1,1.32-2.09v-.09a1.94,1.94,0,0,1-.84-1.69,2.55,2.55,0,0,1,1-1.89v-.07a3.44,3.44,0,0,1-1.22-2.63,3.54,3.54,0,0,1,3.73-3.66,4.15,4.15,0,0,1,1.39.25h3.34v1.95H552.8a2.67,2.67,0,0,1,.43,1.53,3.27,3.27,0,0,1-3.57,3.42,3.79,3.79,0,0,1-1.19-.23,1,1,0,0,0-.39.86c0,.54.36.83,1.45.83h1.57c2.23,0,3.44.76,3.44,2.52,0,2-1.94,3.58-5,3.58C547.33,425.29,545.65,424.48,545.65,422.7Zm6.57-.54c0-.72-.54-.9-1.53-.9h-1.13a4.91,4.91,0,0,1-1.29-.14,1.55,1.55,0,0,0-.61,1.17c0,.84.86,1.33,2.22,1.33S552.22,423,552.22,422.16Zm-1.12-7.92c0-1.19-.61-1.86-1.44-1.86s-1.45.67-1.45,1.86.64,1.85,1.45,1.85S551.1,415.43,551.1,414.24Z"/><path class="cls-3" d="M555.79,424.77l.45-2a2.51,2.51,0,0,0,.65.12,1.81,1.81,0,0,0,1.73-1.53l.17-.59-3.61-9.91h2.45l1.47,4.69c.28.9.51,1.87.78,2.84H560c.21-.94.45-1.91.66-2.84l1.27-4.69h2.33l-3.29,10.39c-.81,2.38-1.8,3.75-3.86,3.75A3.58,3.58,0,0,1,555.79,424.77Z"/></g><g id="레이어_6" data-name="레이어 6"><ellipse class="cls-4" cx="581.44" cy="332.26" rx="13.61" ry="12.68"/><ellipse class="cls-4" cx="581.3" cy="332.39" rx="10.03" ry="9.35"/><path class="cls-5" d="M594.1,201.27a14.73,14.73,0,0,0-5.49-17.51L580.55,196Z"/><path class="cls-6" d="M577.94,197.15l8.24-12.29a14.75,14.75,0,1,0,5.6,17.64Z"/><rect class="cls-6" x="155.33" y="176.76" width="13.83" height="27.18"/><rect class="cls-5" x="173.78" y="163.17" width="13.83" height="40.77"/><rect class="cls-7" x="192.22" y="149.58" width="13.83" height="54.37"/><rect class="cls-8" x="632.25" y="258.58" width="15.77" height="63.37"/><rect class="cls-8" x="653.27" y="258.58" width="15.77" height="63.37"/><rect class="cls-8" x="674.29" y="258.58" width="15.77" height="63.37"/><rect class="cls-9" x="637.51" y="306.1" width="5.26" height="10.56"/><rect class="cls-9" x="658.04" y="306.1" width="5.26" height="10.56"/><path class="cls-10" d="M678.06,264.94h0Z"/><path class="cls-10" d="M657.06,264.94h0Z"/><path class="cls-10" d="M636.06,264.94h0Z"/><rect class="cls-9" x="679.06" y="306.1" width="5.26" height="10.56"/><rect class="cls-6" x="289.33" y="99.58" width="41.72" height="53.37" rx="2.37"/><rect class="cls-5" x="293.83" y="103.81" width="33.38" height="41.21" rx="1.51"/><ellipse class="cls-11" cx="310.19" cy="101.96" rx="0.96" ry="0.79"/><path class="cls-8" d="M202.57,263.94H163a4.92,4.92,0,0,0-4.92,4.92v14.82A4.92,4.92,0,0,0,163,288.6h7.22l-4.27,8.34,13.62-8.34h23a4.92,4.92,0,0,0,4.92-4.92V268.86A4.92,4.92,0,0,0,202.57,263.94Z"/><path class="cls-5" d="M226.17,291H184.51a3.89,3.89,0,0,0-3.89,3.89v16.88a3.89,3.89,0,0,0,3.89,3.89h24.06l13.61,8.33-4.27-8.33h8.26a3.89,3.89,0,0,0,3.89-3.89V294.84A3.89,3.89,0,0,0,226.17,291Z"/><path class="cls-6" d="M188.06,105.38c0-3.62-3.83-6.56-8.55-6.56a10,10,0,0,0-5.76,1.72c-.52-5.38-5.65-9.6-11.91-9.6a12.28,12.28,0,0,0-10.58,5.59,5,5,0,0,0-3.39-1.39c-2.65,0-4.89,2.27-5.68,5.4a14.62,14.62,0,0,0-2-.15c-5,0-9.12,2.59-9.12,5.78,0,2.94,3.48,5.37,8,5.72v0h41.61v-.06C184.83,111.45,188.06,108.71,188.06,105.38Z"/><path class="cls-8" d="M64,210c-.07-3.22-2.52-6-5.92-7a4.12,4.12,0,0,1-3.21,1.22,4.3,4.3,0,0,1-3.09-1.07c-3.17,1.11-5.42,3.74-5.48,6.82h0v11.23H64.05V210Z"/><ellipse class="cls-8" cx="54.87" cy="198.24" rx="4.74" ry="5.3"/><path class="cls-8" d="M82.71,222.72c-.07-3.22-2.53-5.95-5.93-7A4.12,4.12,0,0,1,73.57,217a4.32,4.32,0,0,1-3.09-1.07c-3.17,1.11-5.42,3.74-5.48,6.82h0v11.22H82.71V222.72Z"/><ellipse class="cls-8" cx="73.54" cy="210.96" rx="4.74" ry="5.3"/><path class="cls-8" d="M101.05,209.64c-.07-3.23-2.52-6-5.92-7a4.12,4.12,0,0,1-3.21,1.22,4.3,4.3,0,0,1-3.09-1.08c-3.17,1.12-5.42,3.75-5.48,6.83h0v11.22h17.72V209.64Z"/><ellipse class="cls-8" cx="91.88" cy="197.88" rx="4.74" ry="5.3"/><path class="cls-6" d="M485.89,106.23c0-.07,0-.13,0-.2v-4.31c0-4-2.65-7.28-5.93-7.28H470c-3.28,0-5.94,3.26-5.94,7.28V106c0,.07,0,.13,0,.2h-5.55v26.71h32.5V106.23Zm-20.5-2.94c0-4,2.65-7.27,5.93-7.27h7.36c3.28,0,5.94,3.25,5.94,7.27v2.94H465.39Z"/><rect class="cls-6" x="644.56" y="377.94" width="43.5" height="26.5"/><rect class="cls-5" x="647.48" y="381.26" width="37.57" height="19.69"/><polygon class="cls-6" points="668.06 412.28 668.06 403.94 663.06 403.94 663.06 412.28 658.06 412.28 658.06 413.94 663.06 413.94 668.06 413.94 673.06 413.94 673.06 412.28 668.06 412.28"/><polygon class="cls-12" points="680.06 174.94 680.06 195.69 680.06 214.94 680.06 174.94"/><polyline class="cls-12" points="679.56 196.94 687.56 191.28 687.56 179.94"/><polyline class="cls-12" points="680.56 205.94 671.06 200.28 671.06 188.94"/><ellipse class="cls-13" cx="680.06" cy="174.44" rx="3" ry="2.5"/><circle class="cls-13" cx="687.56" cy="179.94" r="2.5"/><circle class="cls-13" cx="671.06" cy="188.94" r="2.5"/><ellipse class="cls-14" cx="119.99" cy="365.72" rx="10.94" ry="10.77"/><polygon class="cls-7" points="131.06 372.53 130.27 373.4 128.61 371.95 127.82 372.83 129.49 374.28 128.7 375.15 142.7 387.33 145.06 384.7 131.06 372.53"/><g class="cls-15"><g class="cls-15"><g class="cls-16"><g class="cls-15"><path class="cls-17" d="M730.37,190.26l0,11c0-.53-.42-1.08-1.33-1.59l0-11c.91.51,1.34,1.06,1.33,1.59"/></g></g></g><path class="cls-18" d="M729,199.65c3.16,1.79.5,3.95-5.94,4.82s-14.23.11-17.39-1.68-.5-4,5.94-4.82S725.86,197.85,729,199.65Zm-11.67,1.57h0"/><g class="cls-15"><g class="cls-19"><g class="cls-15"><path class="cls-17" d="M729,188.67l0,11a9.83,9.83,0,0,0-2-.83l0-11a9.83,9.83,0,0,1,2,.83"/><path class="cls-20" d="M727,187.84l0,11c-.31-.1-.63-.19-1-.27l0-11c.34.08.66.17,1,.27"/><path class="cls-21" d="M726.06,187.57l0,11-.83-.19,0-11,.83.2"/><path class="cls-22" d="M725.23,187.37l0,11-.77-.16,0-11,.77.15"/><path class="cls-23" d="M724.46,187.22l0,11-.74-.12,0-11,.74.12"/><path class="cls-24" d="M723.72,187.1l0,11L723,198l0-11,.72.11"/><path class="cls-25" d="M723,187l0,11-.72-.09,0-11,.72.09"/><path class="cls-26" d="M722.28,186.9l0,11-.72-.07,0-11,.72.07"/><path class="cls-27" d="M721.56,186.83l0,11c-.23,0-.47-.05-.72-.06l0-11c.25,0,.49,0,.72.06"/><path class="cls-28" d="M720.84,186.77l0,11-.72-.06,0-11,.72.06"/><path class="cls-29" d="M720.12,186.71l0,11-.73,0,0-11,.73,0"/><path class="cls-30" d="M719.39,186.67l0,11-.74,0,0-11,.74,0"/><path class="cls-31" d="M718.65,186.65l0,11-.73,0,0-11,.73,0"/><path class="cls-32" d="M717.92,186.63l0,11h-.74l0-11h.74"/><path class="cls-33" d="M717.18,186.63l0,11h-.77l0-11h.77"/><path class="cls-34" d="M716.41,186.64l0,11-.83,0,0-11,.82,0"/><path class="cls-35" d="M715.59,186.66l0,11-1,.05,0-11,1-.05"/><path class="cls-36" d="M714.57,186.71l0,11c-1,.06-2,.15-2.92.28-.7.09-1.36.2-2,.33l0-11c.61-.13,1.27-.24,2-.33,1-.13,1.93-.22,2.92-.28"/><path class="cls-35" d="M709.68,187.32l0,11c-.46.09-.88.19-1.28.29l0-11c.4-.1.83-.2,1.28-.29"/><path class="cls-34" d="M708.4,187.61l0,11c-.3.08-.59.16-.86.25l0-11c.27-.09.56-.17.86-.25"/><path class="cls-33" d="M707.54,187.86l0,11-.64.22,0-11,.64-.22"/><path class="cls-32" d="M706.9,188.08l0,11-.52.21,0-11,.52-.21"/><path class="cls-31" d="M706.38,188.29l0,11-.43.21,0-11,.43-.21"/><path class="cls-30" d="M706,188.5l0,11a3.07,3.07,0,0,0-.36.2l0-11a3.07,3.07,0,0,1,.36-.2"/><path class="cls-29" d="M705.59,188.7l0,11a3.28,3.28,0,0,0-.31.2l0-11a3.28,3.28,0,0,1,.31-.2"/><path class="cls-28" d="M705.28,188.9l0,11-.26.2,0-11,.26-.2"/><path class="cls-27" d="M705,189.1l0,11a1.34,1.34,0,0,0-.21.2l0-11a1.34,1.34,0,0,1,.21-.2"/><path class="cls-26" d="M704.81,189.3l0,11a1.68,1.68,0,0,0-.18.21l0-11,.18-.2"/><path class="cls-25" d="M704.63,189.5l0,11a2.39,2.39,0,0,0-.13.21l0-11,.13-.22"/><path class="cls-24" d="M704.5,189.72l0,11a1,1,0,0,0-.09.22l0-11a1,1,0,0,1,.09-.22"/><path class="cls-23" d="M704.41,189.94l0,11a1,1,0,0,0,0,.24l0-11a1,1,0,0,1,0-.24"/><path class="cls-22" d="M704.38,190.18l0,11v0l0-11v0"/></g></g></g><g class="cls-15"><g class="cls-37"><g class="cls-15"><path class="cls-17" d="M729.37,191.22v9.06c0-.49-.4-1-1.23-1.47l0-9.06c.83.47,1.22,1,1.22,1.47"/></g></g></g><path class="cls-18" d="M728.13,198.81c2.92,1.66.46,3.65-5.49,4.45s-13.14.1-16.06-1.55-.45-3.65,5.49-4.45S725.21,197.15,728.13,198.81Zm-9.88,1.33a2.55,2.55,0,0,0-1.33-.13c-.5.07-.7.23-.46.37a2.69,2.69,0,0,0,1.34.13c.49-.07.7-.23.45-.37"/><g class="cls-15"><g class="cls-38"><g class="cls-15"><path class="cls-17" d="M728.15,189.75l0,9.06a9.4,9.4,0,0,0-1.86-.77l0-9.06a9.94,9.94,0,0,1,1.86.77"/><path class="cls-20" d="M726.29,189l0,9.06c-.28-.09-.58-.17-.89-.25v-9.06l.9.25"/><path class="cls-21" d="M725.39,188.73v9.06l-.77-.17,0-9.07.76.18"/><path class="cls-22" d="M724.63,188.55l0,9.07-.71-.14,0-9.06.71.13"/><path class="cls-23" d="M723.92,188.42l0,9.06-.68-.12V188.3l.69.12"/><path class="cls-24" d="M723.23,188.3v9.06l-.67-.1,0-9.06.66.1"/><path class="cls-25" d="M722.57,188.2l0,9.06-.66-.08v-9.06l.67.08"/><path class="cls-26" d="M721.9,188.12v9.06l-.67-.07,0-9.06.66.07"/><path class="cls-27" d="M721.24,188.05l0,9.06-.66-.06,0-9.06.66.06"/><path class="cls-28" d="M720.58,188l0,9.06-.67,0,0-9.07.67.05"/><path class="cls-29" d="M719.91,187.94l0,9.07-.68,0,0-9.06.68,0"/><path class="cls-30" d="M719.23,187.91l0,9.06-.67,0v-9.06l.68,0"/><path class="cls-31" d="M718.55,187.88v9.06h-.68l0-9.06h.67"/><path class="cls-32" d="M717.88,187.87l0,9.06h-.69l0-9.07h.69"/><path class="cls-33" d="M717.19,187.86l0,9.07h-.71l0-9.06h.71"/><path class="cls-34" d="M716.48,187.87l0,9.06-.76,0,0-9.06.76,0"/><path class="cls-35" d="M715.72,187.89l0,9.06-.94.05,0-9.06.94-.05"/><path class="cls-36" d="M714.78,187.94l0,9.06c-.91.05-1.81.14-2.69.26-.65.09-1.26.19-1.82.3l0-9.06c.56-.11,1.17-.22,1.82-.3.88-.12,1.78-.21,2.69-.26"/><path class="cls-35" d="M710.27,188.5l0,9.06-1.18.27,0-9.06c.37-.09.76-.19,1.18-.27"/><path class="cls-34" d="M709.09,188.77l0,9.06-.79.23V189l.8-.23"/><path class="cls-33" d="M708.29,189v9.06l-.6.21,0-9.06.59-.21"/><path class="cls-32" d="M707.7,189.21l0,9.06-.47.19V189.4l.48-.19"/><path class="cls-31" d="M707.22,189.4v9.06l-.4.19,0-9.06.39-.19"/><path class="cls-30" d="M706.83,189.59l0,9.06a2.59,2.59,0,0,0-.33.19v-9.07l.34-.18"/><path class="cls-29" d="M706.49,189.77v9.07l-.29.18,0-9.06.28-.19"/><path class="cls-28" d="M706.21,190l0,9.06-.24.18,0-9.06.24-.18"/><path class="cls-27" d="M706,190.14l0,9.06-.2.19,0-9.06.2-.19"/><path class="cls-26" d="M705.77,190.33l0,9.06c-.06.06-.11.13-.16.19l0-9.06c0-.06.1-.13.16-.19"/><path class="cls-25" d="M705.61,190.52l0,9.06-.12.2,0-9.06a1.06,1.06,0,0,1,.12-.2"/><path class="cls-24" d="M705.49,190.72l0,9.06a1.8,1.8,0,0,0-.08.21l0-9.06a.9.9,0,0,1,.08-.21"/><path class="cls-23" d="M705.41,190.93l0,9.06a.78.78,0,0,0,0,.22v-9.06a1.43,1.43,0,0,1,0-.22"/><path class="cls-22" d="M705.37,191.15v0"/></g></g></g><g class="cls-15"><g class="cls-39"><g class="cls-15"><path class="cls-17" d="M718.25,200.14l0-9.06a.52.52,0,0,0-.15-.07l0,9.06a.52.52,0,0,1,.15.07"/><path class="cls-20" d="M718.1,200.07l0-9.06-.08,0,0,9.06.08,0"/><path class="cls-21" d="M718,200.05l0-9.06H718l0,9.06H718"/><path class="cls-22" d="M718,200l0-9.06h-.06l0,9.06H718"/><path class="cls-23" d="M717.9,200l0-9.06h-.06l0,9.06h.06"/><path class="cls-24" d="M717.84,200l0-9.06h-.05l0,9.06h.05"/><path class="cls-25" d="M717.79,200l0-9.06h-.06l0,9.06h.06"/><path class="cls-26" d="M717.73,200l0-9.06h0l0,9.06h.05"/><path class="cls-27" d="M717.68,200l0-9.06h-.06l0,9.06h.06"/><path class="cls-28" d="M717.62,200l0-9.06h-.06V200h0"/><path class="cls-29" d="M717.57,200v-9.06h-.05l0,9.06h.06"/><path class="cls-30" d="M717.51,200l0-9.06h-.06l0,9.06h.06"/><path class="cls-31" d="M717.45,200l0-9.06h-.05l0,9.06h.05"/><path class="cls-32" d="M717.4,200l0-9.06h-.06l0,9.06h.06"/><path class="cls-33" d="M717.34,200l0-9.06h-.06l0,9.06h.06"/><path class="cls-34" d="M717.28,200l0-9.06h-.06l0,9.06h.06"/><path class="cls-35" d="M717.22,200l0-9.06h-.08l0,9.06h.08"/><path class="cls-36" d="M717.14,200l0-9.06-.23,0-.15,0,0,9.06.16,0,.22,0"/><path class="cls-35" d="M716.76,200l0-9.06-.1,0v9.06l.09,0"/><path class="cls-34" d="M716.67,200.06V191h-.06l0,9.07.07,0"/><path class="cls-33" d="M716.6,200.08l0-9.07,0,0,0,9.06h.05"/><path class="cls-32" d="M716.55,200.09l0-9.06,0,0,0,9.06,0,0"/><path class="cls-31" d="M716.51,200.11l0-9.06h0l0,9.06h0"/><path class="cls-30" d="M716.48,200.12l0-9.06,0,0,0,9.06,0,0"/><path class="cls-29" d="M716.45,200.14l0-9.06h0v9.07l0,0"/><path class="cls-28" d="M716.43,200.16v-9.07l0,0v9.06h0"/><path class="cls-27" d="M716.41,200.17v-9l0,9.06,0,0"/><path class="cls-26" d="M716.39,200.19l0-9.06h0v9.06h0"/><path class="cls-25" d="M716.38,200.2v0"/><path class="cls-24" d="M716.37,200.22v-9.06h0l0,9.07v0"/><path class="cls-23" d="M716.36,200.24l0-9.07v9.08h0"/><polyline class="cls-22" points="716.36 200.25 716.37 191.19 716.37 191.2 716.36 200.26 716.36 200.25"/></g></g></g><g class="cls-15"><g class="cls-40"><g class="cls-15"><path class="cls-17" d="M716.36,200.26V191.2s0,.08.11.12l.15.06,0,9.06-.15-.06c-.07,0-.1-.08-.1-.12"/><path class="cls-20" d="M716.61,200.44l0-9.06.08,0,0,9.06-.08,0"/><path class="cls-21" d="M716.69,200.46l0-9.06.06,0,0,9.06-.06,0"/><path class="cls-22" d="M716.75,200.48l0-9.06h.06l0,9.06h-.06"/><path class="cls-23" d="M716.81,200.49l0-9.06h.06l0,9.06h-.06"/><path class="cls-24" d="M716.87,200.5l0-9.06h.05l0,9.06h0"/><path class="cls-25" d="M716.92,200.51l0-9.06H717l0,9.06h-.06"/><path class="cls-26" d="M717,200.51l0-9.06h0l0,9.06h0"/><path class="cls-27" d="M717,200.52l0-9.06h.06l0,9.07H717"/><path class="cls-28" d="M717.09,200.53l0-9.07h0v9.06h-.06"/><path class="cls-29" d="M717.15,200.53v-9.06h.06l0,9.06h-.05"/><path class="cls-30" d="M717.2,200.53l0-9.06h.06l0,9.06h-.06"/><path class="cls-31" d="M717.26,200.53l0-9.06h.05l0,9.07h0"/><path class="cls-32" d="M717.31,200.54l0-9.07h.06l0,9.06h-.06"/><path class="cls-33" d="M717.37,200.54l0-9.06h.06l0,9.07h-.06"/><path class="cls-34" d="M717.43,200.54l0-9.07h.06l0,9.06h-.06"/><path class="cls-35" d="M717.49,200.53l0-9.06h.08l0,9.06h-.08"/><path class="cls-36" d="M717.57,200.53l0-9.06.22,0,.16,0,0,9.06-.15,0-.23,0"/><path class="cls-35" d="M718,200.48l0-9.06.09,0v9.06l-.1,0"/><path class="cls-34" d="M718.05,200.46V191.4l.07,0,0,9.06-.06,0"/><path class="cls-33" d="M718.11,200.44l0-9.06,0,0,0,9.06,0,0"/><path class="cls-32" d="M718.16,200.42l0-9.06h0l0,9.06h0"/><path class="cls-31" d="M718.2,200.41l0-9.06,0,0,0,9.06,0,0"/><path class="cls-30" d="M718.23,200.39l0-9.06h0l0,9.06h0"/><path class="cls-29" d="M718.26,200.38l0-9.06,0,0v9.06l0,0"/><path class="cls-28" d="M718.29,200.36V191.3h0v9.06h0"/><path class="cls-27" d="M718.31,200.35v-9.06l0,0,0,9.06v0"/><path class="cls-26" d="M718.32,200.33l0-9.06v9l0,0"/><path class="cls-25" d="M718.34,200.31v-9.06h0v9.06h0"/><path class="cls-24" d="M718.35,200.3v-9.08l0,9.06v0"/><path class="cls-23" d="M718.35,200.28l0-9.06v9.06"/><polyline class="cls-22" points="718.36 200.26 718.37 191.2 718.37 191.2 718.36 200.26 718.36 200.26"/></g></g></g><g class="cls-15"><g class="cls-41"><g class="cls-15"><path class="cls-17" d="M705.37,191.18v9.06c0,.49.39,1,1.22,1.47a10,10,0,0,0,1.86.76l0-9.06a9.42,9.42,0,0,1-1.86-.76c-.83-.48-1.23-1-1.23-1.47"/><path class="cls-20" d="M708.46,193.41l0,9.06c.29.09.59.18.9.25v-9.06c-.31-.08-.61-.16-.89-.25"/><path class="cls-21" d="M709.35,193.66v9.06c.25.07.5.13.77.18v-9.06c-.26-.06-.52-.11-.77-.18"/><path class="cls-22" d="M710.12,193.84v9.06l.7.14,0-9.06-.71-.14"/><path class="cls-23" d="M710.83,194l0,9.06.69.12V194.1l-.68-.12"/><path class="cls-24" d="M711.51,194.1v9.06l.66.09,0-9.06-.67-.09"/><path class="cls-25" d="M712.18,194.19l0,9.06.67.09v-9.06l-.66-.09"/><path class="cls-26" d="M712.84,194.28v9.06l.66.07,0-9.06-.67-.07"/><path class="cls-27" d="M713.51,194.35l0,9.06.66.05,0-9.06-.66-.05"/><path class="cls-28" d="M714.17,194.4l0,9.06.67,0,0-9.06-.67,0"/><path class="cls-29" d="M714.84,194.45l0,9.06.68,0,0-9.06-.68,0"/><path class="cls-30" d="M715.52,194.49l0,9.06.68,0v-9.06l-.67,0"/><path class="cls-31" d="M716.19,194.51v9.06l.67,0,0-9.06-.68,0"/><path class="cls-32" d="M716.87,194.53l0,9.06h.69l0-9.06h-.69"/><path class="cls-33" d="M717.56,194.53l0,9.06h.71l0-9.06h-.71"/><path class="cls-34" d="M718.27,194.52l0,9.06.76,0,0-9.06-.76,0"/><path class="cls-35" d="M719,194.5l0,9.06.94,0,0-9.06-.94,0"/><path class="cls-36" d="M720,194.46l0,9.06c.91-.06,1.81-.14,2.69-.26.65-.09,1.26-.19,1.82-.3l0-9.07c-.56.12-1.17.22-1.82.31-.88.12-1.78.2-2.69.26"/><path class="cls-35" d="M724.48,193.89l0,9.07c.42-.09.81-.18,1.18-.28l0-9.06c-.37.1-.76.19-1.18.27"/><path class="cls-34" d="M725.66,193.62l0,9.06c.28-.07.55-.15.8-.23v-9.06c-.25.08-.51.16-.79.23"/><path class="cls-33" d="M726.45,193.39v9.06c.21-.06.4-.13.59-.2l0-9.06c-.19.07-.39.14-.6.2"/><path class="cls-32" d="M727.05,193.19l0,9.06.48-.2,0-9.06-.48.2"/><path class="cls-31" d="M727.53,193l0,9.06.39-.18,0-9.07c-.12.07-.26.13-.39.19"/><path class="cls-30" d="M727.92,192.8l0,9.07.34-.19v-9.06l-.33.18"/><path class="cls-29" d="M728.25,192.62v9.06l.28-.18,0-9.06-.29.18"/><path class="cls-28" d="M728.54,192.44l0,9.06a1.55,1.55,0,0,0,.24-.19l0-9.06-.24.19"/><path class="cls-27" d="M728.78,192.25l0,9.06.2-.18,0-9.06-.2.18"/><path class="cls-26" d="M729,192.07l0,9.06.16-.19,0-9.07-.16.2"/><path class="cls-25" d="M729.14,191.87l0,9.07a1.51,1.51,0,0,0,.12-.2l0-9.06-.12.19"/><path class="cls-24" d="M729.26,191.68l0,9.06a.9.9,0,0,0,.08-.21l0-9.06a1.8,1.8,0,0,1-.08.21"/><path class="cls-23" d="M729.34,191.47l0,9.06a1.7,1.7,0,0,0,0-.22v-9.06a.83.83,0,0,1,0,.22"/><path class="cls-22" d="M729.37,191.25v0"/></g></g></g><path class="cls-18" d="M728.15,189.75c2.91,1.66.45,3.65-5.49,4.45s-13.14.1-16.06-1.55-.46-3.65,5.49-4.45S725.23,188.09,728.15,189.75Zm-9.88,1.33a2.58,2.58,0,0,0-1.34-.13c-.49.06-.7.23-.45.37a2.66,2.66,0,0,0,1.33.13c.5-.07.7-.24.46-.37"/><ellipse class="cls-18" cx="717.38" cy="190.24" rx="3.61" ry="13" transform="translate(525.81 907.26) rotate(-89.89)"/><g class="cls-15"><g class="cls-42"><g class="cls-15"><path class="cls-17" d="M704.38,190.22l0,11c0,.53.42,1.07,1.33,1.59a10.42,10.42,0,0,0,2,.83l0-11a10.42,10.42,0,0,1-2-.83c-.91-.52-1.33-1.06-1.33-1.59"/><path class="cls-20" d="M707.72,192.64l0,11,1,.27,0-11-1-.27"/><path class="cls-21" d="M708.69,192.91l0,11,.83.19,0-11-.83-.19"/><path class="cls-22" d="M709.52,193.1l0,11,.77.15,0-11-.77-.15"/><path class="cls-23" d="M710.29,193.25l0,11,.74.13,0-11-.74-.13"/><path class="cls-24" d="M711,193.38l0,11,.72.1,0-11-.72-.1"/><path class="cls-25" d="M711.75,193.48l0,11,.72.09,0-11-.72-.09"/><path class="cls-26" d="M712.47,193.57l0,11,.72.08,0-11-.72-.08"/><path class="cls-27" d="M713.19,193.65l0,11,.72.06,0-11-.72-.06"/><path class="cls-28" d="M713.91,193.71l0,11,.72.05,0-11-.72,0"/><path class="cls-29" d="M714.63,193.76l0,11,.73,0,0-11-.73,0"/><path class="cls-30" d="M715.36,193.8l0,11,.74,0,0-11-.74,0"/><path class="cls-31" d="M716.1,193.83l0,11h.73l0-11h-.73"/><path class="cls-32" d="M716.83,193.84l0,11h.74l0-11h-.74"/><path class="cls-33" d="M717.57,193.85l0,11h.77l0-11h-.77"/><path class="cls-34" d="M718.34,193.84l0,11,.83,0,0-11-.83,0"/><path class="cls-35" d="M719.17,193.82l0,11,1-.05,0-11-1,0"/><path class="cls-36" d="M720.18,193.77l0,11c1-.06,2-.15,2.92-.28.7-.1,1.36-.21,2-.33l0-11c-.61.12-1.27.23-2,.33-1,.13-1.93.22-2.92.28"/><path class="cls-35" d="M725.07,193.16l0,11c.45-.09.88-.19,1.28-.29l0-11c-.4.1-.82.2-1.28.29"/><path class="cls-34" d="M726.35,192.87l0,11,.86-.25,0-11-.86.25"/><path class="cls-33" d="M727.21,192.62l0,11,.64-.23,0-11-.64.23"/><path class="cls-32" d="M727.85,192.39l0,11,.52-.21,0-11-.52.21"/><path class="cls-31" d="M728.37,192.18l0,11,.43-.2,0-11-.43.2"/><path class="cls-30" d="M728.8,192l0,11,.36-.2,0-11-.36.2"/><path class="cls-29" d="M729.16,191.78l0,11,.31-.2,0-11-.31.2"/><path class="cls-28" d="M729.47,191.58l0,11,.26-.2,0-11-.26.2"/><path class="cls-27" d="M729.73,191.38l0,11a2,2,0,0,0,.21-.2l0-11a2,2,0,0,1-.21.2"/><path class="cls-26" d="M729.94,191.18l0,11a1.68,1.68,0,0,0,.18-.21l0-11a1.68,1.68,0,0,1-.18.21"/><path class="cls-25" d="M730.12,191l0,11a2.39,2.39,0,0,0,.13-.21l0-11a2.39,2.39,0,0,1-.13.21"/><path class="cls-24" d="M730.25,190.76l0,11a1.09,1.09,0,0,0,.09-.23l0-11a1.09,1.09,0,0,1-.09.23"/><path class="cls-23" d="M730.34,190.53l0,11a1,1,0,0,0,0-.24l0-11a1,1,0,0,1,0,.24"/><path class="cls-22" d="M730.37,190.29l0,11v0l0-11v0"/></g></g></g></g><g class="cls-15"><g class="cls-15"><g class="cls-43"><g class="cls-15"><path class="cls-17" d="M730.37,177l0,11c0-.54-.42-1.08-1.33-1.6l0-11c.91.52,1.34,1.06,1.33,1.6"/></g></g></g><path class="cls-18" d="M729,186.36c3.16,1.8.5,4-5.94,4.82s-14.23.12-17.39-1.68-.5-3.95,5.94-4.82S725.86,184.57,729,186.36Zm-11.67,1.57h0"/><g class="cls-15"><g class="cls-44"><g class="cls-15"><path class="cls-17" d="M729,175.38l0,11a11.1,11.1,0,0,0-2-.83l0-11a11.1,11.1,0,0,1,2,.83"/><path class="cls-20" d="M727,174.55l0,11-1-.27,0-11,1,.27"/><path class="cls-21" d="M726.06,174.28l0,11-.83-.19,0-11,.83.19"/><path class="cls-22" d="M725.23,174.09l0,11-.77-.15,0-11,.77.15"/><path class="cls-23" d="M724.46,173.94l0,11c-.24,0-.49-.09-.74-.12l0-11,.74.13"/><path class="cls-24" d="M723.72,173.81l0,11-.72-.11,0-11,.72.1"/><path class="cls-25" d="M723,173.71l0,11-.72-.09,0-11,.72.09"/><path class="cls-26" d="M722.28,173.62l0,11-.72-.08,0-11,.72.08"/><path class="cls-27" d="M721.56,173.54l0,11-.72-.06,0-11,.72.06"/><path class="cls-28" d="M720.84,173.48l0,11-.72-.05,0-11,.72,0"/><path class="cls-29" d="M720.12,173.43l0,11-.73,0,0-11,.73,0"/><path class="cls-30" d="M719.39,173.39l0,11-.74,0,0-11,.74,0"/><path class="cls-31" d="M718.65,173.36l0,11h-.73l0-11h.73"/><path class="cls-32" d="M717.92,173.35l0,11h-.74l0-11h.74"/><path class="cls-33" d="M717.18,173.34l0,11h-.77l0-11h.77"/><path class="cls-34" d="M716.41,173.35l0,11-.83,0,0-11,.82,0"/><path class="cls-35" d="M715.59,173.37l0,11-1,.05,0-11,1,0"/><path class="cls-36" d="M714.57,173.42l0,11c-1,.06-2,.16-2.92.28-.7.1-1.36.21-2,.33l0-11c.61-.12,1.27-.23,2-.33,1-.12,1.93-.22,2.92-.28"/><path class="cls-35" d="M709.68,174l0,11c-.46.09-.88.19-1.28.3l0-11c.4-.11.83-.21,1.28-.3"/><path class="cls-34" d="M708.4,174.33l0,11c-.3.08-.59.16-.86.25l0-11c.27-.09.56-.17.86-.25"/><path class="cls-33" d="M707.54,174.58l0,11c-.23.07-.44.14-.64.22l0-11c.2-.08.41-.15.64-.22"/><path class="cls-32" d="M706.9,174.8l0,11-.52.21,0-11,.52-.21"/><path class="cls-31" d="M706.38,175l0,11-.43.2,0-11,.43-.2"/><path class="cls-30" d="M706,175.21l0,11-.36.2,0-11,.36-.2"/><path class="cls-29" d="M705.59,175.41l0,11-.31.2,0-11,.31-.2"/><path class="cls-28" d="M705.28,175.61l0,11-.26.2,0-11,.26-.2"/><path class="cls-27" d="M705,175.81l0,11-.21.2,0-11,.21-.2"/><path class="cls-26" d="M704.81,176l0,11a1.68,1.68,0,0,0-.18.21l0-11a1.68,1.68,0,0,1,.18-.21"/><path class="cls-25" d="M704.63,176.22l0,11a1.59,1.59,0,0,0-.13.22l0-11a1.59,1.59,0,0,1,.13-.22"/><path class="cls-24" d="M704.5,176.44l0,11a1,1,0,0,0-.09.22l0-11a.85.85,0,0,1,.09-.22"/><path class="cls-23" d="M704.41,176.66l0,11a1,1,0,0,0,0,.24l0-11a1,1,0,0,1,0-.24"/><path class="cls-22" d="M704.38,176.9l0,11v0l0-11v0"/></g></g></g><g class="cls-15"><g class="cls-45"><g class="cls-15"><path class="cls-17" d="M729.37,177.93V187c0-.49-.4-1-1.23-1.46l0-9.06c.83.47,1.22,1,1.22,1.46"/></g></g></g><path class="cls-18" d="M728.13,185.53c2.92,1.65.46,3.65-5.49,4.45s-13.14.1-16.06-1.56-.45-3.65,5.49-4.45S725.21,183.87,728.13,185.53Zm-9.88,1.32a2.78,2.78,0,0,0-1.33-.13c-.5.07-.7.24-.46.38a2.71,2.71,0,0,0,1.34.12c.49-.06.7-.23.45-.37"/><g class="cls-15"><g class="cls-46"><g class="cls-15"><path class="cls-17" d="M728.15,176.47l0,9.06a8.84,8.84,0,0,0-1.86-.77l0-9.06a9.31,9.31,0,0,1,1.86.77"/><path class="cls-20" d="M726.29,175.7l0,9.06c-.28-.09-.58-.17-.89-.25v-9.06l.9.25"/><path class="cls-21" d="M725.39,175.45v9.06l-.77-.18,0-9.06.76.18"/><path class="cls-22" d="M724.63,175.27l0,9.06-.71-.14,0-9.06.71.14"/><path class="cls-23" d="M723.92,175.13l0,9.06-.68-.11V175l.69.11"/><path class="cls-24" d="M723.23,175v9.06l-.67-.1,0-9.06.66.1"/><path class="cls-25" d="M722.57,174.92l0,9.06-.66-.08v-9.06l.67.08"/><path class="cls-26" d="M721.9,174.84v9.06l-.67-.07,0-9.06.66.07"/><path class="cls-27" d="M721.24,174.77l0,9.06-.66-.06,0-9.06.66.06"/><path class="cls-28" d="M720.58,174.71l0,9.06-.67-.05,0-9.06.67.05"/><path class="cls-29" d="M719.91,174.66l0,9.06-.68,0,0-9.07.68,0"/><path class="cls-30" d="M719.23,174.62l0,9.07-.67,0V174.6l.68,0"/><path class="cls-31" d="M718.55,174.6v9.06h-.68l0-9.07.67,0"/><path class="cls-32" d="M717.88,174.58l0,9.07h-.69l0-9.06h.69"/><path class="cls-33" d="M717.19,174.58l0,9.06h-.71l0-9.06h.71"/><path class="cls-34" d="M716.48,174.59l0,9.06-.76,0,0-9.06.76,0"/><path class="cls-35" d="M715.72,174.61l0,9.06-.94.05,0-9.06.94,0"/><path class="cls-36" d="M714.78,174.66l0,9.06c-.91.05-1.81.14-2.69.25-.65.09-1.26.19-1.82.31l0-9.06c.56-.12,1.17-.22,1.82-.31.88-.11,1.78-.2,2.69-.25"/><path class="cls-35" d="M710.27,175.22l0,9.06c-.42.08-.81.17-1.18.27l0-9.06c.37-.1.76-.19,1.18-.27"/><path class="cls-34" d="M709.09,175.49l0,9.06c-.28.07-.54.15-.79.23v-9.06c.25-.08.52-.16.8-.23"/><path class="cls-33" d="M708.29,175.72v9.06l-.6.21,0-9.06c.19-.08.38-.14.59-.21"/><path class="cls-32" d="M707.7,175.93l0,9.06-.47.19v-9.06c.15-.07.31-.13.48-.19"/><path class="cls-31" d="M707.22,176.12v9.06a3.71,3.71,0,0,0-.4.19l0-9.06a3.54,3.54,0,0,1,.39-.19"/><path class="cls-30" d="M706.83,176.31l0,9.06-.33.18v-9.06l.34-.18"/><path class="cls-29" d="M706.49,176.49v9.06l-.29.18,0-9.06.28-.18"/><path class="cls-28" d="M706.21,176.67l0,9.06-.24.19,0-9.06a2.51,2.51,0,0,1,.24-.19"/><path class="cls-27" d="M706,176.86l0,9.06a1.8,1.8,0,0,0-.2.19l0-9.06a1.8,1.8,0,0,1,.2-.19"/><path class="cls-26" d="M705.77,177.05l0,9.06a1.46,1.46,0,0,0-.16.19l0-9.06a1.46,1.46,0,0,1,.16-.19"/><path class="cls-25" d="M705.61,177.24l0,9.06-.12.2,0-9.06a.82.82,0,0,1,.12-.2"/><path class="cls-24" d="M705.49,177.44l0,9.06a1.19,1.19,0,0,0-.08.2l0-9.06a.7.7,0,0,1,.08-.2"/><path class="cls-23" d="M705.41,177.64l0,9.06a.89.89,0,0,0,0,.22v-9.06a2.07,2.07,0,0,1,0-.22"/><path class="cls-22" d="M705.37,177.86v0"/></g></g></g><g class="cls-15"><g class="cls-47"><g class="cls-15"><path class="cls-17" d="M718.25,186.85l0-9.06-.15-.06,0,9.06.15.06"/><path class="cls-20" d="M718.1,186.79l0-9.06-.08,0,0,9.06.08,0"/><path class="cls-21" d="M718,186.77l0-9.06-.06,0,0,9.06.06,0"/><path class="cls-22" d="M718,186.75l0-9.06h-.06l0,9.06H718"/><path class="cls-23" d="M717.9,186.74l0-9.06h-.06l0,9.06h.06"/><path class="cls-24" d="M717.84,186.73l0-9.06h-.05l0,9.07h.05"/><path class="cls-25" d="M717.79,186.73l0-9.07h-.06l0,9.06h.06"/><path class="cls-26" d="M717.73,186.72l0-9.06h0l0,9.06h.05"/><path class="cls-27" d="M717.68,186.71l0-9.06h-.06l0,9.06h.06"/><path class="cls-28" d="M717.62,186.71l0-9.06h-.06v9.06h0"/><path class="cls-29" d="M717.57,186.7v-9.06h-.05l0,9.06h.06"/><path class="cls-30" d="M717.51,186.7l0-9.06h-.06l0,9.06h.06"/><path class="cls-31" d="M717.45,186.7l0-9.06h-.05l0,9.06h.05"/><path class="cls-32" d="M717.4,186.7l0-9.06h-.06l0,9.06h.06"/><path class="cls-33" d="M717.34,186.7l0-9.06h-.06l0,9.06h.06"/><path class="cls-34" d="M717.28,186.7l0-9.06h-.06l0,9.06h.06"/><path class="cls-35" d="M717.22,186.7l0-9.06h-.08l0,9.06h.08"/><path class="cls-36" d="M717.14,186.7l0-9.06-.23,0-.15,0,0,9.06.16,0,.22,0"/><path class="cls-35" d="M716.76,186.75l0-9.06-.1,0v9.06l.09,0"/><path class="cls-34" d="M716.67,186.77v-9.06l-.06,0,0,9.06.07,0"/><path class="cls-33" d="M716.6,186.79l0-9.06,0,0,0,9.06.05,0"/><path class="cls-32" d="M716.55,186.81l0-9.06h0l0,9.07,0,0"/><path class="cls-31" d="M716.51,186.83l0-9.07,0,0,0,9.06h0"/><path class="cls-30" d="M716.48,186.84l0-9.06,0,0,0,9.06,0,0"/><path class="cls-29" d="M716.45,186.86l0-9.06h0v9.06h0"/><path class="cls-28" d="M716.43,186.87v-9.06l0,0v9.06l0,0"/><path class="cls-27" d="M716.41,186.89v-9.06h0l0,9.06h0"/><path class="cls-26" d="M716.39,186.9l0-9.06,0,0v9"/><path class="cls-25" d="M716.38,186.92v-9.06h0v9.06h0"/><path class="cls-24" d="M716.37,186.93v-9l0,9.06v0"/><path class="cls-23" d="M716.36,187l0-9.06V187"/><polyline class="cls-22" points="716.36 186.97 716.37 177.91 716.37 177.91 716.36 186.97 716.36 186.97"/></g></g></g><g class="cls-15"><g class="cls-48"><g class="cls-15"><path class="cls-17" d="M716.36,187v-9.06s0,.08.11.12a.52.52,0,0,0,.15.07l0,9.06-.15-.06a.17.17,0,0,1-.1-.13"/><path class="cls-20" d="M716.61,187.16l0-9.06.08,0,0,9.06-.08,0"/><path class="cls-21" d="M716.69,187.18l0-9.06h.06l0,9.06h-.06"/><path class="cls-22" d="M716.75,187.19l0-9.06.06,0,0,9.06-.06,0"/><path class="cls-23" d="M716.81,187.21l0-9.06h.06l0,9.07h-.06"/><path class="cls-24" d="M716.87,187.22l0-9.07h.05l0,9.06h0"/><path class="cls-25" d="M716.92,187.22l0-9.06H717l0,9.06h-.06"/><path class="cls-26" d="M717,187.23l0-9.06h0l0,9.06h0"/><path class="cls-27" d="M717,187.24l0-9.06h.06l0,9.06H717"/><path class="cls-28" d="M717.09,187.24l0-9.06h0v9.07h-.06"/><path class="cls-29" d="M717.15,187.25v-9.07h.06l0,9.06h-.05"/><path class="cls-30" d="M717.2,187.25l0-9.06h.06l0,9.06h-.06"/><path class="cls-31" d="M717.26,187.25l0-9.06h.05l0,9.06h0"/><path class="cls-32" d="M717.31,187.25l0-9.06h.06l0,9.06h-.06"/><path class="cls-33" d="M717.37,187.25l0-9.06h.06l0,9.06h-.06"/><path class="cls-34" d="M717.43,187.25l0-9.06h.06l0,9.06h-.06"/><path class="cls-35" d="M717.49,187.25l0-9.06h.08l0,9.07h-.08"/><path class="cls-36" d="M717.57,187.25l0-9.07.22,0,.16,0,0,9.06-.15,0-.23,0"/><path class="cls-35" d="M718,187.2l0-9.06.09,0v9.06l-.1,0"/><path class="cls-34" d="M718.05,187.18v-9.06l.07,0,0,9.06-.06,0"/><path class="cls-33" d="M718.11,187.16l0-9.06,0,0,0,9.06,0,0"/><path class="cls-32" d="M718.16,187.14l0-9.06,0,0,0,9.06,0,0"/><path class="cls-31" d="M718.2,187.12l0-9.06h0l0,9.06h0"/><path class="cls-30" d="M718.23,187.11l0-9.06,0,0,0,9.06,0,0"/><path class="cls-29" d="M718.26,187.09l0-9.06h0v9.06h0"/><path class="cls-28" d="M718.29,187.08V178l0,0v9.06l0,0"/><path class="cls-27" d="M718.31,187.06V178h0l0,9.06h0"/><path class="cls-26" d="M718.32,187.05l0-9.06v9l0,0"/><path class="cls-25" d="M718.34,187v0"/><path class="cls-24" d="M718.35,187V178h0l0,9.06h0"/><path class="cls-23" d="M718.35,187l0-9.06V187"/><polyline class="cls-22" points="718.36 186.98 718.37 177.92 718.37 177.91 718.36 186.98 718.36 186.98"/></g></g></g><g class="cls-15"><g class="cls-49"><g class="cls-15"><path class="cls-17" d="M705.37,177.89V187c0,.5.39,1,1.22,1.47a9.31,9.31,0,0,0,1.86.77l0-9.06a9.4,9.4,0,0,1-1.86-.77c-.83-.47-1.23-1-1.23-1.47"/><path class="cls-20" d="M708.46,180.13l0,9.06.9.25v-9.06c-.31-.08-.61-.16-.89-.25"/><path class="cls-21" d="M709.35,180.38v9.06l.77.18v-9.06l-.77-.18"/><path class="cls-22" d="M710.12,180.56v9.06l.7.14,0-9.06-.71-.14"/><path class="cls-23" d="M710.83,180.7l0,9.06.69.11v-9.06l-.68-.11"/><path class="cls-24" d="M711.51,180.81v9.06l.66.1,0-9.06-.67-.1"/><path class="cls-25" d="M712.18,180.91l0,9.06.67.08V181l-.66-.08"/><path class="cls-26" d="M712.84,181v9.06l.66.07,0-9.06-.67-.07"/><path class="cls-27" d="M713.51,181.06l0,9.06.66.06,0-9.06-.66-.06"/><path class="cls-28" d="M714.17,181.12l0,9.06.67,0,0-9.06-.67,0"/><path class="cls-29" d="M714.84,181.17l0,9.06.68,0,0-9.06-.68,0"/><path class="cls-30" d="M715.52,181.2l0,9.06.68,0v-9.06l-.67,0"/><path class="cls-31" d="M716.19,181.23v9.06h.67l0-9.06h-.68"/><path class="cls-32" d="M716.87,181.24l0,9.06h.69l0-9.06h-.69"/><path class="cls-33" d="M717.56,181.25l0,9.06h.71l0-9.06h-.71"/><path class="cls-34" d="M718.27,181.24l0,9.06.76,0,0-9.06-.76,0"/><path class="cls-35" d="M719,181.22l0,9.06.94-.05,0-9.06-.94.05"/><path class="cls-36" d="M720,181.17l0,9.06c.91,0,1.81-.14,2.69-.25.65-.09,1.26-.19,1.82-.31l0-9.06c-.56.12-1.17.22-1.82.3-.88.12-1.78.21-2.69.26"/><path class="cls-35" d="M724.48,180.61l0,9.06c.42-.08.81-.17,1.18-.27l0-9.06c-.37.1-.76.19-1.18.27"/><path class="cls-34" d="M725.66,180.34l0,9.06c.28-.07.55-.15.8-.23v-9.06c-.25.08-.51.16-.79.23"/><path class="cls-33" d="M726.45,180.11v9.06L727,189l0-9.06-.6.21"/><path class="cls-32" d="M727.05,179.9l0,9.06.48-.19,0-9.06-.48.19"/><path class="cls-31" d="M727.53,179.71l0,9.06a3.54,3.54,0,0,0,.39-.19l0-9.06-.39.19"/><path class="cls-30" d="M727.92,179.52l0,9.06.34-.18v-9.06l-.33.18"/><path class="cls-29" d="M728.25,179.34v9.06l.28-.19,0-9.06a2.9,2.9,0,0,1-.29.19"/><path class="cls-28" d="M728.54,179.15l0,9.06.24-.18,0-9.06-.24.18"/><path class="cls-27" d="M728.78,179l0,9.06a1.8,1.8,0,0,0,.2-.19l0-9.06-.2.19"/><path class="cls-26" d="M729,178.78l0,9.06a1.46,1.46,0,0,0,.16-.19l0-9.06c0,.06-.1.13-.16.19"/><path class="cls-25" d="M729.14,178.59l0,9.06a.82.82,0,0,0,.12-.2l0-9.06-.12.2"/><path class="cls-24" d="M729.26,178.39l0,9.06a.84.84,0,0,0,.08-.2l0-9.07a1.8,1.8,0,0,1-.08.21"/><path class="cls-23" d="M729.34,178.18l0,9.07a2.07,2.07,0,0,0,0-.22V178a.76.76,0,0,1,0,.21"/><path class="cls-22" d="M729.37,178v0"/></g></g></g><path class="cls-18" d="M728.15,176.47c2.91,1.65.45,3.64-5.49,4.44s-13.14.11-16.06-1.55-.46-3.65,5.49-4.45S725.23,174.81,728.15,176.47Zm-9.88,1.32a2.69,2.69,0,0,0-1.34-.13c-.49.07-.7.24-.45.37a2.55,2.55,0,0,0,1.33.13c.5-.06.7-.23.46-.37"/><ellipse class="cls-18" cx="717.38" cy="176.95" rx="3.61" ry="13" transform="translate(539.09 894) rotate(-89.89)"/><g class="cls-15"><g class="cls-50"><g class="cls-15"><path class="cls-17" d="M704.38,176.93l0,11c0,.54.42,1.08,1.33,1.59a10.4,10.4,0,0,0,2,.84l0-11a9.83,9.83,0,0,1-2-.83c-.91-.51-1.33-1.05-1.33-1.59"/><path class="cls-20" d="M707.72,179.35l0,11,1,.27,0-11c-.34-.08-.66-.17-1-.27"/><path class="cls-21" d="M708.69,179.62l0,11,.83.19,0-11-.83-.2"/><path class="cls-22" d="M709.52,179.82l0,11,.77.15,0-11-.77-.15"/><path class="cls-23" d="M710.29,180l0,11,.74.12,0-11-.74-.12"/><path class="cls-24" d="M711,180.09l0,11,.72.11,0-11-.72-.11"/><path class="cls-25" d="M711.75,180.2l0,11,.72.09,0-11-.72-.09"/><path class="cls-26" d="M712.47,180.29l0,11,.72.07,0-11-.72-.07"/><path class="cls-27" d="M713.19,180.36l0,11,.72.07,0-11-.72-.07"/><path class="cls-28" d="M713.91,180.43l0,11,.72.05,0-11-.72,0"/><path class="cls-29" d="M714.63,180.48l0,11,.73,0,0-11-.73,0"/><path class="cls-30" d="M715.36,180.52l0,11,.74,0,0-11-.74,0"/><path class="cls-31" d="M716.1,180.54l0,11,.73,0,0-11-.73,0"/><path class="cls-32" d="M716.83,180.56l0,11c.25,0,.5,0,.74,0l0-11h-.74"/><path class="cls-33" d="M717.57,180.56l0,11h.77l0-11h-.77"/><path class="cls-34" d="M718.34,180.56l0,11,.83,0,0-11-.83,0"/><path class="cls-35" d="M719.17,180.53l0,11,1,0,0-11-1,.05"/><path class="cls-36" d="M720.18,180.48l0,11c1-.06,2-.15,2.92-.28.7-.09,1.36-.2,2-.32l0-11c-.61.12-1.27.23-2,.32-1,.13-1.93.22-2.92.28"/><path class="cls-35" d="M725.07,179.88l0,11c.45-.1.88-.19,1.28-.3l0-11c-.4.11-.82.2-1.28.3"/><path class="cls-34" d="M726.35,179.58l0,11c.3-.08.59-.16.86-.25l0-11c-.27.09-.56.17-.86.25"/><path class="cls-33" d="M727.21,179.33l0,11,.64-.22,0-11-.64.22"/><path class="cls-32" d="M727.85,179.11l0,11,.52-.21,0-11-.52.21"/><path class="cls-31" d="M728.37,178.9l0,11,.43-.2,0-11-.43.21"/><path class="cls-30" d="M728.8,178.69l0,11,.36-.2,0-11-.36.19"/><path class="cls-29" d="M729.16,178.5l0,11,.31-.2,0-11-.31.2"/><path class="cls-28" d="M729.47,178.3l0,11,.26-.2,0-11-.26.2"/><path class="cls-27" d="M729.73,178.1l0,11a2.08,2.08,0,0,0,.21-.21l0-11-.21.21"/><path class="cls-26" d="M729.94,177.89l0,11a1.12,1.12,0,0,0,.18-.2l0-11a1.12,1.12,0,0,1-.18.2"/><path class="cls-25" d="M730.12,177.69l0,11a2.53,2.53,0,0,0,.13-.22l0-11a2.53,2.53,0,0,1-.13.22"/><path class="cls-24" d="M730.25,177.47l0,11a1,1,0,0,0,.09-.22l0-11a1,1,0,0,1-.09.22"/><path class="cls-23" d="M730.34,177.25l0,11a1,1,0,0,0,0-.24l0-11a1,1,0,0,1,0,.24"/><path class="cls-22" d="M730.37,177l0,11v0l0-11v0"/></g></g></g></g><g class="cls-15"><g class="cls-15"><g class="cls-51"><g class="cls-15"><path class="cls-17" d="M730.37,163.69l0,11c0-.53-.42-1.08-1.33-1.59l0-11c.91.51,1.34,1.06,1.33,1.59"/></g></g></g><path class="cls-18" d="M729,173.09c3.16,1.8.5,3.95-5.94,4.82s-14.23.11-17.39-1.68-.5-4,5.94-4.82S725.86,171.29,729,173.09Zm-11.67,1.57h0"/><g class="cls-15"><g class="cls-52"><g class="cls-15"><path class="cls-17" d="M729,162.1l0,11a9.83,9.83,0,0,0-2-.83l0-11a9.83,9.83,0,0,1,2,.83"/><path class="cls-20" d="M727,161.27l0,11c-.31-.1-.63-.19-1-.27l0-11c.34.08.66.17,1,.27"/><path class="cls-21" d="M726.06,161l0,11-.83-.19,0-11,.83.19"/><path class="cls-22" d="M725.23,160.81l0,11-.77-.16,0-11c.26,0,.52.09.77.15"/><path class="cls-23" d="M724.46,160.66l0,11-.74-.12,0-11,.74.13"/><path class="cls-24" d="M723.72,160.53l0,11-.72-.11,0-11,.72.1"/><path class="cls-25" d="M723,160.43l0,11-.72-.09,0-11q.36,0,.72.09"/><path class="cls-26" d="M722.28,160.34l0,11-.72-.07,0-11,.72.08"/><path class="cls-27" d="M721.56,160.26l0,11-.72-.06,0-11,.72.06"/><path class="cls-28" d="M720.84,160.2l0,11-.72-.05,0-11,.72,0"/><path class="cls-29" d="M720.12,160.15l0,11-.73,0,0-11,.73,0"/><path class="cls-30" d="M719.39,160.11l0,11-.74,0,0-11,.74,0"/><path class="cls-31" d="M718.65,160.08l0,11-.73,0,0-11,.73,0"/><path class="cls-32" d="M717.92,160.06l0,11h-.74l0-11h.74"/><path class="cls-33" d="M717.18,160.06l0,11h-.77l0-11h.77"/><path class="cls-34" d="M716.41,160.07l0,11-.83,0,0-11,.82,0"/><path class="cls-35" d="M715.59,160.09l0,11-1,0,0-11,1,0"/><path class="cls-36" d="M714.57,160.14l0,11c-1,.06-2,.15-2.92.28-.7.09-1.36.2-2,.33l0-11c.61-.13,1.27-.24,2-.33,1-.13,1.93-.22,2.92-.28"/><path class="cls-35" d="M709.68,160.75l0,11c-.46.09-.88.19-1.28.29l0-11c.4-.1.83-.2,1.28-.29"/><path class="cls-34" d="M708.4,161l0,11c-.3.08-.59.16-.86.25l0-11,.86-.25"/><path class="cls-33" d="M707.54,161.29l0,11-.64.22,0-11c.2-.08.41-.16.64-.23"/><path class="cls-32" d="M706.9,161.52l0,11a5.08,5.08,0,0,0-.52.22l0-11a3.52,3.52,0,0,1,.52-.21"/><path class="cls-31" d="M706.38,161.73l0,11-.43.2,0-11,.43-.2"/><path class="cls-30" d="M706,161.93l0,11a3.07,3.07,0,0,0-.36.2l0-11a3.07,3.07,0,0,1,.36-.2"/><path class="cls-29" d="M705.59,162.13l0,11a3.28,3.28,0,0,0-.31.2l0-11a3.28,3.28,0,0,1,.31-.2"/><path class="cls-28" d="M705.28,162.33l0,11-.26.2,0-11,.26-.2"/><path class="cls-27" d="M705,162.53l0,11a1.34,1.34,0,0,0-.21.2l0-11a1.34,1.34,0,0,1,.21-.2"/><path class="cls-26" d="M704.81,162.73l0,11a1.68,1.68,0,0,0-.18.21l0-11a1.68,1.68,0,0,1,.18-.21"/><path class="cls-25" d="M704.63,162.94l0,11a2.39,2.39,0,0,0-.13.21l0-11a2.39,2.39,0,0,1,.13-.21"/><path class="cls-24" d="M704.5,163.15l0,11a1.28,1.28,0,0,0-.09.22l0-11a1.09,1.09,0,0,1,.09-.23"/><path class="cls-23" d="M704.41,163.38l0,11a1,1,0,0,0,0,.24l0-11a.91.91,0,0,1,0-.23"/><path class="cls-22" d="M704.38,163.61l0,11v0l0-11v0"/></g></g></g><g class="cls-15"><g class="cls-53"><g class="cls-15"><path class="cls-54" d="M729.36,173.71v-9.06c0-.49-.39-1-1.22-1.47l0,9.06c.83.48,1.23,1,1.23,1.47"/></g></g></g><g class="cls-15"><g class="cls-55"><g class="cls-15"><path class="cls-17" d="M729.37,164.65v9.06c0-.49-.4-1-1.23-1.47l0-9.06c.83.48,1.22,1,1.22,1.47"/></g></g></g><path class="cls-56" d="M728.13,172.24c2.92,1.66.46,3.65-5.49,4.45s-13.14.11-16.06-1.55-.45-3.65,5.49-4.45S725.21,170.58,728.13,172.24Zm-9.88,1.33a2.55,2.55,0,0,0-1.33-.13c-.5.07-.7.23-.46.37a2.58,2.58,0,0,0,1.34.13c.49-.07.7-.23.45-.37"/><path class="cls-18" d="M728.13,172.24c2.92,1.66.46,3.65-5.49,4.45s-13.14.11-16.06-1.55-.45-3.65,5.49-4.45S725.21,170.58,728.13,172.24Zm-9.88,1.33a2.55,2.55,0,0,0-1.33-.13c-.5.07-.7.23-.46.37a2.58,2.58,0,0,0,1.34.13c.49-.07.7-.23.45-.37"/><g class="cls-15"><g class="cls-57"><g class="cls-15"><path class="cls-54" d="M728.13,172.24l0-9.06a10.66,10.66,0,0,0-1.86-.77l0,9.06a10,10,0,0,1,1.86.77"/><path class="cls-58" d="M726.27,171.47l0-9.06-.9-.25v9.06l.89.25"/><path class="cls-59" d="M725.38,171.22v-9.06l-.76-.17,0,9.06.77.17"/><path class="cls-60" d="M724.61,171.05l0-9.06-.71-.14,0,9.06.71.14"/><path class="cls-61" d="M723.9,170.91l0-9.06-.69-.12v9.06l.68.12"/><path class="cls-62" d="M723.22,170.79v-9.06l-.66-.1,0,9.07.67.09"/><path class="cls-63" d="M722.55,170.7l0-9.07-.67-.08v9.06l.66.09"/><path class="cls-64" d="M721.89,170.61v-9.06l-.66-.07,0,9.06.67.07"/><path class="cls-65" d="M721.22,170.54l0-9.06-.66-.06,0,9.06.66.06"/><path class="cls-66" d="M720.56,170.48l0-9.06-.67,0,0,9.06.67,0"/><path class="cls-67" d="M719.89,170.44l0-9.06-.68,0,0,9.06.68,0"/><path class="cls-68" d="M719.21,170.4l0-9.06-.68,0v9.06l.67,0"/><path class="cls-69" d="M718.54,170.38v-9.06l-.67,0,0,9.06.68,0"/><path class="cls-70" d="M717.86,170.36l0-9.06h-.69l0,9.06h.69"/><path class="cls-71" d="M717.17,170.36l0-9.06h-.71l0,9.07h.71"/><path class="cls-72" d="M716.46,170.37l0-9.07-.76,0,0,9.06.76,0"/><path class="cls-73" d="M715.7,170.39l0-9.06-.94,0,0,9.06.94,0"/><path class="cls-74" d="M714.76,170.43l0-9.06c-.91.06-1.81.14-2.69.26-.65.09-1.26.19-1.82.3l0,9.06c.56-.11,1.17-.21,1.82-.3.88-.12,1.78-.2,2.69-.26"/><path class="cls-73" d="M710.25,171l0-9.06-1.18.27,0,9.07c.37-.1.76-.19,1.18-.28"/><path class="cls-72" d="M709.07,171.27l0-9.07-.8.24v9.06c.25-.08.51-.16.79-.23"/><path class="cls-71" d="M708.28,171.5v-9.06c-.21.06-.4.13-.59.2l0,9.06.6-.2"/><path class="cls-70" d="M707.68,171.7l0-9.06c-.17.06-.33.13-.48.2v9.06l.47-.2"/><path class="cls-69" d="M707.21,171.9v-9.06l-.39.18,0,9.06.4-.18"/><path class="cls-68" d="M706.81,172.08l0-9.06-.34.19v9.06l.33-.19"/><path class="cls-67" d="M706.48,172.27v-9.06l-.28.18,0,9.06.29-.18"/><path class="cls-66" d="M706.19,172.45l0-9.06-.24.18,0,9.07.24-.19"/><path class="cls-65" d="M706,172.64l0-9.07-.2.19,0,9.06.2-.18"/><path class="cls-64" d="M705.75,172.82l0-9.06c-.06.06-.11.13-.16.19l0,9.06.16-.19"/><path class="cls-63" d="M705.59,173l0-9.06a1.06,1.06,0,0,0-.12.2l0,9.06.12-.2"/><path class="cls-62" d="M705.47,173.21l0-9.06a.9.9,0,0,0-.08.21l0,9.06a1.8,1.8,0,0,1,.08-.21"/><path class="cls-61" d="M705.39,173.42l0-9.06a1.43,1.43,0,0,0,0,.22v9.06a.83.83,0,0,1,0-.22"/><path class="cls-60" d="M705.36,173.64v0"/></g></g></g><g class="cls-15"><g class="cls-75"><g class="cls-15"><path class="cls-17" d="M728.15,163.18l0,9.06a10,10,0,0,0-1.86-.77l0-9.06a10.66,10.66,0,0,1,1.86.77"/><path class="cls-20" d="M726.29,162.41l0,9.06-.89-.25v-9.06l.9.25"/><path class="cls-21" d="M725.39,162.16v9.06l-.77-.17,0-9.06.76.17"/><path class="cls-22" d="M724.63,162l0,9.06-.71-.14,0-9.06.71.14"/><path class="cls-23" d="M723.92,161.85l0,9.06-.68-.12v-9.06l.69.12"/><path class="cls-24" d="M723.23,161.73v9.06l-.67-.09,0-9.07.66.1"/><path class="cls-25" d="M722.57,161.63l0,9.07-.66-.09v-9.06l.67.08"/><path class="cls-26" d="M721.9,161.55v9.06l-.67-.07,0-9.06.66.07"/><path class="cls-27" d="M721.24,161.48l0,9.06-.66-.06,0-9.06.66.06"/><path class="cls-28" d="M720.58,161.42l0,9.06-.67,0,0-9.06.67,0"/><path class="cls-29" d="M719.91,161.38l0,9.06-.68,0,0-9.06.68,0"/><path class="cls-30" d="M719.23,161.34l0,9.06-.67,0v-9.06l.68,0"/><path class="cls-31" d="M718.55,161.32v9.06l-.68,0,0-9.06.67,0"/><path class="cls-32" d="M717.88,161.3l0,9.06h-.69l0-9.06h.69"/><path class="cls-33" d="M717.19,161.3l0,9.06h-.71l0-9.07h.71"/><path class="cls-34" d="M716.48,161.3l0,9.07-.76,0,0-9.06.76,0"/><path class="cls-35" d="M715.72,161.33l0,9.06-.94,0,0-9.06.94,0"/><path class="cls-36" d="M714.78,161.37l0,9.06c-.91.06-1.81.14-2.69.26-.65.09-1.26.19-1.82.3l0-9.06c.56-.11,1.17-.21,1.82-.3.88-.12,1.78-.2,2.69-.26"/><path class="cls-35" d="M710.27,161.93l0,9.06c-.42.09-.81.18-1.18.28l0-9.07,1.18-.27"/><path class="cls-34" d="M709.09,162.2l0,9.07c-.28.07-.54.15-.79.23v-9.06l.8-.24"/><path class="cls-33" d="M708.29,162.44v9.06l-.6.2,0-9.06c.19-.07.38-.14.59-.2"/><path class="cls-32" d="M707.7,162.64l0,9.06-.47.2v-9.06c.15-.07.31-.14.48-.2"/><path class="cls-31" d="M707.22,162.84v9.06l-.4.18,0-9.06.39-.18"/><path class="cls-30" d="M706.83,163l0,9.06-.33.19v-9.06l.34-.19"/><path class="cls-29" d="M706.49,163.21v9.06l-.29.18,0-9.06.28-.18"/><path class="cls-28" d="M706.21,163.39l0,9.06-.24.19,0-9.07.24-.18"/><path class="cls-27" d="M706,163.57l0,9.07-.2.18,0-9.06.2-.19"/><path class="cls-26" d="M705.77,163.76l0,9.06-.16.19,0-9.06c0-.06.1-.13.16-.19"/><path class="cls-25" d="M705.61,164l0,9.06-.12.2,0-9.06a1.06,1.06,0,0,1,.12-.2"/><path class="cls-24" d="M705.49,164.15l0,9.06a1.8,1.8,0,0,0-.08.21l0-9.06a.9.9,0,0,1,.08-.21"/><path class="cls-23" d="M705.41,164.36l0,9.06a.83.83,0,0,0,0,.22v-9.06a1.43,1.43,0,0,1,0-.22"/><path class="cls-22" d="M705.37,164.58v0"/></g></g></g><g class="cls-15"><g class="cls-76"><g class="cls-15"><path class="cls-54" d="M718.27,164.51l0,9.06a.52.52,0,0,0-.15-.06l0-9.06a.52.52,0,0,1,.15.06"/><path class="cls-58" d="M718.12,164.45l0,9.06-.08,0,0-9.07.08,0"/><path class="cls-59" d="M718,164.42l0,9.07-.06,0,0-9.06H718"/><path class="cls-60" d="M718,164.41l0,9.06h-.06l0-9.06H718"/><path class="cls-61" d="M717.92,164.4l0,9.06h-.06l0-9.06h.06"/><path class="cls-62" d="M717.86,164.39l0,9.06h-.05l0-9.06h.05"/><path class="cls-63" d="M717.81,164.38l0,9.06h-.06l0-9.06h.06"/><path class="cls-64" d="M717.75,164.37l0,9.06h-.05l0-9.06h0"/><path class="cls-65" d="M717.7,164.37l0,9.06h-.06l0-9.06h.06"/><path class="cls-66" d="M717.64,164.36l0,9.06h0v-9.06h.06"/><path class="cls-67" d="M717.58,164.36v9.06h-.06l0-9.06h.05"/><path class="cls-68" d="M717.53,164.36l0,9.06h-.06l0-9.06h.06"/><path class="cls-69" d="M717.47,164.35l0,9.06h-.05l0-9.06h.05"/><path class="cls-70" d="M717.42,164.35l0,9.06h-.06l0-9.06h.06"/><path class="cls-71" d="M717.36,164.35l0,9.06h-.06l0-9.06h.06"/><path class="cls-72" d="M717.3,164.35l0,9.06h-.06l0-9.07h.06"/><path class="cls-73" d="M717.24,164.35l0,9.07h-.08l0-9.06h.08"/><path class="cls-74" d="M717.16,164.36l0,9.06-.22,0-.16,0,0-9.06.15,0,.23,0"/><path class="cls-73" d="M716.78,164.41l0,9.06-.09,0v-9.06l.1,0"/><path class="cls-72" d="M716.68,164.43v9.06l-.07,0,0-9.06.06,0"/><path class="cls-71" d="M716.62,164.45l0,9.06-.05,0,0-9.07h0"/><path class="cls-70" d="M716.57,164.46l0,9.07h0l0-9.06,0,0"/><path class="cls-69" d="M716.53,164.48l0,9.06,0,0,0-9.06,0,0"/><path class="cls-68" d="M716.5,164.5l0,9.06h0l0-9.06h0"/><path class="cls-67" d="M716.47,164.51l0,9.06,0,0v-9.06l0,0"/><path class="cls-66" d="M716.44,164.53v9.06h0v-9.06h0"/><path class="cls-65" d="M716.42,164.54v9.06l0,0,0-9.06v0"/><path class="cls-64" d="M716.41,164.56l0,9.06h0v-9.06h0"/><path class="cls-63" d="M716.39,164.57v0"/><path class="cls-62" d="M716.38,164.59v9.08l0-9.06v0"/><path class="cls-61" d="M716.38,164.61l0,9.06v-9.06"/><polyline class="cls-60" points="716.37 164.63 716.36 173.69 716.36 173.69 716.37 164.63 716.37 164.63"/></g></g></g><g class="cls-15"><g class="cls-77"><g class="cls-15"><path class="cls-17" d="M718.25,173.57l0-9.06a.52.52,0,0,0-.15-.06l0,9.06a.52.52,0,0,1,.15.06"/><path class="cls-20" d="M718.1,173.51l0-9.06-.08,0,0,9.07.08,0"/><path class="cls-21" d="M718,173.49l0-9.07H718l0,9.06.06,0"/><path class="cls-22" d="M718,173.47l0-9.06h-.06l0,9.06H718"/><path class="cls-23" d="M717.9,173.46l0-9.06h-.06l0,9.06h.06"/><path class="cls-24" d="M717.84,173.45l0-9.06h-.05l0,9.06h.05"/><path class="cls-25" d="M717.79,173.44l0-9.06h-.06l0,9.06h.06"/><path class="cls-26" d="M717.73,173.43l0-9.06h0l0,9.06h.05"/><path class="cls-27" d="M717.68,173.43l0-9.06h-.06l0,9.06h.06"/><path class="cls-28" d="M717.62,173.42l0-9.06h-.06v9.06h0"/><path class="cls-29" d="M717.57,173.42v-9.06h-.05l0,9.06h.06"/><path class="cls-30" d="M717.51,173.42l0-9.06h-.06l0,9.06h.06"/><path class="cls-31" d="M717.45,173.41l0-9.06h-.05l0,9.06h.05"/><path class="cls-32" d="M717.4,173.41l0-9.06h-.06l0,9.06h.06"/><path class="cls-33" d="M717.34,173.41l0-9.06h-.06l0,9.06h.06"/><path class="cls-34" d="M717.28,173.41l0-9.06h-.06l0,9.07h.06"/><path class="cls-35" d="M717.22,173.42l0-9.07h-.08l0,9.06h.08"/><path class="cls-36" d="M717.14,173.42l0-9.06-.23,0-.15,0,0,9.06.16,0,.22,0"/><path class="cls-35" d="M716.76,173.47l0-9.06-.1,0v9.06l.09,0"/><path class="cls-34" d="M716.67,173.49v-9.06l-.06,0,0,9.06.07,0"/><path class="cls-33" d="M716.6,173.51l0-9.06h0l0,9.07.05,0"/><path class="cls-32" d="M716.55,173.53l0-9.07,0,0,0,9.06h0"/><path class="cls-31" d="M716.51,173.54l0-9.06,0,0,0,9.06,0,0"/><path class="cls-30" d="M716.48,173.56l0-9.06h0l0,9.06h0"/><path class="cls-29" d="M716.45,173.57l0-9.06,0,0v9.06l0,0"/><path class="cls-28" d="M716.43,173.59v-9.06h0v9.06h0"/><path class="cls-27" d="M716.41,173.6v-9l0,9.06,0,0"/><path class="cls-26" d="M716.39,173.62l0-9.06h0v9.06h0"/><path class="cls-25" d="M716.38,173.63v0"/><path class="cls-24" d="M716.37,173.65v-9l0,9.06v0"/><path class="cls-23" d="M716.36,173.67l0-9.06v9.06"/><polyline class="cls-22" points="716.36 173.69 716.37 164.63 716.37 164.63 716.36 173.69 716.36 173.69"/></g></g></g><g class="cls-15"><g class="cls-78"><g class="cls-15"><path class="cls-54" d="M716.37,164.63v9.06s0,.08.1.12l.15.07,0-9.07a.52.52,0,0,1-.15-.06c-.07,0-.11-.08-.11-.12"/><path class="cls-58" d="M716.63,164.81l0,9.07.08,0,0-9.06-.08,0"/><path class="cls-59" d="M716.71,164.84l0,9.06h.06l0-9.06h-.06"/><path class="cls-60" d="M716.77,164.85l0,9.06h.06l0-9.06h-.06"/><path class="cls-61" d="M716.83,164.86l0,9.06h.06l0-9.06h-.06"/><path class="cls-62" d="M716.89,164.87l0,9.06h0l0-9.06h-.05"/><path class="cls-63" d="M716.94,164.88l0,9.06H717l0-9.06h-.06"/><path class="cls-64" d="M717,164.89l0,9.06h0l0-9.06h0"/><path class="cls-65" d="M717.05,164.89l0,9.06h.06l0-9.06h-.06"/><path class="cls-66" d="M717.11,164.9l0,9.06h.06V164.9h0"/><path class="cls-67" d="M717.16,164.9V174h.05l0-9.06h-.06"/><path class="cls-68" d="M717.22,164.9l0,9.06h.06l0-9.06h-.06"/><path class="cls-69" d="M717.28,164.91l0,9.06h0l0-9.06h-.05"/><path class="cls-70" d="M717.33,164.91l0,9.06h.06l0-9.06h-.06"/><path class="cls-71" d="M717.39,164.91l0,9.06h.06l0-9.06h-.06"/><path class="cls-72" d="M717.45,164.91l0,9.06h.06l0-9.07h-.06"/><path class="cls-73" d="M717.51,164.9l0,9.07h.08l0-9.06h-.08"/><path class="cls-74" d="M717.59,164.9l0,9.06.23,0,.15,0,0-9.07-.16,0-.22,0"/><path class="cls-73" d="M718,164.85l0,9.07.1,0v-9.06l-.09,0"/><path class="cls-72" d="M718.06,164.83v9.06l.06,0,0-9.06-.07,0"/><path class="cls-71" d="M718.13,164.81l0,9.06h0l0-9.06h0"/><path class="cls-70" d="M718.18,164.8l0,9.06,0,0,0-9.06,0,0"/><path class="cls-69" d="M718.22,164.78l0,9.06,0,0,0-9.06,0,0"/><path class="cls-68" d="M718.25,164.76l0,9.06h0l0-9.06h0"/><path class="cls-67" d="M718.28,164.75l0,9.06,0,0v-9.06l0,0"/><path class="cls-66" d="M718.3,164.73v9.06h0v-9.06h0"/><path class="cls-65" d="M718.32,164.72v9l0-9.06,0,0"/><path class="cls-64" d="M718.34,164.7l0,9.06h0v-9.06h0"/><path class="cls-63" d="M718.35,164.69v0"/><path class="cls-62" d="M718.36,164.67v9l0-9.06v0"/><path class="cls-61" d="M718.37,164.65l0,9.06v-9.06"/><polyline class="cls-60" points="718.37 164.63 718.36 173.69 718.36 173.69 718.37 164.63 718.37 164.63"/></g></g></g><g class="cls-15"><g class="cls-79"><g class="cls-15"><path class="cls-17" d="M716.36,173.69v-9.06s0,.08.11.12a.52.52,0,0,0,.15.06l0,9.07-.15-.07c-.07,0-.1-.08-.1-.12"/><path class="cls-20" d="M716.61,173.88l0-9.07.08,0,0,9.06-.08,0"/><path class="cls-21" d="M716.69,173.9l0-9.06h.06l0,9.06h-.06"/><path class="cls-22" d="M716.75,173.91l0-9.06h.06l0,9.06h-.06"/><path class="cls-23" d="M716.81,173.92l0-9.06h.06l0,9.06h-.06"/><path class="cls-24" d="M716.87,173.93l0-9.06h.05l0,9.06h0"/><path class="cls-25" d="M716.92,173.94l0-9.06H717l0,9.06h-.06"/><path class="cls-26" d="M717,174l0-9.06h0l0,9.06h0"/><path class="cls-27" d="M717,174l0-9.06h.06l0,9.06H717"/><path class="cls-28" d="M717.09,174l0-9.06h0V174h-.06"/><path class="cls-29" d="M717.15,174V164.9h.06l0,9.06h-.05"/><path class="cls-30" d="M717.2,174l0-9.06h.06l0,9.06h-.06"/><path class="cls-31" d="M717.26,174l0-9.06h.05l0,9.06h0"/><path class="cls-32" d="M717.31,174l0-9.06h.06l0,9.06h-.06"/><path class="cls-33" d="M717.37,174l0-9.06h.06l0,9.06h-.06"/><path class="cls-34" d="M717.43,174l0-9.06h.06l0,9.07h-.06"/><path class="cls-35" d="M717.49,174l0-9.07h.08l0,9.06h-.08"/><path class="cls-36" d="M717.57,174l0-9.06.22,0,.16,0,0,9.07-.15,0-.23,0"/><path class="cls-35" d="M718,173.92l0-9.07.09,0v9.06l-.1,0"/><path class="cls-34" d="M718.05,173.89v-9.06l.07,0,0,9.06-.06,0"/><path class="cls-33" d="M718.11,173.87l0-9.06h0l0,9.06h0"/><path class="cls-32" d="M718.16,173.86l0-9.06,0,0,0,9.06,0,0"/><path class="cls-31" d="M718.2,173.84l0-9.06,0,0,0,9.06,0,0"/><path class="cls-30" d="M718.23,173.82l0-9.06h0l0,9.06h0"/><path class="cls-29" d="M718.26,173.81l0-9.06,0,0v9.06l0,0"/><path class="cls-28" d="M718.29,173.79v-9.06h0v9.06h0"/><path class="cls-27" d="M718.31,173.78v-9.06l0,0,0,9.06v0"/><path class="cls-26" d="M718.32,173.76l0-9.06h0v9.06h0"/><path class="cls-25" d="M718.34,173.75v0"/><path class="cls-24" d="M718.35,173.73v-9.08l0,9.06v0"/><path class="cls-23" d="M718.35,173.71l0-9.06v9.06"/><polyline class="cls-22" points="718.36 173.69 718.37 164.63 718.37 164.63 718.36 173.69 718.36 173.69"/></g></g></g><path class="cls-56" d="M728.15,163.18c2.91,1.66.45,3.65-5.49,4.45s-13.14.11-16.06-1.55-.46-3.65,5.49-4.45S725.23,161.52,728.15,163.18Zm-9.88,1.33a2.58,2.58,0,0,0-1.34-.13c-.49.07-.7.23-.45.37a2.55,2.55,0,0,0,1.33.13c.5-.07.7-.23.46-.37"/><path class="cls-18" d="M728.15,163.18c2.91,1.66.45,3.65-5.49,4.45s-13.14.11-16.06-1.55-.46-3.65,5.49-4.45S725.23,161.52,728.15,163.18Zm-9.88,1.33a2.58,2.58,0,0,0-1.34-.13c-.49.07-.7.23-.45.37a2.55,2.55,0,0,0,1.33.13c.5-.07.7-.23.46-.37"/><g class="cls-15"><g class="cls-80"><g class="cls-15"><path class="cls-54" d="M705.36,173.67v-9.06c0,.49.4,1,1.23,1.47a10,10,0,0,0,1.86.77l0,9.06a10.66,10.66,0,0,1-1.86-.77c-.83-.47-1.22-1-1.22-1.47"/><path class="cls-58" d="M708.44,175.91l0-9.06.89.25v9.06l-.9-.25"/><path class="cls-59" d="M709.34,176.16V167.1l.77.17v9.06l-.77-.17"/><path class="cls-60" d="M710.11,176.33v-9.06l.71.14,0,9.06-.7-.14"/><path class="cls-61" d="M710.81,176.47l0-9.06.68.12v9.06l-.69-.12"/><path class="cls-62" d="M711.5,176.59v-9.06l.67.09,0,9.07-.66-.1"/><path class="cls-63" d="M712.16,176.69l0-9.07.66.09v9.06l-.67-.08"/><path class="cls-64" d="M712.83,176.77v-9.06l.67.07,0,9.06-.66-.07"/><path class="cls-65" d="M713.49,176.84l0-9.06.66.06,0,9.06-.66-.06"/><path class="cls-66" d="M714.15,176.9l0-9.06.67,0,0,9.06-.67,0"/><path class="cls-67" d="M714.82,176.94l0-9.06.68,0,0,9.06-.68,0"/><path class="cls-68" d="M715.5,177l0-9.06.67,0V177l-.68,0"/><path class="cls-69" d="M716.18,177v-9.06l.68,0,0,9.06-.67,0"/><path class="cls-70" d="M716.85,177l0-9.06h.69l0,9.06h-.69"/><path class="cls-71" d="M717.54,177l0-9.06h.71l0,9.07h-.71"/><path class="cls-72" d="M718.25,177l0-9.07.76,0,0,9.06-.76,0"/><path class="cls-73" d="M719,177l0-9.06.94,0,0,9.06-.94,0"/><path class="cls-74" d="M720,177l0-9.06c.91-.06,1.81-.14,2.69-.26.65-.09,1.26-.19,1.82-.3l0,9.06c-.56.11-1.17.21-1.82.3-.88.12-1.78.2-2.69.26"/><path class="cls-73" d="M724.46,176.39l0-9.06,1.18-.27,0,9.06-1.18.27"/><path class="cls-72" d="M725.64,176.12l0-9.06.79-.24v9.07l-.8.23"/><path class="cls-71" d="M726.44,175.89v-9.07l.6-.2,0,9.06-.59.21"/><path class="cls-70" d="M727,175.68l0-9.06.48-.2,0,9.06c-.15.07-.31.14-.48.2"/><path class="cls-69" d="M727.51,175.48l0-9.06.39-.18,0,9.06-.39.18"/><path class="cls-68" d="M727.9,175.3l0-9.06a2.59,2.59,0,0,0,.33-.19v9.06l-.34.19"/><path class="cls-67" d="M728.24,175.11v-9.06l.29-.18,0,9.06-.28.18"/><path class="cls-66" d="M728.52,174.93l0-9.06.24-.19,0,9.07-.24.18"/><path class="cls-65" d="M728.76,174.75l0-9.07.2-.18,0,9.06-.2.19"/><path class="cls-64" d="M729,174.56l0-9.06.16-.19,0,9.06c0,.06-.1.13-.16.19"/><path class="cls-63" d="M729.12,174.37l0-9.06.12-.2,0,9.06a1.06,1.06,0,0,1-.12.2"/><path class="cls-62" d="M729.24,174.17l0-9.06a1.8,1.8,0,0,0,.08-.21l0,9.06a.9.9,0,0,1-.08.21"/><path class="cls-61" d="M729.32,174l0-9.06a.83.83,0,0,0,0-.22v9.06a1.43,1.43,0,0,1,0,.22"/><path class="cls-60" d="M729.36,173.74v0"/></g></g></g><g class="cls-15"><g class="cls-81"><g class="cls-15"><path class="cls-17" d="M705.37,164.61v9.06c0,.49.39,1,1.22,1.47a10.66,10.66,0,0,0,1.86.77l0-9.06a10,10,0,0,1-1.86-.77c-.83-.48-1.23-1-1.23-1.47"/><path class="cls-20" d="M708.46,166.85l0,9.06.9.25V167.1l-.89-.25"/><path class="cls-21" d="M709.35,167.1v9.06l.77.17v-9.06l-.77-.17"/><path class="cls-22" d="M710.12,167.27v9.06l.7.14,0-9.06-.71-.14"/><path class="cls-23" d="M710.83,167.41l0,9.06.69.12v-9.06l-.68-.12"/><path class="cls-24" d="M711.51,167.53v9.06l.66.1,0-9.07-.67-.09"/><path class="cls-25" d="M712.18,167.62l0,9.07.67.08v-9.06l-.66-.09"/><path class="cls-26" d="M712.84,167.71v9.06l.66.07,0-9.06-.67-.07"/><path class="cls-27" d="M713.51,167.78l0,9.06.66.06,0-9.06-.66-.06"/><path class="cls-28" d="M714.17,167.84l0,9.06.67,0,0-9.06-.67,0"/><path class="cls-29" d="M714.84,167.88l0,9.06.68,0,0-9.06-.68,0"/><path class="cls-30" d="M715.52,167.92l0,9.06.68,0v-9.06l-.67,0"/><path class="cls-31" d="M716.19,167.94V177l.67,0,0-9.06-.68,0"/><path class="cls-32" d="M716.87,168l0,9.06h.69l0-9.06h-.69"/><path class="cls-33" d="M717.56,168l0,9.06h.71l0-9.07h-.71"/><path class="cls-34" d="M718.27,168l0,9.07.76,0,0-9.06-.76,0"/><path class="cls-35" d="M719,167.93l0,9.06.94,0,0-9.06-.94,0"/><path class="cls-36" d="M720,167.89l0,9.06c.91-.06,1.81-.14,2.69-.26.65-.09,1.26-.19,1.82-.3l0-9.06c-.56.11-1.17.21-1.82.3-.88.12-1.78.2-2.69.26"/><path class="cls-35" d="M724.48,167.33l0,9.06,1.18-.27,0-9.06-1.18.27"/><path class="cls-34" d="M725.66,167.06l0,9.06.8-.23v-9.07l-.79.24"/><path class="cls-33" d="M726.45,166.82v9.07l.59-.21,0-9.06-.6.2"/><path class="cls-32" d="M727.05,166.62l0,9.06c.17-.06.33-.13.48-.2l0-9.06-.48.2"/><path class="cls-31" d="M727.53,166.42l0,9.06.39-.18,0-9.06-.39.18"/><path class="cls-30" d="M727.92,166.24l0,9.06.34-.19v-9.06a2.59,2.59,0,0,1-.33.19"/><path class="cls-29" d="M728.25,166.05v9.06l.28-.18,0-9.06-.29.18"/><path class="cls-28" d="M728.54,165.87l0,9.06.24-.18,0-9.07-.24.19"/><path class="cls-27" d="M728.78,165.68l0,9.07.2-.19,0-9.06-.2.18"/><path class="cls-26" d="M729,165.5l0,9.06c.06-.06.11-.13.16-.19l0-9.06-.16.19"/><path class="cls-25" d="M729.14,165.31l0,9.06a1.06,1.06,0,0,0,.12-.2l0-9.06-.12.2"/><path class="cls-24" d="M729.26,165.11l0,9.06a.9.9,0,0,0,.08-.21l0-9.06a1.8,1.8,0,0,1-.08.21"/><path class="cls-23" d="M729.34,164.9l0,9.06a1.43,1.43,0,0,0,0-.22v-9.06a.83.83,0,0,1,0,.22"/><path class="cls-22" d="M729.37,164.68v0"/></g></g></g><g class="cls-15"><g class="cls-82"><g class="cls-15"><path class="cls-17" d="M704.38,163.65l0,11c0,.53.42,1.07,1.33,1.59a9.83,9.83,0,0,0,2,.83l0-11a9.83,9.83,0,0,1-2-.83c-.91-.51-1.33-1.06-1.33-1.59"/><path class="cls-20" d="M707.72,166.07l0,11c.31.1.63.19,1,.27l0-11c-.34-.08-.66-.17-1-.27"/><path class="cls-21" d="M708.69,166.34l0,11,.83.19,0-11-.83-.19"/><path class="cls-22" d="M709.52,166.53l0,11c.25.06.51.11.77.15l0-11c-.26,0-.52-.09-.77-.15"/><path class="cls-23" d="M710.29,166.68l0,11,.74.13,0-11-.74-.13"/><path class="cls-24" d="M711,166.81l0,11,.72.1,0-11-.72-.1"/><path class="cls-25" d="M711.75,166.91l0,11,.72.09,0-11-.72-.09"/><path class="cls-26" d="M712.47,167l0,11,.72.08,0-11-.72-.08"/><path class="cls-27" d="M713.19,167.08l0,11,.72.06,0-11-.72-.06"/><path class="cls-28" d="M713.91,167.14l0,11,.72.05,0-11-.72-.05"/><path class="cls-29" d="M714.63,167.19l0,11,.73,0,0-11-.73,0"/><path class="cls-30" d="M715.36,167.23l0,11,.74,0,0-11-.74,0"/><path class="cls-31" d="M716.1,167.26l0,11,.73,0,0-11-.73,0"/><path class="cls-32" d="M716.83,167.28l0,11h.74l0-11h-.74"/><path class="cls-33" d="M717.57,167.28l0,11h.77l0-11h-.77"/><path class="cls-34" d="M718.34,167.27l0,11,.83,0,0-11-.83,0"/><path class="cls-35" d="M719.17,167.25l0,11,1-.05,0-11-1,.05"/><path class="cls-36" d="M720.18,167.2l0,11c1-.06,2-.15,2.92-.28.7-.1,1.36-.21,2-.33l0-11c-.61.13-1.27.24-2,.33-1,.13-1.93.22-2.92.28"/><path class="cls-35" d="M725.07,166.59l0,11c.45-.09.88-.19,1.28-.29l0-11c-.4.1-.82.2-1.28.29"/><path class="cls-34" d="M726.35,166.3l0,11,.86-.25,0-11-.86.25"/><path class="cls-33" d="M727.21,166.05l0,11,.64-.23,0-11c-.2.08-.41.16-.64.23"/><path class="cls-32" d="M727.85,165.82l0,11,.52-.21,0-11a3.52,3.52,0,0,1-.52.21"/><path class="cls-31" d="M728.37,165.61l0,11,.43-.2,0-11-.43.2"/><path class="cls-30" d="M728.8,165.41l0,11,.36-.2,0-11a3.07,3.07,0,0,1-.36.2"/><path class="cls-29" d="M729.16,165.21l0,11a3.28,3.28,0,0,0,.31-.2l0-11a3.28,3.28,0,0,1-.31.2"/><path class="cls-28" d="M729.47,165l0,11,.26-.2,0-11-.26.2"/><path class="cls-27" d="M729.73,164.81l0,11a2,2,0,0,0,.21-.2l0-11a1.34,1.34,0,0,1-.21.2"/><path class="cls-26" d="M729.94,164.61l0,11a1.68,1.68,0,0,0,.18-.21l0-11a1.68,1.68,0,0,1-.18.21"/><path class="cls-25" d="M730.12,164.4l0,11a2.39,2.39,0,0,0,.13-.21l0-11a2.39,2.39,0,0,1-.13.21"/><path class="cls-24" d="M730.25,164.19l0,11a1.09,1.09,0,0,0,.09-.23l0-11a1.09,1.09,0,0,1-.09.23"/><path class="cls-23" d="M730.34,164l0,11a1,1,0,0,0,0-.24l0-11a.91.91,0,0,1,0,.23"/><path class="cls-22" d="M730.37,163.73l0,11v0l0-11v0"/></g></g></g><ellipse class="cls-18" cx="717.38" cy="163.67" rx="3.61" ry="13" transform="translate(552.37 880.74) rotate(-89.89)"/></g><circle class="cls-83" cx="413.81" cy="184.69" r="15.25"/><ellipse class="cls-83" cx="414.36" cy="184.69" rx="6.93" ry="15.25"/><path class="cls-83" d="M398.56,184.69h0Z"/><path class="cls-83" d="M404.75,172.37a16.23,16.23,0,0,0,18.21.4"/><path class="cls-83" d="M404.75,197a16.23,16.23,0,0,1,18.21-.4"/><path class="cls-83" d="M414.36,169.44l-.55,30.5Z"/><path class="cls-84" d="M479.56,119c0-2.17-2.22-3.93-4.95-3.93s-5,1.76-5,3.93a3.8,3.8,0,0,0,2.2,3.27v5h5.73v-5.11A3.73,3.73,0,0,0,479.56,119Z"/><rect class="cls-11" x="305.38" y="147.94" width="10.27" height="2.41" rx="0.35"/><path class="cls-7" d="M578.22,332.32a2.25,2.25,0,0,0,.7.61,1.82,1.82,0,0,0,.88.22h3a.66.66,0,0,1,.55.27,1.18,1.18,0,0,1,0,1.37.64.64,0,0,1-.55.28h-4.5v1.87h4.5a1.8,1.8,0,0,0,.88-.22,2.3,2.3,0,0,0,.72-.61,3.22,3.22,0,0,0,.48-.9,3.51,3.51,0,0,0,0-2.22,3,3,0,0,0-.48-.89,2.27,2.27,0,0,0-.72-.6,1.81,1.81,0,0,0-.88-.23h-3a.63.63,0,0,1-.53-.28,1.07,1.07,0,0,1-.22-.68,1,1,0,0,1,.22-.68.65.65,0,0,1,.53-.27h4.66v-1a1,1,0,0,0-1.05-.92H579.8a1.82,1.82,0,0,0-.88.22,2.35,2.35,0,0,0-.7.6,3.09,3.09,0,0,0-.48.9,3.68,3.68,0,0,0,0,2.21A3.15,3.15,0,0,0,578.22,332.32Z"/><path class="cls-4" d="M581.56,325.94v0Z"/><path class="cls-85" d="M612.05,118.5a26.4,26.4,0,0,1,34.94,0"/><path class="cls-85" d="M617.82,124.5a18.19,18.19,0,0,1,24.06,0"/><path class="cls-85" d="M623.11,131.5a10.69,10.69,0,0,1,14.15,0"/><ellipse class="cls-85" cx="630" cy="139" rx="2" ry="1.5"/></g></svg>