<svg xmlns="http://www.w3.org/2000/svg" viewBox="0 0 189 207"><defs><style>.cls-1{fill:#cc1a57;}.cls-2{fill:#ca2027;}.cls-3{fill:#f58432;}.cls-4{fill:#1b88c9;}.cls-5{fill:#2e6ab3;}.cls-6{fill:#90268e;}.cls-7{fill:#262161;}</style></defs><g id="레이어_2" data-name="레이어 2"><path class="cls-1" d="M85.49,23.29,99.59,50.5A12.26,12.26,0,0,0,107,56.71a11.36,11.36,0,0,0,9.29-1.13L141.6,40.42c5.85-3.51,8-11.44,4.71-17.73s-10.66-8.53-16.51-5L115,26.53,106.7,10.61c-3.26-6.29-10.66-8.54-16.51-5s-8,11.44-4.7,17.72"/><path class="cls-2" d="M143.31,48.38,133,77.46a13.84,13.84,0,0,0,.3,10,12.48,12.48,0,0,0,6.8,6.9l27.14,11.06c6.27,2.54,13.29-.82,15.69-7.55s-.76-14.24-7-16.78L160,74.64l6.05-17c2.39-6.72-.76-14.23-7-16.78s-13.3.82-15.69,7.54"/><path class="cls-3" d="M168.3,110.64l-27.61,9.64a12.41,12.41,0,0,0-7.09,6.56,13.8,13.8,0,0,0-.74,10l9,29.57c2.1,6.82,9,10.57,15.34,8.34s9.84-9.58,7.76-16.41L159.69,141l16.17-5.65c6.38-2.22,9.86-9.57,7.77-16.4s-9-10.57-15.33-8.34"/><path class="cls-4" d="M137.4,171.66,114.32,152.8a11.5,11.5,0,0,0-9.06-2.54,12,12,0,0,0-8.12,5L79.59,180.08a13.68,13.68,0,0,0,2.32,18.26,11.59,11.59,0,0,0,17-2.48l10.28-14.51,13.53,11.05a11.58,11.58,0,0,0,17-2.48,13.66,13.66,0,0,0-2.31-18.26"/><path class="cls-5" d="M73.5,179.62V148.5a13.47,13.47,0,0,0-3.62-9.27,11.68,11.68,0,0,0-8.65-3.85l-29,.07c-6.72,0-12.16,5.85-12.14,13s5.44,13,12.15,13l17,0v18.21c0,7.2,5.45,13,12.15,13s12.15-5.85,12.14-13"/><path class="cls-6" d="M32,62.36,60.49,68a11.42,11.42,0,0,0,9.15-2.13,12.94,12.94,0,0,0,5.11-8.4L80,26.9c1.21-7.07-3.14-13.88-9.75-15.17S57.33,15.09,56.12,22.15L53.05,40.08,36.34,36.76c-6.6-1.31-12.93,3.36-14.14,10.43S25.35,61.06,32,62.36"/><path class="cls-7" d="M24.65,132.78l22.69-19.41a13.23,13.23,0,0,0,4.5-8.8,13.58,13.58,0,0,0-2.58-9.65L31.12,70.62a11.62,11.62,0,0,0-17.09-2,13.64,13.64,0,0,0-1.9,18.28l10.62,14.23L9.47,112.45a13.63,13.63,0,0,0-1.91,18.28A11.62,11.62,0,0,0,24.65,132.78Z"/></g></svg>