<svg xmlns="http://www.w3.org/2000/svg" xmlns:xlink="http://www.w3.org/1999/xlink" viewBox="0 0 759 548"><defs><style>.cls-1{fill:#b2b2b2;}.cls-1,.cls-22,.cls-23,.cls-24,.cls-25,.cls-28,.cls-29{opacity:0.86;}.cls-2,.cls-8{opacity:0.43;}.cls-3{fill:#999;}.cls-16,.cls-20,.cls-29,.cls-4,.cls-42,.cls-43,.cls-49,.cls-50,.cls-52,.cls-55,.cls-56,.cls-61,.cls-64,.cls-68,.cls-8,.cls-9{fill:none;}.cls-10,.cls-11,.cls-16,.cls-17,.cls-18,.cls-4,.cls-8,.cls-9{stroke:#999;}.cls-10,.cls-11,.cls-16,.cls-17,.cls-18,.cls-20,.cls-25,.cls-29,.cls-4,.cls-42,.cls-43,.cls-47,.cls-49,.cls-50,.cls-52,.cls-55,.cls-56,.cls-57,.cls-58,.cls-59,.cls-61,.cls-62,.cls-64,.cls-68,.cls-70,.cls-71,.cls-72,.cls-8,.cls-9{stroke-miterlimit:10;}.cls-14,.cls-5{fill:#ffec7d;}.cls-12,.cls-13,.cls-20,.cls-21,.cls-5,.cls-6{opacity:0.68;}.cls-6,.cls-65{fill:#faa214;}.cls-7{fill:#97b3ff;}.cls-10,.cls-11,.cls-9{opacity:0.42;}.cls-10,.cls-17,.cls-21,.cls-25,.cls-27,.cls-47,.cls-57,.cls-58,.cls-63{fill:#fff;}.cls-11,.cls-18{fill:#a1504d;}.cls-12{fill:#504b48;}.cls-15,.cls-16,.cls-17{opacity:0.58;}.cls-19{opacity:0.18;}.cls-20,.cls-25,.cls-29,.cls-42,.cls-43,.cls-47,.cls-49,.cls-50,.cls-57,.cls-58,.cls-64,.cls-68,.cls-70,.cls-71,.cls-72{stroke:#000;}.cls-22{fill:#e9e9eb;}.cls-23{fill:#939393;}.cls-24{fill:url(#무제_그라디언트_14);}.cls-25,.cls-49,.cls-58,.cls-70,.cls-71,.cls-72{stroke-width:0.25px;}.cls-26{fill:#ff6160;}.cls-26,.cls-27{opacity:0.33;}.cls-28{fill:#bfced8;}.cls-30{fill:#301f66;}.cls-30,.cls-44{opacity:0.03;}.cls-31{fill:#cedeff;}.cls-32{fill:#e5be25;}.cls-33{fill:#cea610;}.cls-34{fill:#2f8bde;}.cls-35{fill:#1f7bce;}.cls-36{fill:#e47524;}.cls-37{fill:#cd5e17;}.cls-38{fill:#496aa0;}.cls-39{fill:#3b5b8e;}.cls-40{fill:#e12f2f;}.cls-41{fill:#c71d1d;}.cls-42,.cls-43{stroke-width:5px;}.cls-43{stroke-dasharray:11.9 11.9;}.cls-45{fill:#31343b;}.cls-46{fill:#58585e;}.cls-48{fill:#73737a;}.cls-51{fill:#1a2f64;}.cls-52{stroke:#1a2f64;}.cls-53{fill:#df3051;}.cls-54{fill:#727279;}.cls-55{stroke:#4d7bd4;}.cls-55,.cls-56{stroke-width:3px;}.cls-56,.cls-62{stroke:#fff;}.cls-57,.cls-68{stroke-width:0.5px;}.cls-59{fill:#231608;}.cls-59,.cls-61{stroke:#231608;}.cls-60{fill:#eff6ff;}.cls-64{stroke-width:2px;}.cls-66{fill:#dfa95f;}.cls-67{fill:#fad495;}.cls-69{opacity:0.53;}.cls-70{fill:#80d85b;}.cls-71{fill:#c9a673;opacity:0.74;}.cls-72{fill:#563719;}.cls-73{fill:#4d7bd4;}.cls-74{fill:#333;}.cls-75{fill:#c7dff9;}.cls-76{fill:#f72b2b;}.cls-77{fill:#5294ff;}.cls-78{fill:#ff0;}</style><linearGradient id="무제_그라디언트_14" x1="144.67" y1="153.94" x2="270.67" y2="153.94" gradientUnits="userSpaceOnUse"><stop offset="0.65" stop-color="#fff"/><stop offset="1" stop-color="#b3b3b3"/></linearGradient></defs><g id="레이어_9" data-name="레이어 9"><path class="cls-1" d="M190.61,102.94h0a2.56,2.56,0,0,1,2.56,2.56v17.44a0,0,0,0,1,0,0h-5a0,0,0,0,1,0,0V105.38a2.44,2.44,0,0,1,2.44-2.44Z"/><g class="cls-2"><path class="cls-3" d="M699.37,43.71V69.35H673.05V43.71h26.32m.89-1H672.15a.1.1,0,0,0-.1.1V70.25a.09.09,0,0,0,.1.1h28.11a.1.1,0,0,0,.11-.1V42.81a.11.11,0,0,0-.11-.1Z"/><path class="cls-4" d="M672.76,43.5l26.9,26.06Z"/><path class="cls-4" d="M699.66,43.5l-27,26.15Z"/><path class="cls-3" d="M699.37,70.56V96.2H673.05V70.56h26.32m.89-1H672.15a.1.1,0,0,0-.1.1V97.1a.09.09,0,0,0,.1.1h28.11a.1.1,0,0,0,.11-.1V69.66a.11.11,0,0,0-.11-.1Z"/><path class="cls-4" d="M672.76,70.35l26.9,26.06Z"/><path class="cls-4" d="M699.66,70.35l-27,26.15Z"/><path class="cls-3" d="M699.37,97.41v25.65H673.05V97.41h26.32m.89-1H672.15a.1.1,0,0,0-.1.11V124a.1.1,0,0,0,.1.1h28.11a.11.11,0,0,0,.11-.1V96.52a.11.11,0,0,0-.11-.11Z"/><path class="cls-4" d="M672.76,97.2l26.9,26.07Z"/><path class="cls-4" d="M699.66,97.2l-27,26.16Z"/><path class="cls-3" d="M699.37,124.27v25.64H673.05V124.27h26.32m.89-1H672.15a.09.09,0,0,0-.1.1v27.44a.1.1,0,0,0,.1.1h28.11a.11.11,0,0,0,.11-.1V123.37a.1.1,0,0,0-.11-.1Z"/><path class="cls-4" d="M672.76,124.06l26.9,26.06Z"/><path class="cls-4" d="M699.66,124.06l-27,26.15Z"/></g><g class="cls-2"><path class="cls-3" d="M699.37,151.12v25.64H673.05V151.12h26.32m.89-1H672.15a.1.1,0,0,0-.1.1v27.44a.09.09,0,0,0,.1.1h28.11a.1.1,0,0,0,.11-.1V150.22a.11.11,0,0,0-.11-.1Z"/><path class="cls-4" d="M672.76,150.91,699.66,177Z"/><path class="cls-4" d="M699.66,150.91l-27,26.15Z"/><path class="cls-3" d="M699.37,178v25.65H673.05V178h26.32m.89-1H672.15a.1.1,0,0,0-.1.1v27.44a.1.1,0,0,0,.1.11h28.11a.11.11,0,0,0,.11-.11V177.07a.11.11,0,0,0-.11-.1Z"/><path class="cls-4" d="M672.76,177.76l26.9,26.07Z"/><path class="cls-4" d="M699.66,177.76l-27,26.15Z"/><path class="cls-3" d="M699.37,204.83v25.64H673.05V204.83h26.32m.89-1H672.15a.09.09,0,0,0-.1.1v27.44a.1.1,0,0,0,.1.1h28.11a.11.11,0,0,0,.11-.1V203.93a.1.1,0,0,0-.11-.1Z"/><path class="cls-4" d="M672.76,204.62l26.9,26.06Z"/><path class="cls-4" d="M699.66,204.62l-27,26.15Z"/><path class="cls-3" d="M699.37,258.53v25.64H673.05V258.53h26.32m.89-1H672.15a.1.1,0,0,0-.1.1v27.44a.09.09,0,0,0,.1.1h28.11a.1.1,0,0,0,.11-.1V257.63a.11.11,0,0,0-.11-.1Z"/><path class="cls-4" d="M672.76,258.32l26.9,26.06Z"/><path class="cls-4" d="M699.66,258.32l-27,26.15Z"/><path class="cls-3" d="M699.37,285.38V311H673.05V285.38h26.32m.89-1H672.15a.1.1,0,0,0-.1.11v27.43a.1.1,0,0,0,.1.11h28.11a.11.11,0,0,0,.11-.11V284.49a.11.11,0,0,0-.11-.11Z"/><path class="cls-4" d="M672.76,285.17l26.9,26.07Z"/><path class="cls-4" d="M699.66,285.17l-27,26.15Z"/><path class="cls-3" d="M699.37,231.68v25.64H673.05V231.68h26.32m.89-1H672.15a.09.09,0,0,0-.1.1v27.44a.1.1,0,0,0,.1.1h28.11a.11.11,0,0,0,.11-.1V230.78a.1.1,0,0,0-.11-.1Z"/><path class="cls-4" d="M672.76,231.47l26.9,26.06Z"/><path class="cls-4" d="M699.66,231.47l-27,26.15Z"/></g><rect class="cls-5" x="642.38" y="311.6" width="98.09" height="15.65"/><rect class="cls-6" x="722.28" y="311.6" width="18.19" height="15.65"/><ellipse cx="657.81" cy="335.72" rx="8.31" ry="8.88"/><ellipse class="cls-7" cx="657.81" cy="335.72" rx="3.56" ry="3.81"/><ellipse cx="707.64" cy="335.72" rx="8.31" ry="8.88"/><ellipse class="cls-7" cx="707.64" cy="335.72" rx="3.56" ry="3.81"/><path class="cls-8" d="M686.16,23.67l-13.83,19a.27.27,0,0,0,.22.43h27.66a.27.27,0,0,0,.23-.43l-13.83-19A.27.27,0,0,0,686.16,23.67Z"/><path class="cls-8" d="M686.36,23.49l.07,19.22Z"/><polygon class="cls-8" points="672.63 56.91 596.7 56.91 672.44 85.26 672.63 56.91"/><g class="cls-2"><path class="cls-4" d="M672.63,85.22,661.15,57.83c-.21-.5-.61-.53-.9-.06L649.42,75.65c-.28.47-.67.43-.86-.08l-6.43-17.72a.58.58,0,0,0-1-.22l-10.48,10.9a.59.59,0,0,1-1.05-.21l-4-10.48a.7.7,0,0,0-1.15-.32l-7.91,6a.83.83,0,0,1-1.27-.27l-3-5.5a1.14,1.14,0,0,0-1.4-.5l-6.19,2.52"/></g><rect class="cls-9" x="593.34" y="61.06" width="7.12" height="11.08" transform="translate(1193.8 133.2) rotate(-180)"/><ellipse class="cls-10" cx="596.9" cy="60.64" rx="3.56" ry="3.73"/><rect class="cls-11" x="595.73" y="76.76" width="2.3" height="3" transform="translate(1193.77 156.51) rotate(-180)"/><ellipse class="cls-10" cx="596.9" cy="73.06" rx="3.56" ry="3.73"/><ellipse class="cls-9" cx="596.5" cy="84.83" rx="4.75" ry="5.08"/><rect class="cls-10" x="588.27" y="81.03" width="4.84" height="6.84" transform="translate(1181.38 168.89) rotate(-180)"/><rect class="cls-12" x="539.89" y="115.6" width="109.47" height="11.84" transform="translate(1189.25 243.04) rotate(-180)"/><path class="cls-9" d="M596.5,89.91l0,8Z"/><path class="cls-9" d="M649.73,116l-53.28-18Z"/><path class="cls-9" d="M540.26,115.23l56.19-17.29Z"/><g class="cls-13"><circle class="cls-14" cx="641.96" cy="121.52" r="2.96"/><circle class="cls-14" cx="628.65" cy="121.52" r="2.96"/><circle class="cls-14" cx="615.34" cy="121.52" r="2.96"/><circle class="cls-14" cx="602.02" cy="121.52" r="2.96"/></g><g class="cls-13"><circle class="cls-14" cx="588.71" cy="121.52" r="2.96"/><circle class="cls-14" cx="575.39" cy="121.52" r="2.96"/><circle class="cls-14" cx="562.08" cy="121.52" r="2.96"/><circle class="cls-14" cx="548.77" cy="121.52" r="2.96"/></g><g class="cls-15"><path class="cls-3" d="M388.9,24.37V51.76H362.58V24.37H388.9m.9-1H361.68a.11.11,0,0,0-.1.1V52.66a.1.1,0,0,0,.1.1H389.8a.1.1,0,0,0,.1-.1V23.47a.11.11,0,0,0-.1-.1Z"/><path class="cls-4" d="M389.19,24.21l-26.9,27.71Z"/><path class="cls-4" d="M362.29,24.21l27,27.81Z"/><path class="cls-3" d="M388.9,52.92v27.4H362.58V52.92H388.9m.9-1H361.68a.11.11,0,0,0-.1.11V81.21a.11.11,0,0,0,.1.11H389.8a.11.11,0,0,0,.1-.11V52a.11.11,0,0,0-.1-.11Z"/><path class="cls-4" d="M389.19,52.76l-26.9,27.72Z"/><path class="cls-4" d="M362.29,52.76l27,27.81Z"/><path class="cls-3" d="M388.9,81.48v27.39H362.58V81.48H388.9m.9-1H361.68a.1.1,0,0,0-.1.1v29.19a.11.11,0,0,0,.1.1H389.8a.11.11,0,0,0,.1-.1V80.58a.1.1,0,0,0-.1-.1Z"/><path class="cls-4" d="M389.19,81.32,362.29,109Z"/><path class="cls-4" d="M362.29,81.32l27,27.8Z"/><path class="cls-3" d="M388.9,110v27.39H362.58V110H388.9m.9-1H361.68a.1.1,0,0,0-.1.1v29.19a.1.1,0,0,0,.1.1H389.8a.1.1,0,0,0,.1-.1V109.13a.1.1,0,0,0-.1-.1Z"/><path class="cls-4" d="M389.19,109.87l-26.9,27.71Z"/><path class="cls-4" d="M362.29,109.87l27,27.81Z"/></g><g class="cls-15"><path class="cls-3" d="M388.9,138.58V166H362.58V138.58H388.9m.9-1H361.68a.11.11,0,0,0-.1.1v29.19a.1.1,0,0,0,.1.1H389.8a.1.1,0,0,0,.1-.1V137.68a.11.11,0,0,0-.1-.1Z"/><path class="cls-4" d="M389.19,138.42l-26.9,27.71Z"/><path class="cls-4" d="M362.29,138.42l27,27.81Z"/><path class="cls-3" d="M388.9,167.13v27.4H362.58v-27.4H388.9m.9-1H361.68a.11.11,0,0,0-.1.11v29.19a.11.11,0,0,0,.1.1H389.8a.11.11,0,0,0,.1-.1V166.24a.11.11,0,0,0-.1-.11Z"/><path class="cls-4" d="M389.19,167l-26.9,27.72Z"/><path class="cls-4" d="M362.29,167l27,27.81Z"/><path class="cls-3" d="M388.9,195.69v27.39H362.58V195.69H388.9m.9-1H361.68a.1.1,0,0,0-.1.1V224a.11.11,0,0,0,.1.1H389.8a.11.11,0,0,0,.1-.1V194.79a.1.1,0,0,0-.1-.1Z"/><path class="cls-4" d="M389.19,195.53l-26.9,27.71Z"/><path class="cls-4" d="M362.29,195.53l27,27.8Z"/><path class="cls-3" d="M388.9,252.79v27.4H362.58v-27.4H388.9m.9-1H361.68a.11.11,0,0,0-.1.1v29.19a.11.11,0,0,0,.1.11H389.8a.11.11,0,0,0,.1-.11V251.89a.11.11,0,0,0-.1-.1Z"/><path class="cls-4" d="M389.19,252.63l-26.9,27.72Z"/><path class="cls-4" d="M362.29,252.63l27,27.81Z"/><path class="cls-3" d="M388.9,281.35v27.39H362.58V281.35H388.9m.9-1H361.68a.1.1,0,0,0-.1.1v29.19a.11.11,0,0,0,.1.1H389.8a.11.11,0,0,0,.1-.1V280.45a.1.1,0,0,0-.1-.1Z"/><path class="cls-4" d="M389.19,281.19l-26.9,27.71Z"/><path class="cls-4" d="M362.29,281.19l27,27.8Z"/><path class="cls-3" d="M388.9,224.24v27.39H362.58V224.24H388.9m.9-1H361.68a.11.11,0,0,0-.1.1v29.19a.1.1,0,0,0,.1.1H389.8a.1.1,0,0,0,.1-.1V223.34a.11.11,0,0,0-.1-.1Z"/><path class="cls-4" d="M389.19,224.08l-26.9,27.71Z"/><path class="cls-4" d="M362.29,224.08l27,27.81Z"/></g><rect class="cls-5" x="321.47" y="309.29" width="98.09" height="16.64" transform="translate(741.04 635.22) rotate(-180)"/><rect class="cls-6" x="321.47" y="309.29" width="18.19" height="16.64" transform="translate(661.14 635.22) rotate(-180)"/><ellipse cx="404.14" cy="334.93" rx="8.31" ry="9.45"/><ellipse class="cls-7" cx="404.14" cy="334.93" rx="3.56" ry="4.05"/><ellipse cx="354.3" cy="334.93" rx="8.31" ry="9.45"/><ellipse class="cls-7" cx="354.3" cy="334.93" rx="3.56" ry="4.05"/><path class="cls-16" d="M375.79,3.13l13.85,20.23a.28.28,0,0,1-.23.43h-27.7a.27.27,0,0,1-.22-.43L375.34,3.13A.27.27,0,0,1,375.79,3.13Z"/><path class="cls-16" d="M375.58,2.94l-.07,20.43Z"/><rect class="cls-16" x="306.45" y="37.57" width="55.37" height="15.3" transform="translate(668.26 90.44) rotate(-180)"/><g class="cls-15"><path class="cls-4" d="M361.82,52.87,348.39,38.41a.92.92,0,0,0-1.37,0L334,52.14a.92.92,0,0,1-1.37,0L319.78,38.3a.86.86,0,0,0-1.32,0l-12,14.53"/></g><polygon class="cls-16" points="389.31 38.47 465.25 38.47 389.5 68.61 389.31 38.47"/><g class="cls-15"><path class="cls-4" d="M389.31,68.57l11.5-29.17c.2-.51.59-.54.86-.06l10.88,19.1c.27.48.64.44.82-.08l6.47-18.94a.54.54,0,0,1,1-.21l10.53,11.64a.55.55,0,0,0,1-.2l4.06-11.24a.67.67,0,0,1,1.12-.31l7.94,6.46a.78.78,0,0,0,1.23-.26l3-5.94a1.08,1.08,0,0,1,1.37-.49l6.2,2.69"/></g><polyline class="cls-16" points="306.44 37.57 373.66 12.62 465.25 38.47"/><rect class="cls-16" x="461.49" y="22.88" width="7.12" height="11.79"/><ellipse class="cls-17" cx="465.05" cy="22.44" rx="3.56" ry="3.97"/><rect class="cls-18" x="463.91" y="39.57" width="2.3" height="3.19"/><ellipse class="cls-17" cx="465.05" cy="35.65" rx="3.56" ry="3.97"/><ellipse class="cls-16" cx="465.44" cy="48.16" rx="4.75" ry="5.4"/><rect class="cls-17" x="467.77" y="44.53" width="4.84" height="7.27"/><path class="cls-4" d="M465.44,53.56l.06,8.54Z"/><rect class="cls-19" x="480.17" y="257.94" width="148" height="83"/><rect class="cls-19" x="493.17" y="234.94" width="122" height="23"/><rect class="cls-19" x="487.17" y="227.94" width="137" height="7"/><rect class="cls-20" x="535.67" y="148.44" width="42" height="78"/><rect class="cls-20" x="525.67" y="139.44" width="60" height="9" rx="4.5"/><polyline class="cls-20" points="535.67 226.44 577.69 203.79 535.61 181.27 577.67 148.44"/><polyline class="cls-20" points="535.67 148.44 577.69 181.86 535.02 204.97 577.67 226.44"/><polygon class="cls-21" points="612.17 253.94 497.17 253.94 501.2 239.94 607.12 239.94 612.17 253.94"/><rect class="cls-21" x="496.17" y="317.44" width="9.28" height="15"/><rect class="cls-21" x="510.61" y="317.44" width="9.28" height="15"/><rect class="cls-21" x="525.05" y="317.44" width="9.28" height="15"/><rect class="cls-21" x="540.52" y="317.44" width="9.28" height="15"/><rect class="cls-21" x="555.99" y="317.44" width="9.28" height="15"/><rect class="cls-21" x="571.46" y="317.44" width="9.28" height="15"/><rect class="cls-21" x="586.93" y="317.44" width="9.28" height="15"/><rect class="cls-21" x="601.37" y="317.44" width="9.28" height="15"/><rect class="cls-21" x="496.17" y="270.44" width="9.28" height="15"/><rect class="cls-21" x="510.61" y="270.44" width="9.28" height="15"/><rect class="cls-21" x="525.05" y="270.44" width="9.28" height="15"/><rect class="cls-21" x="540.52" y="270.44" width="9.28" height="15"/><rect class="cls-21" x="555.99" y="270.44" width="9.28" height="15"/><rect class="cls-21" x="571.46" y="270.44" width="9.28" height="15"/><rect class="cls-21" x="586.93" y="270.44" width="9.28" height="15"/><rect class="cls-21" x="601.37" y="270.44" width="9.28" height="15"/><rect class="cls-22" x="75.67" y="186.44" width="215" height="155"/><rect class="cls-23" x="67.67" y="182.44" width="233" height="4"/><rect class="cls-22" x="112.67" y="160.44" width="179" height="22"/><rect class="cls-24" x="144.67" y="147.44" width="126" height="13"/><polygon class="cls-1" points="270.67 147.44 144.67 147.44 135.67 131.44 276.67 131.44 270.67 147.44"/><path class="cls-25" d="M167.22,122.44h84.94a5.5,5.5,0,0,1,5.5,5.5v3.5a0,0,0,0,1,0,0h-96a0,0,0,0,1,0,0V128A5.56,5.56,0,0,1,167.22,122.44Z"/><path class="cls-26" d="M85.5,66.94H96.06A5.11,5.11,0,0,1,101.17,72V182.94a0,0,0,0,1,0,0h-21a0,0,0,0,1,0,0V72.27A5.33,5.33,0,0,1,85.5,66.94Z"/><rect class="cls-27" x="80.17" y="172.94" width="21" height="5"/><rect class="cls-27" x="80.17" y="145.94" width="21" height="5"/><rect class="cls-27" x="80.17" y="131.94" width="21" height="5"/><rect class="cls-27" x="80.17" y="117.94" width="21" height="5"/><rect class="cls-27" x="80.17" y="103.94" width="21" height="5"/><rect class="cls-27" x="80.17" y="89.94" width="21" height="5"/><rect class="cls-27" x="80.17" y="55.94" width="21" height="5"/><rect class="cls-27" x="80.17" y="159.94" width="21" height="5"/><rect class="cls-28" x="91.67" y="203.44" width="8" height="14"/><rect class="cls-28" x="91.67" y="225.44" width="8" height="14"/><rect class="cls-28" x="91.67" y="248.44" width="8" height="14"/><rect class="cls-28" x="91.67" y="271.44" width="8" height="14"/><rect class="cls-28" x="91.67" y="294.44" width="8" height="14"/><rect class="cls-28" x="91.67" y="315.44" width="8" height="14"/><rect class="cls-28" x="126.67" y="203.44" width="8" height="14"/><rect class="cls-28" x="126.67" y="225.44" width="8" height="14"/><rect class="cls-28" x="126.67" y="248.44" width="8" height="14"/><rect class="cls-28" x="126.67" y="271.44" width="8" height="14"/><rect class="cls-28" x="126.67" y="294.44" width="8" height="14"/><rect class="cls-28" x="126.67" y="315.44" width="8" height="14"/><rect class="cls-29" x="160.67" y="203.44" width="8" height="14"/><rect class="cls-28" x="160.67" y="225.44" width="8" height="14"/><rect class="cls-28" x="160.67" y="248.44" width="8" height="14"/><rect class="cls-28" x="160.67" y="271.44" width="8" height="14"/><rect class="cls-28" x="160.67" y="294.44" width="8" height="14"/><rect class="cls-28" x="160.67" y="315.44" width="8" height="14"/><rect class="cls-29" x="192.67" y="203.44" width="8" height="14"/><rect class="cls-28" x="192.67" y="225.44" width="8" height="14"/><rect class="cls-28" x="192.67" y="248.44" width="8" height="14"/><rect class="cls-28" x="192.67" y="271.44" width="8" height="14"/><rect class="cls-28" x="192.67" y="294.44" width="8" height="14"/><rect class="cls-28" x="192.67" y="315.44" width="8" height="14"/><rect class="cls-28" x="225.67" y="203.44" width="8" height="14"/><rect class="cls-28" x="225.67" y="225.44" width="8" height="14"/><rect class="cls-28" x="225.67" y="248.44" width="8" height="14"/><rect class="cls-28" x="225.67" y="271.44" width="8" height="14"/><rect class="cls-28" x="225.67" y="294.44" width="8" height="14"/><rect class="cls-28" x="225.67" y="315.44" width="8" height="14"/><rect class="cls-28" x="256.67" y="203.44" width="8" height="14"/><rect class="cls-28" x="256.67" y="225.44" width="8" height="14"/><rect class="cls-28" x="256.67" y="248.44" width="8" height="14"/><rect class="cls-28" x="256.67" y="271.44" width="8" height="14"/><rect class="cls-28" x="256.67" y="294.44" width="8" height="14"/><rect class="cls-28" x="256.67" y="315.44" width="8" height="14"/><rect class="cls-29" x="122.67" y="166.44" width="17" height="10"/><rect class="cls-29" x="149.67" y="166.44" width="17" height="10"/><rect class="cls-29" x="178.67" y="166.44" width="17" height="10"/><rect class="cls-29" x="209.67" y="166.44" width="17" height="10"/><rect class="cls-28" x="240.67" y="166.44" width="17" height="10"/><polygon class="cls-30" points="69.67 341.44 44.17 342.94 44.59 137.44 59.17 137.94 69.67 341.44"/><rect class="cls-31" x="35.77" y="90.75" width="12.62" height="17.01"/><rect class="cls-32" x="438.17" y="312.94" width="42" height="16"/><rect class="cls-33" x="439.17" y="312.94" width="1" height="16"/><rect class="cls-33" x="442.17" y="312.94" width="1" height="16"/><rect class="cls-33" x="445.17" y="312.94" width="1" height="16"/><rect class="cls-33" x="448.17" y="312.94" width="1" height="16"/><rect class="cls-33" x="451.17" y="312.94" width="1" height="16"/><rect class="cls-33" x="454.17" y="312.94" width="1" height="16"/><rect class="cls-33" x="457.17" y="312.94" width="1" height="16"/><rect class="cls-33" x="460.17" y="312.94" width="1" height="16"/><rect class="cls-33" x="463.17" y="312.94" width="1" height="16"/><rect class="cls-33" x="466.17" y="312.94" width="1" height="16"/><rect class="cls-33" x="469.17" y="312.94" width="1" height="16"/><rect class="cls-33" x="472.17" y="312.94" width="1" height="16"/><rect class="cls-33" x="475.17" y="312.94" width="1" height="16"/><rect class="cls-33" x="478.17" y="312.94" width="1" height="16"/><rect class="cls-32" x="332.17" y="296.94" width="42" height="16"/><rect class="cls-33" x="333.17" y="296.94" width="1" height="16"/><rect class="cls-33" x="336.17" y="296.94" width="1" height="16"/><rect class="cls-33" x="339.17" y="296.94" width="1" height="16"/><rect class="cls-33" x="342.17" y="296.94" width="1" height="16"/><rect class="cls-33" x="345.17" y="296.94" width="1" height="16"/><rect class="cls-33" x="348.17" y="296.94" width="1" height="16"/><rect class="cls-33" x="351.17" y="296.94" width="1" height="16"/><rect class="cls-33" x="354.17" y="296.94" width="1" height="16"/><rect class="cls-33" x="357.17" y="296.94" width="1" height="16"/><rect class="cls-33" x="360.17" y="296.94" width="1" height="16"/><rect class="cls-33" x="363.17" y="296.94" width="1" height="16"/><rect class="cls-33" x="366.17" y="296.94" width="1" height="16"/><rect class="cls-33" x="369.17" y="296.94" width="1" height="16"/><rect class="cls-33" x="372.17" y="296.94" width="1" height="16"/><rect class="cls-32" x="290.17" y="328.94" width="42" height="16"/><rect class="cls-33" x="291.17" y="328.94" width="1" height="16"/><rect class="cls-33" x="294.17" y="328.94" width="1" height="16"/><rect class="cls-33" x="297.17" y="328.94" width="1" height="16"/><rect class="cls-33" x="300.17" y="328.94" width="1" height="16"/><rect class="cls-33" x="303.17" y="328.94" width="1" height="16"/><rect class="cls-33" x="306.17" y="328.94" width="1" height="16"/><rect class="cls-33" x="309.17" y="328.94" width="1" height="16"/><rect class="cls-33" x="312.17" y="328.94" width="1" height="16"/><rect class="cls-33" x="315.17" y="328.94" width="1" height="16"/><rect class="cls-33" x="318.17" y="328.94" width="1" height="16"/><rect class="cls-33" x="321.17" y="328.94" width="1" height="16"/><rect class="cls-33" x="324.17" y="328.94" width="1" height="16"/><rect class="cls-33" x="327.17" y="328.94" width="1" height="16"/><rect class="cls-33" x="330.17" y="328.94" width="1" height="16"/><rect class="cls-34" x="458.17" y="328.94" width="42" height="16"/><rect class="cls-35" x="459.17" y="328.94" width="1" height="16"/><rect class="cls-35" x="462.17" y="328.94" width="1" height="16"/><rect class="cls-35" x="465.17" y="328.94" width="1" height="16"/><rect class="cls-35" x="468.17" y="328.94" width="1" height="16"/><rect class="cls-35" x="471.17" y="328.94" width="1" height="16"/><rect class="cls-35" x="474.17" y="328.94" width="1" height="16"/><rect class="cls-35" x="477.17" y="328.94" width="1" height="16"/><rect class="cls-35" x="480.17" y="328.94" width="1" height="16"/><rect class="cls-35" x="483.17" y="328.94" width="1" height="16"/><rect class="cls-35" x="486.17" y="328.94" width="1" height="16"/><rect class="cls-35" x="489.17" y="328.94" width="1" height="16"/><rect class="cls-35" x="492.17" y="328.94" width="1" height="16"/><rect class="cls-35" x="495.17" y="328.94" width="1" height="16"/><rect class="cls-35" x="498.17" y="328.94" width="1" height="16"/><rect class="cls-34" x="396.17" y="312.94" width="42" height="16"/><rect class="cls-35" x="397.17" y="312.94" width="1" height="16"/><rect class="cls-35" x="400.17" y="312.94" width="1" height="16"/><rect class="cls-35" x="403.17" y="312.94" width="1" height="16"/><rect class="cls-35" x="406.17" y="312.94" width="1" height="16"/><rect class="cls-35" x="409.17" y="312.94" width="1" height="16"/><rect class="cls-35" x="412.17" y="312.94" width="1" height="16"/><rect class="cls-35" x="415.17" y="312.94" width="1" height="16"/><rect class="cls-35" x="418.17" y="312.94" width="1" height="16"/><rect class="cls-35" x="421.17" y="312.94" width="1" height="16"/><rect class="cls-35" x="424.17" y="312.94" width="1" height="16"/><rect class="cls-35" x="427.17" y="312.94" width="1" height="16"/><rect class="cls-35" x="430.17" y="312.94" width="1" height="16"/><rect class="cls-35" x="433.17" y="312.94" width="1" height="16"/><rect class="cls-35" x="436.17" y="312.94" width="1" height="16"/><rect class="cls-34" x="332.17" y="328.94" width="42" height="16"/><rect class="cls-35" x="333.17" y="328.94" width="1" height="16"/><rect class="cls-35" x="336.17" y="328.94" width="1" height="16"/><rect class="cls-35" x="339.17" y="328.94" width="1" height="16"/><rect class="cls-35" x="342.17" y="328.94" width="1" height="16"/><rect class="cls-35" x="345.17" y="328.94" width="1" height="16"/><rect class="cls-35" x="348.17" y="328.94" width="1" height="16"/><rect class="cls-35" x="351.17" y="328.94" width="1" height="16"/><rect class="cls-35" x="354.17" y="328.94" width="1" height="16"/><rect class="cls-35" x="357.17" y="328.94" width="1" height="16"/><rect class="cls-35" x="360.17" y="328.94" width="1" height="16"/><rect class="cls-35" x="363.17" y="328.94" width="1" height="16"/><rect class="cls-35" x="366.17" y="328.94" width="1" height="16"/><rect class="cls-35" x="369.17" y="328.94" width="1" height="16"/><rect class="cls-35" x="372.17" y="328.94" width="1" height="16"/><rect class="cls-36" x="416.17" y="296.94" width="42" height="16"/><rect class="cls-37" x="417.17" y="296.94" width="1" height="16"/><rect class="cls-37" x="420.17" y="296.94" width="1" height="16"/><rect class="cls-37" x="423.17" y="296.94" width="1" height="16"/><rect class="cls-37" x="426.17" y="296.94" width="1" height="16"/><rect class="cls-37" x="429.17" y="296.94" width="1" height="16"/><rect class="cls-37" x="432.17" y="296.94" width="1" height="16"/><rect class="cls-37" x="435.17" y="296.94" width="1" height="16"/><rect class="cls-37" x="438.17" y="296.94" width="1" height="16"/><rect class="cls-37" x="441.17" y="296.94" width="1" height="16"/><rect class="cls-37" x="444.17" y="296.94" width="1" height="16"/><rect class="cls-37" x="447.17" y="296.94" width="1" height="16"/><rect class="cls-37" x="450.17" y="296.94" width="1" height="16"/><rect class="cls-37" x="453.17" y="296.94" width="1" height="16"/><rect class="cls-37" x="456.17" y="296.94" width="1" height="16"/><rect class="cls-36" x="374.17" y="328.94" width="42" height="16"/><rect class="cls-37" x="375.17" y="328.94" width="1" height="16"/><rect class="cls-37" x="378.17" y="328.94" width="1" height="16"/><rect class="cls-37" x="381.17" y="328.94" width="1" height="16"/><rect class="cls-37" x="384.17" y="328.94" width="1" height="16"/><rect class="cls-37" x="387.17" y="328.94" width="1" height="16"/><rect class="cls-37" x="390.17" y="328.94" width="1" height="16"/><rect class="cls-37" x="393.17" y="328.94" width="1" height="16"/><rect class="cls-37" x="396.17" y="328.94" width="1" height="16"/><rect class="cls-37" x="399.17" y="328.94" width="1" height="16"/><rect class="cls-37" x="402.17" y="328.94" width="1" height="16"/><rect class="cls-37" x="405.17" y="328.94" width="1" height="16"/><rect class="cls-37" x="408.17" y="328.94" width="1" height="16"/><rect class="cls-37" x="411.17" y="328.94" width="1" height="16"/><rect class="cls-37" x="414.17" y="328.94" width="1" height="16"/><rect class="cls-38" x="312.17" y="312.94" width="42" height="16"/><rect class="cls-39" x="313.17" y="312.94" width="1" height="16"/><rect class="cls-39" x="316.17" y="312.94" width="1" height="16"/><rect class="cls-39" x="319.17" y="312.94" width="1" height="16"/><rect class="cls-39" x="322.17" y="312.94" width="1" height="16"/><rect class="cls-39" x="325.17" y="312.94" width="1" height="16"/><rect class="cls-39" x="328.17" y="312.94" width="1" height="16"/><rect class="cls-39" x="331.17" y="312.94" width="1" height="16"/><rect class="cls-39" x="334.17" y="312.94" width="1" height="16"/><rect class="cls-39" x="337.17" y="312.94" width="1" height="16"/><rect class="cls-39" x="340.17" y="312.94" width="1" height="16"/><rect class="cls-39" x="343.17" y="312.94" width="1" height="16"/><rect class="cls-39" x="346.17" y="312.94" width="1" height="16"/><rect class="cls-39" x="349.17" y="312.94" width="1" height="16"/><rect class="cls-39" x="352.17" y="312.94" width="1" height="16"/><rect class="cls-38" x="374.17" y="296.94" width="42" height="16"/><rect class="cls-39" x="375.17" y="296.94" width="1" height="16"/><rect class="cls-39" x="378.17" y="296.94" width="1" height="16"/><rect class="cls-39" x="381.17" y="296.94" width="1" height="16"/><rect class="cls-39" x="384.17" y="296.94" width="1" height="16"/><rect class="cls-39" x="387.17" y="296.94" width="1" height="16"/><rect class="cls-39" x="390.17" y="296.94" width="1" height="16"/><rect class="cls-39" x="393.17" y="296.94" width="1" height="16"/><rect class="cls-39" x="396.17" y="296.94" width="1" height="16"/><rect class="cls-39" x="399.17" y="296.94" width="1" height="16"/><rect class="cls-39" x="402.17" y="296.94" width="1" height="16"/><rect class="cls-39" x="405.17" y="296.94" width="1" height="16"/><rect class="cls-39" x="408.17" y="296.94" width="1" height="16"/><rect class="cls-39" x="411.17" y="296.94" width="1" height="16"/><rect class="cls-39" x="414.17" y="296.94" width="1" height="16"/><rect class="cls-40" x="390.17" y="280.94" width="42" height="16"/><rect class="cls-41" x="391.17" y="280.94" width="1" height="16"/><rect class="cls-41" x="394.17" y="280.94" width="1" height="16"/><rect class="cls-41" x="397.17" y="280.94" width="1" height="16"/><rect class="cls-41" x="400.17" y="280.94" width="1" height="16"/><rect class="cls-41" x="403.17" y="280.94" width="1" height="16"/><rect class="cls-41" x="406.17" y="280.94" width="1" height="16"/><rect class="cls-41" x="409.17" y="280.94" width="1" height="16"/><rect class="cls-41" x="412.17" y="280.94" width="1" height="16"/><rect class="cls-41" x="415.17" y="280.94" width="1" height="16"/><rect class="cls-41" x="418.17" y="280.94" width="1" height="16"/><rect class="cls-41" x="421.17" y="280.94" width="1" height="16"/><rect class="cls-41" x="424.17" y="280.94" width="1" height="16"/><rect class="cls-41" x="427.17" y="280.94" width="1" height="16"/><rect class="cls-41" x="430.17" y="280.94" width="1" height="16"/><rect class="cls-40" x="354.17" y="312.94" width="42" height="16"/><rect class="cls-41" x="355.17" y="312.94" width="1" height="16"/><rect class="cls-41" x="358.17" y="312.94" width="1" height="16"/><rect class="cls-41" x="361.17" y="312.94" width="1" height="16"/><rect class="cls-41" x="364.17" y="312.94" width="1" height="16"/><rect class="cls-41" x="367.17" y="312.94" width="1" height="16"/><rect class="cls-41" x="370.17" y="312.94" width="1" height="16"/><rect class="cls-41" x="373.17" y="312.94" width="1" height="16"/><rect class="cls-41" x="376.17" y="312.94" width="1" height="16"/><rect class="cls-41" x="379.17" y="312.94" width="1" height="16"/><rect class="cls-41" x="382.17" y="312.94" width="1" height="16"/><rect class="cls-41" x="385.17" y="312.94" width="1" height="16"/><rect class="cls-41" x="388.17" y="312.94" width="1" height="16"/><rect class="cls-41" x="391.17" y="312.94" width="1" height="16"/><rect class="cls-41" x="394.17" y="312.94" width="1" height="16"/><rect class="cls-40" x="416.17" y="328.94" width="42" height="16"/><rect class="cls-41" x="417.17" y="328.94" width="1" height="16"/><rect class="cls-41" x="420.17" y="328.94" width="1" height="16"/><rect class="cls-41" x="423.17" y="328.94" width="1" height="16"/><rect class="cls-41" x="426.17" y="328.94" width="1" height="16"/><rect class="cls-41" x="429.17" y="328.94" width="1" height="16"/><rect class="cls-41" x="432.17" y="328.94" width="1" height="16"/><rect class="cls-41" x="435.17" y="328.94" width="1" height="16"/><rect class="cls-41" x="438.17" y="328.94" width="1" height="16"/><rect class="cls-41" x="441.17" y="328.94" width="1" height="16"/><rect class="cls-41" x="444.17" y="328.94" width="1" height="16"/><rect class="cls-41" x="447.17" y="328.94" width="1" height="16"/><rect class="cls-41" x="450.17" y="328.94" width="1" height="16"/><rect class="cls-41" x="453.17" y="328.94" width="1" height="16"/><rect class="cls-41" x="456.17" y="328.94" width="1" height="16"/><path class="cls-42" d="M65.11,427.1q.31-3,.66-6"/><path class="cls-43" d="M67.3,409.33C93,230.3,222.6,94.1,378.68,94.1c157.4,0,287.93,138.52,312,319.8"/><path class="cls-42" d="M691.44,419.81q.36,3,.67,6"/><rect class="cls-44" x="49.17" y="85.44" width="4.5" height="49"/><path class="cls-45" d="M291.19,345.54a.58.58,0,0,1,.57-.72h179a4.39,4.39,0,0,0,3.56-1.79s8.28-11.61,10.36-15.84h93.18c11.53,0,5.68,17.63-5.32,25.43-7,4.95-12.22,10.41-15.2,13.23l-.25.26-11.94,13.23a4.36,4.36,0,0,1-3.26,1.44H447.15l-145.48-.35a.59.59,0,0,1-.57-.42Z"/><ellipse cx="535.65" cy="332.48" rx="2.56" ry="2.47"/><ellipse class="cls-46" cx="535.65" cy="332.48" rx="1.83" ry="1.76"/><ellipse cx="546.62" cy="332.48" rx="2.56" ry="2.47"/><ellipse class="cls-46" cx="546.62" cy="332.48" rx="1.83" ry="1.76"/><ellipse cx="557.6" cy="332.48" rx="2.56" ry="2.47"/><ellipse class="cls-46" cx="557.6" cy="332.48" rx="1.83" ry="1.76"/><rect class="cls-47" x="491.4" y="322.26" width="87.04" height="4.94" transform="translate(1069.84 649.45) rotate(-180)"/><rect class="cls-48" x="379.85" y="347.64" width="6.95" height="2.47" rx="1.23" transform="translate(766.66 697.75) rotate(-180)"/><rect class="cls-45" x="380.59" y="348.19" width="5.49" height="1.37" rx="0.69" transform="translate(766.66 697.75) rotate(180)"/><rect class="cls-48" x="345.48" y="347.64" width="6.95" height="2.47" rx="1.23" transform="translate(697.9 697.75) rotate(180)"/><rect class="cls-45" x="346.21" y="348.19" width="5.49" height="1.37" rx="0.69" transform="translate(697.9 697.75) rotate(180)"/><rect class="cls-48" x="309.63" y="347.64" width="6.95" height="2.47" rx="1.23" transform="translate(626.22 697.75) rotate(180)"/><rect class="cls-49" x="293.54" y="338.12" width="185.06" height="0.71" transform="translate(772.14 676.95) rotate(-180)"/><rect class="cls-45" x="310.37" y="348.19" width="5.49" height="1.37" rx="0.69" transform="translate(626.22 697.75) rotate(180)"/><rect x="532.54" y="299.39" width="4.49" height="22.44"/><rect x="522.66" y="295.94" width="25.14" height="3.45"/><polyline class="cls-50" points="211.09 305.71 295.67 199.44 232.72 317.71 211.09 305.71"/><circle class="cls-50" cx="295.67" cy="268.44" r="2"/><line class="cls-50" x1="295.67" y1="199.44" x2="295.67" y2="284.44"/><path class="cls-51" d="M296.74,291.94a5.22,5.22,0,0,1-1.88-.32,4,4,0,0,1-1.39-.87,3.87,3.87,0,0,1-.86-1.31,4.69,4.69,0,0,1-.29-1.65,4.27,4.27,0,0,1,.36-1.81,3.79,3.79,0,0,1,1-1.29,4.18,4.18,0,0,1,1.41-.76,5.57,5.57,0,0,1,1.68-.26,5.45,5.45,0,0,1,1.28.14,4.57,4.57,0,0,1,1,.35.33.33,0,0,1,.17.18.63.63,0,0,1-.12.4.9.9,0,0,1-.23.34.23.23,0,0,1-.23,0,6.71,6.71,0,0,0-.89-.27,3.87,3.87,0,0,0-.94-.1,3.27,3.27,0,0,0-1.27.24,2.84,2.84,0,0,0-1,.65,2.78,2.78,0,0,0-.64,1,3.26,3.26,0,0,0-.23,1.21,3.18,3.18,0,0,0,.22,1.21,2.69,2.69,0,0,0,.62,1,2.92,2.92,0,0,0,1,.66,3.22,3.22,0,0,0,1.31.25,4.44,4.44,0,0,0,.94-.1c.27-.07.57-.16.89-.27a.27.27,0,0,1,.23,0,.75.75,0,0,1,.23.34,2.51,2.51,0,0,1,.1.26,1,1,0,0,1,0,.15.21.21,0,0,1-.06.1l-.11.07a5.18,5.18,0,0,1-1,.36A4.94,4.94,0,0,1,296.74,291.94Z"/><path class="cls-52" d="M233.39,317.05l-8.16-27.71a.68.68,0,0,1,.71-.93l21.34.61a.8.8,0,0,0,.84-1l-3.68-22.69a.82.82,0,0,1,.84-1h14.89a.86.86,0,0,0,.87-1l-2.24-17a.93.93,0,0,1,.87-1.06l10.72-.7a1,1,0,0,0,.95-1.07l-.62-12.17a1.21,1.21,0,0,1,.93-1.2l7.87-1.64a1.36,1.36,0,0,0,1-1.21l.36-8.44a1.58,1.58,0,0,1,1-1.32l4.11-1.37a1.48,1.48,0,0,0,.95-1.31v-5"/><polygon class="cls-53" points="301.3 380.94 544.06 380.65 550.65 373.02 299.03 372.32 301.3 380.94"/><polygon class="cls-53" points="296.83 363.86 559.42 363.86 560.89 362.45 296.1 362.45 296.83 363.86"/><path class="cls-14" d="M202.17,305.44h-.5v35h36C235.67,308.44,222.67,304.44,202.17,305.44Z"/><path class="cls-31" d="M214.36,313.86h-.19v15.07h14C227.39,315.15,222.34,313.43,214.36,313.86Z"/><rect class="cls-54" x="193.67" y="340.44" width="51" height="8" rx="4"/><path class="cls-55" d="M527.67,381.44s4-7,8-1c0,0,4-6,8,0,0,0,3-6,7,1"/><path class="cls-56" d="M528.33,383.58s4-7,8-1c0,0,4-6,8,0,0,0,3-6,7,1"/><path class="cls-55" d="M529.33,385.58s4-7,8-1c0,0,4-6,8,0,0,0,3-6,7,1"/><circle class="cls-57" cx="80.67" cy="375.44" r="59"/><circle class="cls-57" cx="178.67" cy="171.44" r="59"/><circle class="cls-57" cx="585.67" cy="171.44" r="59"/><circle class="cls-57" cx="668.67" cy="375.44" r="59"/><circle class="cls-57" cx="381.67" cy="110.44" r="59"/><polygon class="cls-14" points="668.53 375.36 673.85 380.23 680.87 368.04 678.28 366.16 668.53 375.36"/><path class="cls-14" d="M697.55,359.67v7.77a.48.48,0,0,1-.49.46h-7a.47.47,0,0,0-.5.45v1.57a.47.47,0,0,0,.5.45h11a.47.47,0,0,0,.5-.45V359.67a.47.47,0,0,0-.5-.45h-3A.47.47,0,0,0,697.55,359.67Z"/><ellipse cx="200.25" cy="344.95" rx="1.71" ry="1.47"/><ellipse class="cls-58" cx="200.25" cy="344.95" rx="1.22" ry="1.05"/><ellipse cx="207.57" cy="344.95" rx="1.71" ry="1.47"/><ellipse class="cls-58" cx="207.57" cy="344.95" rx="1.22" ry="1.05"/><ellipse cx="214.9" cy="344.95" rx="1.71" ry="1.47"/><ellipse class="cls-58" cx="214.9" cy="344.95" rx="1.22" ry="1.05"/><ellipse cx="222.25" cy="344.95" rx="1.71" ry="1.47"/><ellipse class="cls-58" cx="222.25" cy="344.95" rx="1.22" ry="1.05"/><ellipse cx="229.57" cy="344.95" rx="1.71" ry="1.47"/><ellipse class="cls-58" cx="229.57" cy="344.95" rx="1.22" ry="1.05"/><ellipse cx="236.9" cy="344.95" rx="1.71" ry="1.47"/><ellipse class="cls-58" cx="236.9" cy="344.95" rx="1.22" ry="1.05"/><polygon class="cls-59" points="161.94 176.64 161.94 158.39 141.49 158.39 141.49 176.64 134.67 176.64 134.67 183.94 141.49 183.94 161.94 183.94 222.17 183.94 222.17 176.64 161.94 176.64"/><rect class="cls-60" x="147.17" y="163.25" width="9.09" height="9.73"/><path class="cls-61" d="M161.94,158.39v0Z"/><ellipse class="cls-62" cx="151.15" cy="187.02" rx="5.02" ry="4.92"/><circle class="cls-63" cx="151.17" cy="186.94" r="2"/><ellipse class="cls-62" cx="201.15" cy="187.02" rx="5.02" ry="4.92"/><circle class="cls-63" cx="201.17" cy="186.94" r="2"/><ellipse class="cls-62" cx="212.15" cy="187.02" rx="5.02" ry="4.92"/><circle class="cls-63" cx="212.17" cy="186.94" r="2"/><path class="cls-31" d="M704.19,371H689.58a5.78,5.78,0,0,0-6,5.58H667.86l-6.16,9.3v12.4h48.47v-21.7A5.79,5.79,0,0,0,704.19,371Z"/><polyline class="cls-64" points="659.04 349.3 659.04 397.65 627.17 397.65"/><polyline class="cls-64" points="668.34 376.57 679.95 347.44 679.95 347.44 699.61 347.44 704.86 371"/><path class="cls-65" d="M683.18,369.29h0a1.19,1.19,0,0,0-.24-1.74l-4.47-3.23a1.41,1.41,0,0,0-1.87.23h0a1.19,1.19,0,0,0,.24,1.74l4.48,3.22A1.39,1.39,0,0,0,683.18,369.29Z"/><rect class="cls-66" x="627.83" y="378.43" width="29.22" height="17.36"/><rect class="cls-67" x="637.13" y="378.43" width="10.62" height="17.36"/><rect class="cls-67" x="627.83" y="387.11" width="2.66" height="1.24"/><rect class="cls-67" x="654.39" y="379.67" width="2.66" height="1.24"/><rect class="cls-63" x="651.74" y="393.31" width="3.98" height="1.24"/><rect class="cls-66" x="627.83" y="359.84" width="29.22" height="17.36"/><rect class="cls-67" x="637.13" y="359.84" width="10.62" height="17.36"/><rect class="cls-67" x="627.83" y="368.52" width="2.66" height="1.24"/><rect class="cls-67" x="654.39" y="361.08" width="2.66" height="1.24"/><rect class="cls-63" x="651.74" y="374.71" width="3.98" height="1.24"/><polygon class="cls-68" points="368.07 141.27 348.46 150.85 333.51 96.9 352.76 86.03 368.07 141.27"/><polygon class="cls-68" points="389.81 139.4 368.07 141.27 352.76 86.03 374.51 84.16 389.81 139.4"/><polygon class="cls-68" points="409.42 129.81 389.81 139.4 374.51 84.16 394.12 74.58 409.42 129.81"/><polygon class="cls-68" points="431.17 127.94 409.42 129.81 394.12 74.58 415.86 72.7 431.17 127.94"/><g class="cls-69"><polygon class="cls-70" points="366.64 136.13 351.17 144.57 339.07 100.89 354.19 91.17 366.64 136.13"/><polygon class="cls-70" points="388.39 134.26 366.64 136.13 354.19 91.17 375.93 89.3 388.39 134.26"/><polygon class="cls-70" points="408 124.67 388.39 134.26 375.93 89.3 395.54 79.71 408 124.67"/><polygon class="cls-70" points="425.61 123.94 408 124.67 395.54 79.71 412.8 77.7 425.61 123.94"/></g><polygon class="cls-71" points="398.37 89.61 392.36 92.35 396.98 84 405.53 78.56 399.17 79.4 396.15 81.01 390.27 90.16 377.77 96.24 356.48 96.76 342.24 111.46 343.2 116.12 347.94 111.11 361.3 116.86 385.19 122.7 397.95 120.54 403.08 117.35 384.49 119.89 360.24 113.01 350.26 108.65 356.98 101.54 379.04 100.81 399.35 92.57 416.42 91.07 415.93 88.13 398.37 89.61"/><polygon class="cls-72" points="420.63 105.96 419.54 102.34 401.59 101.55 381.98 111.14 376.47 112.66 356.98 101.54 339.07 100.89 340.13 104.75 358.08 105.54 372.33 113.81 361.3 116.86 345.93 125.96 347.23 130.06 362.37 120.72 383.26 114.85 402.48 105.07 414.92 105.68 413.54 105.69 405.6 115.73 386.63 128.21 378.21 135.31 382.58 135.02 387.46 130.6 406.59 118.69 416.9 105.78 420.63 105.96"/><rect class="cls-40" x="33.17" y="357.94" width="94" height="34"/><rect class="cls-41" x="35.41" y="357.94" width="2.24" height="34"/><rect class="cls-41" x="42.12" y="357.94" width="2.24" height="34"/><rect class="cls-41" x="48.83" y="357.94" width="2.24" height="34"/><rect class="cls-41" x="55.55" y="357.94" width="2.24" height="34"/><rect class="cls-41" x="62.26" y="357.94" width="2.24" height="34"/><rect class="cls-41" x="68.98" y="357.94" width="2.24" height="34"/><rect class="cls-41" x="75.69" y="357.94" width="2.24" height="34"/><rect class="cls-41" x="82.41" y="357.94" width="2.24" height="34"/><rect class="cls-41" x="89.12" y="357.94" width="2.24" height="34"/><rect class="cls-41" x="95.83" y="357.94" width="2.24" height="34"/><rect class="cls-41" x="102.55" y="357.94" width="2.24" height="34"/><rect class="cls-41" x="109.26" y="357.94" width="2.24" height="34"/><rect class="cls-41" x="115.98" y="357.94" width="2.24" height="34"/><rect class="cls-41" x="122.69" y="357.94" width="2.24" height="34"/><rect class="cls-73" x="661.62" y="390.97" width="48.55" height="2"/><rect class="cls-73" x="661.62" y="394.97" width="48.55" height="1"/><ellipse class="cls-62" cx="674.19" cy="397.84" rx="6.67" ry="6.1"/><ellipse class="cls-63" cx="674.22" cy="397.74" rx="2.66" ry="2.48"/><ellipse class="cls-62" cx="698.09" cy="397.84" rx="6.67" ry="6.1"/><ellipse class="cls-63" cx="698.12" cy="397.74" rx="2.66" ry="2.48"/><rect class="cls-34" x="164.17" y="150.94" width="57" height="24"/><rect class="cls-35" x="165.52" y="150.94" width="1.36" height="24"/><rect class="cls-35" x="169.6" y="150.94" width="1.36" height="24"/><rect class="cls-35" x="173.67" y="150.94" width="1.36" height="24"/><rect class="cls-35" x="177.74" y="150.94" width="1.36" height="24"/><rect class="cls-35" x="181.81" y="150.94" width="1.36" height="24"/><rect class="cls-35" x="185.88" y="150.94" width="1.36" height="24"/><rect class="cls-35" x="189.95" y="150.94" width="1.36" height="24"/><rect class="cls-35" x="194.02" y="150.94" width="1.36" height="24"/><rect class="cls-35" x="198.1" y="150.94" width="1.36" height="24"/><rect class="cls-35" x="202.17" y="150.94" width="1.36" height="24"/><rect class="cls-35" x="206.24" y="150.94" width="1.36" height="24"/><rect class="cls-35" x="210.31" y="150.94" width="1.36" height="24"/><rect class="cls-35" x="214.38" y="150.94" width="1.36" height="24"/><rect class="cls-35" x="218.45" y="150.94" width="1.36" height="24"/><polygon class="cls-73" points="590.88 165.05 573.66 168.97 585.58 147.6 595.71 145.3 590.88 165.05"/><path class="cls-60" d="M535.57,174.14h0l-1,.23L522.41,183h0c-4.95,2.47-7.57,4.75-7.28,6.32.41,2.28,7,2.94,17.49,2.2l10.26.47a11.17,11.17,0,0,0,2.45-.15l58.2-10.23a50.45,50.45,0,0,0,15.36-5.4l14.75-8-1.18.27c8.69-3.58,11.71-6.17,13.33-8.87l4.44-10.33Z"/><path class="cls-74" d="M541.66,181.5h0a1,1,0,0,1-1.21-.89l-.21-1.12a1.15,1.15,0,0,1,.81-1.35h0a1,1,0,0,1,1.22.89l.2,1.12A1.16,1.16,0,0,1,541.66,181.5Z"/><path class="cls-74" d="M545.71,180.57h0a1,1,0,0,1-1.21-.88l-.21-1.12a1.15,1.15,0,0,1,.81-1.35h0a1,1,0,0,1,1.22.89l.2,1.11A1.14,1.14,0,0,1,545.71,180.57Z"/><path class="cls-74" d="M549.77,179.65h0a1,1,0,0,1-1.22-.89l-.21-1.12a1.16,1.16,0,0,1,.81-1.35h0a1,1,0,0,1,1.22.89l.2,1.12A1.15,1.15,0,0,1,549.77,179.65Z"/><path class="cls-74" d="M553.82,178.73h0a1,1,0,0,1-1.22-.89l-.21-1.12a1.15,1.15,0,0,1,.81-1.35h0a1,1,0,0,1,1.22.89l.21,1.12A1.15,1.15,0,0,1,553.82,178.73Z"/><path class="cls-74" d="M557.87,177.81h0a1,1,0,0,1-1.22-.89l-.2-1.12a1.15,1.15,0,0,1,.8-1.35h0a1,1,0,0,1,1.22.89l.21,1.12A1.15,1.15,0,0,1,557.87,177.81Z"/><path class="cls-74" d="M561.92,176.89h0a1.05,1.05,0,0,1-1.22-.89l-.2-1.12a1.15,1.15,0,0,1,.81-1.35h0a1,1,0,0,1,1.21.89l.21,1.12A1.16,1.16,0,0,1,561.92,176.89Z"/><path class="cls-74" d="M566,176h0a1,1,0,0,1-1.22-.89l-.2-1.11a1.15,1.15,0,0,1,.81-1.35h0a1,1,0,0,1,1.21.88l.21,1.12A1.15,1.15,0,0,1,566,176Z"/><path class="cls-74" d="M570,175h0a1,1,0,0,1-1.22-.89l-.2-1.12a1.16,1.16,0,0,1,.81-1.35h0a1,1,0,0,1,1.22.89l.2,1.12A1.15,1.15,0,0,1,570,175Z"/><path class="cls-74" d="M574.07,174.12h0a1,1,0,0,1-1.21-.89l-.21-1.12a1.15,1.15,0,0,1,.81-1.35h0a1,1,0,0,1,1.22.89l.2,1.12A1.15,1.15,0,0,1,574.07,174.12Z"/><path class="cls-74" d="M578.13,173.2h0a1,1,0,0,1-1.22-.89l-.21-1.12a1.15,1.15,0,0,1,.81-1.35h0a1,1,0,0,1,1.22.89l.2,1.12A1.15,1.15,0,0,1,578.13,173.2Z"/><path class="cls-74" d="M582.18,172.27h0a1,1,0,0,1-1.22-.88l-.21-1.12a1.15,1.15,0,0,1,.81-1.35h0a1,1,0,0,1,1.22.89l.2,1.11A1.13,1.13,0,0,1,582.18,172.27Z"/><path class="cls-74" d="M586.23,171.35h0a1,1,0,0,1-1.22-.89l-.2-1.12a1.13,1.13,0,0,1,.8-1.34h0a1,1,0,0,1,1.22.88L587,170A1.15,1.15,0,0,1,586.23,171.35Z"/><path class="cls-74" d="M590.28,170.43h0a1,1,0,0,1-1.22-.89l-.2-1.12a1.15,1.15,0,0,1,.81-1.35h0a1,1,0,0,1,1.21.89l.21,1.12A1.15,1.15,0,0,1,590.28,170.43Z"/><path class="cls-74" d="M594.33,169.51h0a1,1,0,0,1-1.22-.89l-.2-1.12a1.15,1.15,0,0,1,.81-1.35h0a1,1,0,0,1,1.21.89l.21,1.12A1.15,1.15,0,0,1,594.33,169.51Z"/><path class="cls-74" d="M598.38,168.59h0a1,1,0,0,1-1.22-.89l-.2-1.12a1.15,1.15,0,0,1,.81-1.35h0a1,1,0,0,1,1.22.89l.2,1.12A1.16,1.16,0,0,1,598.38,168.59Z"/><path class="cls-74" d="M602.43,167.66h0a1,1,0,0,1-1.21-.88l-.21-1.12a1.15,1.15,0,0,1,.81-1.35h0a1,1,0,0,1,1.22.89l.2,1.11A1.15,1.15,0,0,1,602.43,167.66Z"/><path class="cls-74" d="M606.48,166.74h0a1,1,0,0,1-1.21-.89l-.21-1.12a1.16,1.16,0,0,1,.81-1.35h0a1,1,0,0,1,1.22.89l.2,1.12A1.15,1.15,0,0,1,606.48,166.74Z"/><path class="cls-74" d="M610.54,165.82h0a1,1,0,0,1-1.22-.89l-.21-1.12a1.15,1.15,0,0,1,.81-1.35h0a1,1,0,0,1,1.22.89l.2,1.12A1.14,1.14,0,0,1,610.54,165.82Z"/><path class="cls-74" d="M614.59,164.9h0a1,1,0,0,1-1.22-.89l-.2-1.12a1.14,1.14,0,0,1,.8-1.35h0a1,1,0,0,1,1.22.89l.21,1.12A1.15,1.15,0,0,1,614.59,164.9Z"/><path class="cls-74" d="M618.64,164h0a1,1,0,0,1-1.22-.89l-.2-1.12a1.15,1.15,0,0,1,.81-1.35h0a1,1,0,0,1,1.21.89l.21,1.12A1.16,1.16,0,0,1,618.64,164Z"/><path class="cls-74" d="M622.69,163.05h0a1,1,0,0,1-1.22-.89l-.2-1.11a1.15,1.15,0,0,1,.81-1.35h0a1,1,0,0,1,1.21.88l.21,1.12A1.15,1.15,0,0,1,622.69,163.05Z"/><path class="cls-39" d="M616.8,156.82l28-6.62.89-22.7s-6.69-2-9.11,2.08a81,81,0,0,1-5.54,11.87C630.87,141.82,622.45,154.12,616.8,156.82Z"/><path class="cls-39" d="M627.75,159,644,155.3l10.35,10.46s-2.84,1.81-10.54.07C643.77,165.83,642.14,162.7,627.75,159Z"/><path class="cls-75" d="M532.62,191.48l99.84-23.07a57.8,57.8,0,0,1-20.89,11.74c-13,4.12-59.15,11.14-67.46,11.86S532.62,191.48,532.62,191.48Z"/><path class="cls-74" d="M529.26,178.1l6.92-.6s-1,6.05-6.27,6.09-6-1.67-6-1.67Z"/><path class="cls-14" d="M564.17,202l7.24-1.34c4.23-.78,7.24-4.18,6.74-7.6h0c-.5-3.42-4.34-5.56-8.56-4.79l-7.25,1.34c-2.19.4-1.07,2.62-.57,6S562,202.41,564.17,202Z"/><polygon class="cls-74" points="559.5 188.92 562.16 188.44 564.27 203.23 561.61 203.71 559.5 188.92"/><polygon class="cls-73" points="568.17 182.94 592.17 176.94 576.37 218.03 562.46 220.51 568.17 182.94"/><polygon class="cls-60" points="645.35 136.81 633.61 136.62 633.39 137.03 645.32 137.27 645.35 136.81"/><polygon class="cls-60" points="633.89 136.05 645.37 136.14 645.39 135.71 634.11 135.6 633.89 136.05"/><polygon class="cls-60" points="642.06 164.32 650.61 162.1 650.95 162.44 642.39 164.6 642.06 164.32"/><polygon class="cls-60" points="651.33 162.77 651.67 163.1 643.33 165.27 642.89 164.94 651.33 162.77"/><path class="cls-76" d="M364.56,113.15a3.92,3.92,0,0,0-7.5,2.08c.36,1.32,5.22,4.78,5.22,4.78S364.93,114.47,364.56,113.15Z"/><ellipse class="cls-63" cx="360.81" cy="114.19" rx="1.56" ry="1.37" transform="translate(-17.39 100.49) rotate(-15.49)"/><path class="cls-77" d="M394.56,119.15a3.92,3.92,0,0,0-7.5,2.08c.36,1.32,5.22,4.78,5.22,4.78S394.93,120.47,394.56,119.15Z"/><ellipse class="cls-63" cx="390.81" cy="120.19" rx="1.56" ry="1.37" transform="translate(-17.9 108.72) rotate(-15.49)"/><path class="cls-78" d="M411.56,97.15a3.92,3.92,0,0,0-7.5,2.08c.36,1.32,5.22,4.78,5.22,4.78S411.93,98.47,411.56,97.15Z"/><ellipse class="cls-63" cx="407.81" cy="98.19" rx="1.56" ry="1.37" transform="translate(-11.41 112.46) rotate(-15.49)"/></g></svg>